solid Visualization Toolkit generated SLA File
 facet normal 0.0585965 -0.998282 0
  outer loop
   vertex 0.188025 0.0563926 -1
   vertex 0.206111 0.0574542 -1
   vertex 0.206111 0.0574542 3
  endloop
 endfacet
 facet normal 0.0585965 -0.998282 0
  outer loop
   vertex 0.188025 0.0563926 -1
   vertex 0.206111 0.0574542 3
   vertex 0.188025 0.0563926 3
  endloop
 endfacet
 facet normal 0.0701764 -0.997535 0
  outer loop
   vertex 0.17673 0.055598 -1
   vertex 0.188025 0.0563926 3
   vertex 0.17673 0.055598 3
  endloop
 endfacet
 facet normal 0.0701764 -0.997535 0
  outer loop
   vertex 0.17673 0.055598 -1
   vertex 0.188025 0.0563926 -1
   vertex 0.188025 0.0563926 3
  endloop
 endfacet
 facet normal 0.0798521 -0.996807 0
  outer loop
   vertex 0.165444 0.0546939 -1
   vertex 0.17673 0.055598 3
   vertex 0.165444 0.0546939 3
  endloop
 endfacet
 facet normal 0.0798521 -0.996807 0
  outer loop
   vertex 0.165444 0.0546939 -1
   vertex 0.17673 0.055598 -1
   vertex 0.17673 0.055598 3
  endloop
 endfacet
 facet normal 0.0927415 -0.99569 0
  outer loop
   vertex 0.148965 0.053159 -1
   vertex 0.165444 0.0546939 -1
   vertex 0.165444 0.0546939 3
  endloop
 endfacet
 facet normal 0.0927415 -0.99569 0
  outer loop
   vertex 0.148965 0.053159 -1
   vertex 0.165444 0.0546939 3
   vertex 0.148965 0.053159 3
  endloop
 endfacet
 facet normal 0.106607 -0.994301 0
  outer loop
   vertex 0.138685 0.0520568 -1
   vertex 0.148965 0.053159 3
   vertex 0.138685 0.0520568 3
  endloop
 endfacet
 facet normal 0.106607 -0.994301 0
  outer loop
   vertex 0.138685 0.0520568 -1
   vertex 0.148965 0.053159 -1
   vertex 0.148965 0.053159 3
  endloop
 endfacet
 facet normal 0.118308 -0.992977 0
  outer loop
   vertex 0.128421 0.0508339 -1
   vertex 0.138685 0.0520568 3
   vertex 0.128421 0.0508339 3
  endloop
 endfacet
 facet normal 0.118308 -0.992977 0
  outer loop
   vertex 0.128421 0.0508339 -1
   vertex 0.138685 0.0520568 -1
   vertex 0.138685 0.0520568 3
  endloop
 endfacet
 facet normal 0.133992 -0.990982 0
  outer loop
   vertex 0.113761 0.0488517 -1
   vertex 0.128421 0.0508339 -1
   vertex 0.128421 0.0508339 3
  endloop
 endfacet
 facet normal 0.133992 -0.990982 0
  outer loop
   vertex 0.113761 0.0488517 -1
   vertex 0.128421 0.0508339 3
   vertex 0.113761 0.0488517 3
  endloop
 endfacet
 facet normal 0.150782 -0.988567 0
  outer loop
   vertex 0.104617 0.047457 -1
   vertex 0.113761 0.0488517 3
   vertex 0.104617 0.047457 3
  endloop
 endfacet
 facet normal 0.150782 -0.988567 0
  outer loop
   vertex 0.104617 0.047457 -1
   vertex 0.113761 0.0488517 -1
   vertex 0.113761 0.0488517 3
  endloop
 endfacet
 facet normal 0.165207 -0.986259 0
  outer loop
   vertex 0.0954933 0.0459287 -1
   vertex 0.104617 0.047457 3
   vertex 0.0954933 0.0459287 3
  endloop
 endfacet
 facet normal 0.165207 -0.986259 0
  outer loop
   vertex 0.0954933 0.0459287 -1
   vertex 0.104617 0.047457 -1
   vertex 0.104617 0.047457 3
  endloop
 endfacet
 facet normal 0.184572 -0.982819 0
  outer loop
   vertex 0.0827791 0.043541 -1
   vertex 0.0954933 0.0459287 -1
   vertex 0.0954933 0.0459287 3
  endloop
 endfacet
 facet normal 0.184572 -0.982819 0
  outer loop
   vertex 0.0827791 0.043541 -1
   vertex 0.0954933 0.0459287 3
   vertex 0.0827791 0.043541 3
  endloop
 endfacet
 facet normal 0.205861 -0.978581 0
  outer loop
   vertex 0.0748677 0.0418767 -1
   vertex 0.0827791 0.043541 3
   vertex 0.0748677 0.0418767 3
  endloop
 endfacet
 facet normal 0.205861 -0.978581 0
  outer loop
   vertex 0.0748677 0.0418767 -1
   vertex 0.0827791 0.043541 -1
   vertex 0.0827791 0.043541 3
  endloop
 endfacet
 facet normal 0.224492 -0.974476 0
  outer loop
   vertex 0.0669896 0.0400618 -1
   vertex 0.0748677 0.0418767 3
   vertex 0.0669896 0.0400618 3
  endloop
 endfacet
 facet normal 0.224492 -0.974476 0
  outer loop
   vertex 0.0669896 0.0400618 -1
   vertex 0.0748677 0.0418767 -1
   vertex 0.0748677 0.0418767 3
  endloop
 endfacet
 facet normal 0.249692 -0.968325 0
  outer loop
   vertex 0.0563555 0.0373197 -1
   vertex 0.0669896 0.0400618 -1
   vertex 0.0669896 0.0400618 3
  endloop
 endfacet
 facet normal 0.249692 -0.968325 0
  outer loop
   vertex 0.0563555 0.0373197 -1
   vertex 0.0669896 0.0400618 3
   vertex 0.0563555 0.0373197 3
  endloop
 endfacet
 facet normal 0.277837 -0.960628 0
  outer loop
   vertex 0.0497627 0.0354129 -1
   vertex 0.0563555 0.0373197 3
   vertex 0.0497627 0.0354129 3
  endloop
 endfacet
 facet normal 0.277837 -0.960628 0
  outer loop
   vertex 0.0497627 0.0354129 -1
   vertex 0.0563555 0.0373197 -1
   vertex 0.0563555 0.0373197 3
  endloop
 endfacet
 facet normal 0.303069 -0.952969 0
  outer loop
   vertex 0.0432211 0.0333325 -1
   vertex 0.0497627 0.0354129 3
   vertex 0.0432211 0.0333325 3
  endloop
 endfacet
 facet normal 0.303069 -0.952969 0
  outer loop
   vertex 0.0432211 0.0333325 -1
   vertex 0.0497627 0.0354129 -1
   vertex 0.0497627 0.0354129 3
  endloop
 endfacet
 facet normal 0.337446 -0.941345 0
  outer loop
   vertex 0.0347722 0.0303038 -1
   vertex 0.0432211 0.0333325 -1
   vertex 0.0432211 0.0333325 3
  endloop
 endfacet
 facet normal 0.337446 -0.941345 0
  outer loop
   vertex 0.0347722 0.0303038 -1
   vertex 0.0432211 0.0333325 3
   vertex 0.0347722 0.0303038 3
  endloop
 endfacet
 facet normal 0.377339 -0.926075 0
  outer loop
   vertex 0.0295766 0.0281868 -1
   vertex 0.0347722 0.0303038 3
   vertex 0.0295766 0.0281868 3
  endloop
 endfacet
 facet normal 0.377339 -0.926075 0
  outer loop
   vertex 0.0295766 0.0281868 -1
   vertex 0.0347722 0.0303038 -1
   vertex 0.0347722 0.0303038 3
  endloop
 endfacet
 facet normal 0.414401 -0.910095 0
  outer loop
   vertex 0.0244705 0.0258618 -1
   vertex 0.0295766 0.0281868 3
   vertex 0.0244705 0.0258618 3
  endloop
 endfacet
 facet normal 0.414401 -0.910095 0
  outer loop
   vertex 0.0244705 0.0258618 -1
   vertex 0.0295766 0.0281868 -1
   vertex 0.0295766 0.0281868 3
  endloop
 endfacet
 facet normal 0.464878 -0.885375 0
  outer loop
   vertex 0.0182583 0.0226 -1
   vertex 0.0244705 0.0258618 -1
   vertex 0.0244705 0.0258618 3
  endloop
 endfacet
 facet normal 0.464878 -0.885375 0
  outer loop
   vertex 0.0182583 0.0226 -1
   vertex 0.0244705 0.0258618 3
   vertex 0.0182583 0.0226 3
  endloop
 endfacet
 facet normal 0.523646 -0.851936 0
  outer loop
   vertex 0.0145201 0.0203023 -1
   vertex 0.0182583 0.0226 3
   vertex 0.0145201 0.0203023 3
  endloop
 endfacet
 facet normal 0.523646 -0.851936 0
  outer loop
   vertex 0.0145201 0.0203023 -1
   vertex 0.0182583 0.0226 -1
   vertex 0.0182583 0.0226 3
  endloop
 endfacet
 facet normal 0.578174 -0.815914 0
  outer loop
   vertex 0.0109313 0.0177592 -1
   vertex 0.0145201 0.0203023 3
   vertex 0.0109313 0.0177592 3
  endloop
 endfacet
 facet normal 0.578174 -0.815914 0
  outer loop
   vertex 0.0109313 0.0177592 -1
   vertex 0.0145201 0.0203023 -1
   vertex 0.0145201 0.0203023 3
  endloop
 endfacet
 facet normal 0.651557 -0.758599 0
  outer loop
   vertex 0.00688028 0.0142798 -1
   vertex 0.0109313 0.0177592 -1
   vertex 0.0109313 0.0177592 3
  endloop
 endfacet
 facet normal 0.651557 -0.758599 0
  outer loop
   vertex 0.00688028 0.0142798 -1
   vertex 0.0109313 0.0177592 3
   vertex 0.00688028 0.0142798 3
  endloop
 endfacet
 facet normal 0.739383 -0.673285 0
  outer loop
   vertex 0.00464038 0.01182 -1
   vertex 0.00688028 0.0142798 3
   vertex 0.00464038 0.01182 3
  endloop
 endfacet
 facet normal 0.739383 -0.673285 0
  outer loop
   vertex 0.00464038 0.01182 -1
   vertex 0.00688028 0.0142798 -1
   vertex 0.00688028 0.0142798 3
  endloop
 endfacet
 facet normal 0.818772 -0.574118 0
  outer loop
   vertex 0.00272659 0.00909067 -1
   vertex 0.00464038 0.01182 3
   vertex 0.00272659 0.00909067 3
  endloop
 endfacet
 facet normal 0.818772 -0.574118 0
  outer loop
   vertex 0.00272659 0.00909067 -1
   vertex 0.00464038 0.01182 -1
   vertex 0.00464038 0.01182 3
  endloop
 endfacet
 facet normal 0.905563 -0.424213 0
  outer loop
   vertex 0.000917204 0.00522819 -1
   vertex 0.00272659 0.00909067 -1
   vertex 0.00272659 0.00909067 3
  endloop
 endfacet
 facet normal 0.905563 -0.424213 0
  outer loop
   vertex 0.000917204 0.00522819 -1
   vertex 0.00272659 0.00909067 3
   vertex 0.000917204 0.00522819 3
  endloop
 endfacet
 facet normal 0.967387 -0.253303 0
  outer loop
   vertex 0.000242071 0.0026498 -1
   vertex 0.000917204 0.00522819 3
   vertex 0.000242071 0.0026498 3
  endloop
 endfacet
 facet normal 0.967387 -0.253303 0
  outer loop
   vertex 0.000242071 0.0026498 -1
   vertex 0.000917204 0.00522819 -1
   vertex 0.000917204 0.00522819 3
  endloop
 endfacet
 facet normal 0.99581 -0.0914434 0
  outer loop
   vertex 1.01125e-08 1.37778e-05 -1
   vertex 0.000242071 0.0026498 3
   vertex 1.01125e-08 1.37778e-05 3
  endloop
 endfacet
 facet normal 0.99581 -0.0914434 0
  outer loop
   vertex 1.01125e-08 1.37778e-05 -1
   vertex 0.000242071 0.0026498 -1
   vertex 0.000242071 0.0026498 3
  endloop
 endfacet
 facet normal 0.994219 0.107369 -0
  outer loop
   vertex 0.000342223 -0.00315506 -1
   vertex 1.01125e-08 1.37778e-05 -1
   vertex 1.01125e-08 1.37778e-05 3
  endloop
 endfacet
 facet normal 0.994219 0.107369 0
  outer loop
   vertex 0.000342223 -0.00315506 -1
   vertex 1.01125e-08 1.37778e-05 3
   vertex 0.000342223 -0.00315506 3
  endloop
 endfacet
 facet normal 0.95532 0.295574 0
  outer loop
   vertex 0.00129151 -0.00622323 -1
   vertex 0.000342223 -0.00315506 3
   vertex 0.00129151 -0.00622323 3
  endloop
 endfacet
 facet normal 0.95532 0.295574 -0
  outer loop
   vertex 0.00129151 -0.00622323 -1
   vertex 0.000342223 -0.00315506 -1
   vertex 0.000342223 -0.00315506 3
  endloop
 endfacet
 facet normal 0.894139 0.447789 0
  outer loop
   vertex 0.00273183 -0.00909924 -1
   vertex 0.00129151 -0.00622323 3
   vertex 0.00273183 -0.00909924 3
  endloop
 endfacet
 facet normal 0.894139 0.447789 -0
  outer loop
   vertex 0.00273183 -0.00909924 -1
   vertex 0.00129151 -0.00622323 -1
   vertex 0.00129151 -0.00622323 3
  endloop
 endfacet
 facet normal 0.795408 0.606074 -0
  outer loop
   vertex 0.00595606 -0.0133307 -1
   vertex 0.00273183 -0.00909924 -1
   vertex 0.00273183 -0.00909924 3
  endloop
 endfacet
 facet normal 0.795408 0.606074 0
  outer loop
   vertex 0.00595606 -0.0133307 -1
   vertex 0.00273183 -0.00909924 3
   vertex 0.00595606 -0.0133307 3
  endloop
 endfacet
 facet normal 0.695551 0.718477 0
  outer loop
   vertex 0.00834499 -0.0156434 -1
   vertex 0.00595606 -0.0133307 3
   vertex 0.00834499 -0.0156434 3
  endloop
 endfacet
 facet normal 0.695551 0.718477 -0
  outer loop
   vertex 0.00834499 -0.0156434 -1
   vertex 0.00595606 -0.0133307 -1
   vertex 0.00595606 -0.0133307 3
  endloop
 endfacet
 facet normal 0.63341 0.773817 0
  outer loop
   vertex 0.010921 -0.017752 -1
   vertex 0.00834499 -0.0156434 3
   vertex 0.010921 -0.017752 3
  endloop
 endfacet
 facet normal 0.63341 0.773817 -0
  outer loop
   vertex 0.010921 -0.017752 -1
   vertex 0.00834499 -0.0156434 -1
   vertex 0.00834499 -0.0156434 3
  endloop
 endfacet
 facet normal 0.561783 0.827285 -0
  outer loop
   vertex 0.0167484 -0.0217092 -1
   vertex 0.010921 -0.017752 -1
   vertex 0.010921 -0.017752 3
  endloop
 endfacet
 facet normal 0.561783 0.827285 0
  outer loop
   vertex 0.0167484 -0.0217092 -1
   vertex 0.010921 -0.017752 3
   vertex 0.0167484 -0.0217092 3
  endloop
 endfacet
 facet normal 0.494393 0.869239 0
  outer loop
   vertex 0.0205672 -0.0238812 -1
   vertex 0.0167484 -0.0217092 3
   vertex 0.0205672 -0.0238812 3
  endloop
 endfacet
 facet normal 0.494393 0.869239 -0
  outer loop
   vertex 0.0205672 -0.0238812 -1
   vertex 0.0167484 -0.0217092 -1
   vertex 0.0167484 -0.0217092 3
  endloop
 endfacet
 facet normal 0.452469 0.89178 0
  outer loop
   vertex 0.0244842 -0.0258686 -1
   vertex 0.0205672 -0.0238812 3
   vertex 0.0244842 -0.0258686 3
  endloop
 endfacet
 facet normal 0.452469 0.89178 -0
  outer loop
   vertex 0.0244842 -0.0258686 -1
   vertex 0.0205672 -0.0238812 -1
   vertex 0.0205672 -0.0238812 3
  endloop
 endfacet
 facet normal 0.403001 0.9152 -0
  outer loop
   vertex 0.0326926 -0.0294831 -1
   vertex 0.0244842 -0.0258686 -1
   vertex 0.0244842 -0.0258686 3
  endloop
 endfacet
 facet normal 0.403001 0.9152 0
  outer loop
   vertex 0.0326926 -0.0294831 -1
   vertex 0.0244842 -0.0258686 3
   vertex 0.0326926 -0.0294831 3
  endloop
 endfacet
 facet normal 0.357484 0.933919 0
  outer loop
   vertex 0.0379348 -0.0314897 -1
   vertex 0.0326926 -0.0294831 3
   vertex 0.0379348 -0.0314897 3
  endloop
 endfacet
 facet normal 0.357484 0.933919 -0
  outer loop
   vertex 0.0379348 -0.0314897 -1
   vertex 0.0326926 -0.0294831 -1
   vertex 0.0326926 -0.0294831 3
  endloop
 endfacet
 facet normal 0.328988 0.944334 0
  outer loop
   vertex 0.0432379 -0.0333372 -1
   vertex 0.0379348 -0.0314897 3
   vertex 0.0432379 -0.0333372 3
  endloop
 endfacet
 facet normal 0.328988 0.944334 -0
  outer loop
   vertex 0.0432379 -0.0333372 -1
   vertex 0.0379348 -0.0314897 -1
   vertex 0.0379348 -0.0314897 3
  endloop
 endfacet
 facet normal 0.295377 0.955381 -0
  outer loop
   vertex 0.0537204 -0.0365781 -1
   vertex 0.0432379 -0.0333372 -1
   vertex 0.0432379 -0.0333372 3
  endloop
 endfacet
 facet normal 0.295377 0.955381 0
  outer loop
   vertex 0.0537204 -0.0365781 -1
   vertex 0.0432379 -0.0333372 3
   vertex 0.0537204 -0.0365781 3
  endloop
 endfacet
 facet normal 0.264078 0.964501 0
  outer loop
   vertex 0.0603377 -0.0383899 -1
   vertex 0.0537204 -0.0365781 3
   vertex 0.0603377 -0.0383899 3
  endloop
 endfacet
 facet normal 0.264078 0.964501 -0
  outer loop
   vertex 0.0603377 -0.0383899 -1
   vertex 0.0537204 -0.0365781 -1
   vertex 0.0537204 -0.0365781 3
  endloop
 endfacet
 facet normal 0.24364 0.969866 0
  outer loop
   vertex 0.0669931 -0.0400618 -1
   vertex 0.0603377 -0.0383899 3
   vertex 0.0669931 -0.0400618 3
  endloop
 endfacet
 facet normal 0.24364 0.969866 -0
  outer loop
   vertex 0.0669931 -0.0400618 -1
   vertex 0.0603377 -0.0383899 -1
   vertex 0.0603377 -0.0383899 3
  endloop
 endfacet
 facet normal 0.218885 0.975751 -0
  outer loop
   vertex 0.0796092 -0.0428919 -1
   vertex 0.0669931 -0.0400618 -1
   vertex 0.0669931 -0.0400618 3
  endloop
 endfacet
 facet normal 0.218885 0.975751 0
  outer loop
   vertex 0.0796092 -0.0428919 -1
   vertex 0.0669931 -0.0400618 3
   vertex 0.0796092 -0.0428919 3
  endloop
 endfacet
 facet normal 0.195629 0.980678 0
  outer loop
   vertex 0.0875367 -0.0444733 -1
   vertex 0.0796092 -0.0428919 3
   vertex 0.0875367 -0.0444733 3
  endloop
 endfacet
 facet normal 0.195629 0.980678 -0
  outer loop
   vertex 0.0875367 -0.0444733 -1
   vertex 0.0796092 -0.0428919 -1
   vertex 0.0796092 -0.0428919 3
  endloop
 endfacet
 facet normal 0.180007 0.983665 0
  outer loop
   vertex 0.0954893 -0.0459286 -1
   vertex 0.0875367 -0.0444733 3
   vertex 0.0954893 -0.0459286 3
  endloop
 endfacet
 facet normal 0.180007 0.983665 -0
  outer loop
   vertex 0.0954893 -0.0459286 -1
   vertex 0.0875367 -0.0444733 -1
   vertex 0.0875367 -0.0444733 3
  endloop
 endfacet
 facet normal 0.160828 0.986982 -0
  outer loop
   vertex 0.1101 -0.0483094 -1
   vertex 0.0954893 -0.0459286 -1
   vertex 0.0954893 -0.0459286 3
  endloop
 endfacet
 facet normal 0.160828 0.986982 0
  outer loop
   vertex 0.1101 -0.0483094 -1
   vertex 0.0954893 -0.0459286 3
   vertex 0.1101 -0.0483094 3
  endloop
 endfacet
 facet normal 0.142688 0.989768 0
  outer loop
   vertex 0.119257 -0.0496295 -1
   vertex 0.1101 -0.0483094 3
   vertex 0.119257 -0.0496295 3
  endloop
 endfacet
 facet normal 0.142688 0.989768 -0
  outer loop
   vertex 0.119257 -0.0496295 -1
   vertex 0.1101 -0.0483094 -1
   vertex 0.1101 -0.0483094 3
  endloop
 endfacet
 facet normal 0.130238 0.991483 0
  outer loop
   vertex 0.128429 -0.0508343 -1
   vertex 0.119257 -0.0496295 3
   vertex 0.128429 -0.0508343 3
  endloop
 endfacet
 facet normal 0.130238 0.991483 -0
  outer loop
   vertex 0.128429 -0.0508343 -1
   vertex 0.119257 -0.0496295 -1
   vertex 0.119257 -0.0496295 3
  endloop
 endfacet
 facet normal 0.114743 0.993395 -0
  outer loop
   vertex 0.144855 -0.0527316 -1
   vertex 0.128429 -0.0508343 -1
   vertex 0.128429 -0.0508343 3
  endloop
 endfacet
 facet normal 0.114743 0.993395 0
  outer loop
   vertex 0.144855 -0.0527316 -1
   vertex 0.128429 -0.0508343 3
   vertex 0.144855 -0.0527316 3
  endloop
 endfacet
 facet normal 0.10004 0.994983 0
  outer loop
   vertex 0.155137 -0.0537654 -1
   vertex 0.144855 -0.0527316 3
   vertex 0.155137 -0.0537654 3
  endloop
 endfacet
 facet normal 0.10004 0.994983 -0
  outer loop
   vertex 0.155137 -0.0537654 -1
   vertex 0.144855 -0.0527316 -1
   vertex 0.144855 -0.0527316 3
  endloop
 endfacet
 facet normal 0.0897642 0.995963 0
  outer loop
   vertex 0.165429 -0.054693 -1
   vertex 0.155137 -0.0537654 3
   vertex 0.165429 -0.054693 3
  endloop
 endfacet
 facet normal 0.0897642 0.995963 -0
  outer loop
   vertex 0.165429 -0.054693 -1
   vertex 0.155137 -0.0537654 -1
   vertex 0.155137 -0.0537654 3
  endloop
 endfacet
 facet normal 0.0769627 0.997034 -0
  outer loop
   vertex 0.18351 -0.0560887 -1
   vertex 0.165429 -0.054693 -1
   vertex 0.165429 -0.054693 3
  endloop
 endfacet
 facet normal 0.0769627 0.997034 0
  outer loop
   vertex 0.18351 -0.0560887 -1
   vertex 0.165429 -0.054693 3
   vertex 0.18351 -0.0560887 3
  endloop
 endfacet
 facet normal 0.0646742 0.997906 0
  outer loop
   vertex 0.19482 -0.0568217 -1
   vertex 0.18351 -0.0560887 3
   vertex 0.19482 -0.0568217 3
  endloop
 endfacet
 facet normal 0.0646742 0.997906 -0
  outer loop
   vertex 0.19482 -0.0568217 -1
   vertex 0.18351 -0.0560887 -1
   vertex 0.18351 -0.0560887 3
  endloop
 endfacet
 facet normal 0.0560007 0.998431 0
  outer loop
   vertex 0.206136 -0.0574564 -1
   vertex 0.19482 -0.0568217 3
   vertex 0.206136 -0.0574564 3
  endloop
 endfacet
 facet normal 0.0560007 0.998431 -0
  outer loop
   vertex 0.206136 -0.0574564 -1
   vertex 0.19482 -0.0568217 -1
   vertex 0.19482 -0.0568217 3
  endloop
 endfacet
endsolid
