solid patch0
 facet normal -0.13594 -0.990717 0
  outer loop
   vertex 0.998783 0.000172094 -1
   vertex 1.00002 2.35645e-06 -1
   vertex 1.00002 2.35645e-06 3
  endloop
 endfacet
 facet normal -0.13594 -0.990717 0
  outer loop
   vertex 0.998783 0.000172094 -1
   vertex 1.00002 2.35645e-06 3
   vertex 0.998783 0.000172094 3
  endloop
 endfacet
 facet normal -0.139936 -0.99016 0
  outer loop
   vertex 0.998022 0.00027964 -1
   vertex 0.998783 0.000172094 3
   vertex 0.998022 0.00027964 3
  endloop
 endfacet
 facet normal -0.139936 -0.99016 0
  outer loop
   vertex 0.998022 0.00027964 -1
   vertex 0.998783 0.000172094 -1
   vertex 0.998783 0.000172094 3
  endloop
 endfacet
 facet normal -0.139836 -0.990175 0
  outer loop
   vertex 0.997261 0.000387116 -1
   vertex 0.998022 0.00027964 3
   vertex 0.997261 0.000387116 3
  endloop
 endfacet
 facet normal -0.139836 -0.990175 0
  outer loop
   vertex 0.997261 0.000387116 -1
   vertex 0.998022 0.00027964 -1
   vertex 0.998022 0.00027964 3
  endloop
 endfacet
 facet normal -0.139428 -0.990232 0
  outer loop
   vertex 0.993622 0.000899496 -1
   vertex 0.997261 0.000387116 -1
   vertex 0.997261 0.000387116 3
  endloop
 endfacet
 facet normal -0.139428 -0.990232 0
  outer loop
   vertex 0.993622 0.000899496 -1
   vertex 0.997261 0.000387116 3
   vertex 0.993622 0.000899496 3
  endloop
 endfacet
 facet normal -0.138851 -0.990313 0
  outer loop
   vertex 0.991347 0.00121847 -1
   vertex 0.993622 0.000899496 3
   vertex 0.991347 0.00121847 3
  endloop
 endfacet
 facet normal -0.138851 -0.990313 0
  outer loop
   vertex 0.991347 0.00121847 -1
   vertex 0.993622 0.000899496 -1
   vertex 0.993622 0.000899496 3
  endloop
 endfacet
 facet normal -0.138522 -0.990359 0
  outer loop
   vertex 0.989073 0.00153654 -1
   vertex 0.991347 0.00121847 3
   vertex 0.989073 0.00153654 3
  endloop
 endfacet
 facet normal -0.138522 -0.990359 0
  outer loop
   vertex 0.989073 0.00153654 -1
   vertex 0.991347 0.00121847 -1
   vertex 0.991347 0.00121847 3
  endloop
 endfacet
 facet normal -0.137789 -0.990462 0
  outer loop
   vertex 0.983051 0.00237429 -1
   vertex 0.989073 0.00153654 -1
   vertex 0.989073 0.00153654 3
  endloop
 endfacet
 facet normal -0.137789 -0.990462 0
  outer loop
   vertex 0.983051 0.00237429 -1
   vertex 0.989073 0.00153654 3
   vertex 0.983051 0.00237429 3
  endloop
 endfacet
 facet normal -0.137054 -0.990564 0
  outer loop
   vertex 0.979288 0.00289494 -1
   vertex 0.983051 0.00237429 3
   vertex 0.979288 0.00289494 3
  endloop
 endfacet
 facet normal -0.137054 -0.990564 0
  outer loop
   vertex 0.979288 0.00289494 -1
   vertex 0.983051 0.00237429 -1
   vertex 0.983051 0.00237429 3
  endloop
 endfacet
 facet normal -0.136428 -0.99065 0
  outer loop
   vertex 0.975524 0.0034133 -1
   vertex 0.979288 0.00289494 3
   vertex 0.975524 0.0034133 3
  endloop
 endfacet
 facet normal -0.136428 -0.99065 0
  outer loop
   vertex 0.975524 0.0034133 -1
   vertex 0.979288 0.00289494 -1
   vertex 0.979288 0.00289494 3
  endloop
 endfacet
 facet normal -0.135557 -0.99077 0
  outer loop
   vertex 0.967194 0.00455301 -1
   vertex 0.975524 0.0034133 -1
   vertex 0.975524 0.0034133 3
  endloop
 endfacet
 facet normal -0.135557 -0.99077 0
  outer loop
   vertex 0.967194 0.00455301 -1
   vertex 0.975524 0.0034133 3
   vertex 0.967194 0.00455301 3
  endloop
 endfacet
 facet normal -0.134425 -0.990924 0
  outer loop
   vertex 0.961985 0.00525965 -1
   vertex 0.967194 0.00455301 3
   vertex 0.961985 0.00525965 3
  endloop
 endfacet
 facet normal -0.134425 -0.990924 0
  outer loop
   vertex 0.961985 0.00525965 -1
   vertex 0.967194 0.00455301 -1
   vertex 0.967194 0.00455301 3
  endloop
 endfacet
 facet normal -0.133576 -0.991039 0
  outer loop
   vertex 0.956774 0.00596201 -1
   vertex 0.961985 0.00525965 3
   vertex 0.956774 0.00596201 3
  endloop
 endfacet
 facet normal -0.133576 -0.991039 0
  outer loop
   vertex 0.956774 0.00596201 -1
   vertex 0.961985 0.00525965 -1
   vertex 0.961985 0.00525965 3
  endloop
 endfacet
 facet normal -0.132329 -0.991206 0
  outer loop
   vertex 0.946212 0.00737207 -1
   vertex 0.956774 0.00596201 -1
   vertex 0.956774 0.00596201 3
  endloop
 endfacet
 facet normal -0.132329 -0.991206 0
  outer loop
   vertex 0.946212 0.00737207 -1
   vertex 0.956774 0.00596201 3
   vertex 0.946212 0.00737207 3
  endloop
 endfacet
 facet normal -0.131065 -0.991374 0
  outer loop
   vertex 0.939612 0.00824463 -1
   vertex 0.946212 0.00737207 3
   vertex 0.939612 0.00824463 3
  endloop
 endfacet
 facet normal -0.131065 -0.991374 0
  outer loop
   vertex 0.939612 0.00824463 -1
   vertex 0.946212 0.00737207 -1
   vertex 0.946212 0.00737207 3
  endloop
 endfacet
 facet normal -0.130068 -0.991505 0
  outer loop
   vertex 0.933011 0.00911056 -1
   vertex 0.939612 0.00824463 3
   vertex 0.933011 0.00911056 3
  endloop
 endfacet
 facet normal -0.130068 -0.991505 0
  outer loop
   vertex 0.933011 0.00911056 -1
   vertex 0.939612 0.00824463 -1
   vertex 0.939612 0.00824463 3
  endloop
 endfacet
 facet normal -0.128638 -0.991692 0
  outer loop
   vertex 0.920343 0.0107538 -1
   vertex 0.933011 0.00911056 -1
   vertex 0.933011 0.00911056 3
  endloop
 endfacet
 facet normal -0.128638 -0.991692 0
  outer loop
   vertex 0.920343 0.0107538 -1
   vertex 0.933011 0.00911056 3
   vertex 0.920343 0.0107538 3
  endloop
 endfacet
 facet normal -0.127149 -0.991884 0
  outer loop
   vertex 0.912425 0.0117688 -1
   vertex 0.920343 0.0107538 3
   vertex 0.912425 0.0117688 3
  endloop
 endfacet
 facet normal -0.127149 -0.991884 0
  outer loop
   vertex 0.912425 0.0117688 -1
   vertex 0.920343 0.0107538 -1
   vertex 0.920343 0.0107538 3
  endloop
 endfacet
 facet normal -0.125996 -0.992031 0
  outer loop
   vertex 0.904505 0.0127747 -1
   vertex 0.912425 0.0117688 3
   vertex 0.904505 0.0127747 3
  endloop
 endfacet
 facet normal -0.125996 -0.992031 0
  outer loop
   vertex 0.904505 0.0127747 -1
   vertex 0.912425 0.0117688 -1
   vertex 0.912425 0.0117688 3
  endloop
 endfacet
 facet normal -0.124443 -0.992227 0
  outer loop
   vertex 0.889874 0.0146097 -1
   vertex 0.904505 0.0127747 -1
   vertex 0.904505 0.0127747 3
  endloop
 endfacet
 facet normal -0.124443 -0.992227 0
  outer loop
   vertex 0.889874 0.0146097 -1
   vertex 0.904505 0.0127747 3
   vertex 0.889874 0.0146097 3
  endloop
 endfacet
 facet normal -0.122753 -0.992437 0
  outer loop
   vertex 0.880726 0.0157412 -1
   vertex 0.889874 0.0146097 3
   vertex 0.880726 0.0157412 3
  endloop
 endfacet
 facet normal -0.122753 -0.992437 0
  outer loop
   vertex 0.880726 0.0157412 -1
   vertex 0.889874 0.0146097 -1
   vertex 0.889874 0.0146097 3
  endloop
 endfacet
 facet normal -0.121466 -0.992596 0
  outer loop
   vertex 0.871576 0.0168609 -1
   vertex 0.880726 0.0157412 3
   vertex 0.871576 0.0168609 3
  endloop
 endfacet
 facet normal -0.121466 -0.992596 0
  outer loop
   vertex 0.871576 0.0168609 -1
   vertex 0.880726 0.0157412 -1
   vertex 0.880726 0.0157412 3
  endloop
 endfacet
 facet normal -0.119693 -0.992811 0
  outer loop
   vertex 0.855126 0.0188441 -1
   vertex 0.871576 0.0168609 -1
   vertex 0.871576 0.0168609 3
  endloop
 endfacet
 facet normal -0.119693 -0.992811 0
  outer loop
   vertex 0.855126 0.0188441 -1
   vertex 0.871576 0.0168609 3
   vertex 0.855126 0.0188441 3
  endloop
 endfacet
 facet normal -0.117903 -0.993025 0
  outer loop
   vertex 0.844844 0.0200649 -1
   vertex 0.855126 0.0188441 3
   vertex 0.844844 0.0200649 3
  endloop
 endfacet
 facet normal -0.117903 -0.993025 0
  outer loop
   vertex 0.844844 0.0200649 -1
   vertex 0.855126 0.0188441 -1
   vertex 0.855126 0.0188441 3
  endloop
 endfacet
 facet normal -0.116551 -0.993185 0
  outer loop
   vertex 0.834562 0.0212715 -1
   vertex 0.844844 0.0200649 3
   vertex 0.834562 0.0212715 3
  endloop
 endfacet
 facet normal -0.116551 -0.993185 0
  outer loop
   vertex 0.834562 0.0212715 -1
   vertex 0.844844 0.0200649 -1
   vertex 0.844844 0.0200649 3
  endloop
 endfacet
 facet normal -0.114695 -0.993401 0
  outer loop
   vertex 0.816493 0.0233577 -1
   vertex 0.834562 0.0212715 -1
   vertex 0.834562 0.0212715 3
  endloop
 endfacet
 facet normal -0.114695 -0.993401 0
  outer loop
   vertex 0.816493 0.0233577 -1
   vertex 0.834562 0.0212715 3
   vertex 0.816493 0.0233577 3
  endloop
 endfacet
 facet normal -0.112747 -0.993624 0
  outer loop
   vertex 0.805194 0.0246398 -1
   vertex 0.816493 0.0233577 3
   vertex 0.805194 0.0246398 3
  endloop
 endfacet
 facet normal -0.112747 -0.993624 0
  outer loop
   vertex 0.805194 0.0246398 -1
   vertex 0.816493 0.0233577 -1
   vertex 0.816493 0.0233577 3
  endloop
 endfacet
 facet normal -0.111277 -0.993789 0
  outer loop
   vertex 0.793893 0.0259052 -1
   vertex 0.805194 0.0246398 3
   vertex 0.793893 0.0259052 3
  endloop
 endfacet
 facet normal -0.111277 -0.993789 0
  outer loop
   vertex 0.793893 0.0259052 -1
   vertex 0.805194 0.0246398 -1
   vertex 0.805194 0.0246398 3
  endloop
 endfacet
 facet normal -0.109236 -0.994016 0
  outer loop
   vertex 0.774386 0.0280489 -1
   vertex 0.793893 0.0259052 -1
   vertex 0.793893 0.0259052 3
  endloop
 endfacet
 facet normal -0.109236 -0.994016 0
  outer loop
   vertex 0.774386 0.0280489 -1
   vertex 0.793893 0.0259052 3
   vertex 0.774386 0.0280489 3
  endloop
 endfacet
 facet normal -0.107178 -0.99424 0
  outer loop
   vertex 0.762192 0.0293634 -1
   vertex 0.774386 0.0280489 3
   vertex 0.762192 0.0293634 3
  endloop
 endfacet
 facet normal -0.107178 -0.99424 0
  outer loop
   vertex 0.762192 0.0293634 -1
   vertex 0.774386 0.0280489 -1
   vertex 0.774386 0.0280489 3
  endloop
 endfacet
 facet normal -0.105589 -0.99441 0
  outer loop
   vertex 0.749997 0.0306583 -1
   vertex 0.762192 0.0293634 3
   vertex 0.749997 0.0306583 3
  endloop
 endfacet
 facet normal -0.105589 -0.99441 0
  outer loop
   vertex 0.749997 0.0306583 -1
   vertex 0.762192 0.0293634 -1
   vertex 0.762192 0.0293634 3
  endloop
 endfacet
 facet normal -0.10342 -0.994638 0
  outer loop
   vertex 0.72928 0.0328124 -1
   vertex 0.749997 0.0306583 -1
   vertex 0.749997 0.0306583 3
  endloop
 endfacet
 facet normal -0.10342 -0.994638 0
  outer loop
   vertex 0.72928 0.0328124 -1
   vertex 0.749997 0.0306583 3
   vertex 0.72928 0.0328124 3
  endloop
 endfacet
 facet normal -0.101177 -0.994868 0
  outer loop
   vertex 0.716328 0.0341296 -1
   vertex 0.72928 0.0328124 3
   vertex 0.716328 0.0341296 3
  endloop
 endfacet
 facet normal -0.101177 -0.994868 0
  outer loop
   vertex 0.716328 0.0341296 -1
   vertex 0.72928 0.0328124 -1
   vertex 0.72928 0.0328124 3
  endloop
 endfacet
 facet normal -0.09942 -0.995046 0
  outer loop
   vertex 0.703373 0.035424 -1
   vertex 0.716328 0.0341296 3
   vertex 0.703373 0.035424 3
  endloop
 endfacet
 facet normal -0.09942 -0.995046 0
  outer loop
   vertex 0.703373 0.035424 -1
   vertex 0.716328 0.0341296 -1
   vertex 0.716328 0.0341296 3
  endloop
 endfacet
 facet normal -0.0970253 -0.995282 0
  outer loop
   vertex 0.68166 0.0375407 -1
   vertex 0.703373 0.035424 -1
   vertex 0.703373 0.035424 3
  endloop
 endfacet
 facet normal -0.0970253 -0.995282 0
  outer loop
   vertex 0.68166 0.0375407 -1
   vertex 0.703373 0.035424 3
   vertex 0.68166 0.0375407 3
  endloop
 endfacet
 facet normal -0.0945426 -0.995521 0
  outer loop
   vertex 0.668087 0.0388297 -1
   vertex 0.68166 0.0375407 3
   vertex 0.668087 0.0388297 3
  endloop
 endfacet
 facet normal -0.0945426 -0.995521 0
  outer loop
   vertex 0.668087 0.0388297 -1
   vertex 0.68166 0.0375407 -1
   vertex 0.68166 0.0375407 3
  endloop
 endfacet
 facet normal -0.0926022 -0.995703 0
  outer loop
   vertex 0.654512 0.0400922 -1
   vertex 0.668087 0.0388297 3
   vertex 0.654512 0.0400922 3
  endloop
 endfacet
 facet normal -0.0926022 -0.995703 0
  outer loop
   vertex 0.654512 0.0400922 -1
   vertex 0.668087 0.0388297 -1
   vertex 0.668087 0.0388297 3
  endloop
 endfacet
 facet normal -0.0899525 -0.995946 0
  outer loop
   vertex 0.632046 0.0421213 -1
   vertex 0.654512 0.0400922 -1
   vertex 0.654512 0.0400922 3
  endloop
 endfacet
 facet normal -0.0899525 -0.995946 0
  outer loop
   vertex 0.632046 0.0421213 -1
   vertex 0.654512 0.0400922 3
   vertex 0.632046 0.0421213 3
  endloop
 endfacet
 facet normal -0.0871424 -0.996196 0
  outer loop
   vertex 0.618002 0.0433498 -1
   vertex 0.632046 0.0421213 3
   vertex 0.618002 0.0433498 3
  endloop
 endfacet
 facet normal -0.0871424 -0.996196 0
  outer loop
   vertex 0.618002 0.0433498 -1
   vertex 0.632046 0.0421213 -1
   vertex 0.632046 0.0421213 3
  endloop
 endfacet
 facet normal -0.0849123 -0.996388 0
  outer loop
   vertex 0.603956 0.0445468 -1
   vertex 0.618002 0.0433498 3
   vertex 0.603956 0.0445468 3
  endloop
 endfacet
 facet normal -0.0849123 -0.996388 0
  outer loop
   vertex 0.603956 0.0445468 -1
   vertex 0.618002 0.0433498 -1
   vertex 0.618002 0.0433498 3
  endloop
 endfacet
 facet normal -0.0818474 -0.996645 0
  outer loop
   vertex 0.580988 0.046433 -1
   vertex 0.603956 0.0445468 -1
   vertex 0.603956 0.0445468 3
  endloop
 endfacet
 facet normal -0.0818474 -0.996645 0
  outer loop
   vertex 0.580988 0.046433 -1
   vertex 0.603956 0.0445468 3
   vertex 0.580988 0.046433 3
  endloop
 endfacet
 facet normal -0.0786499 -0.996902 0
  outer loop
   vertex 0.566627 0.047566 -1
   vertex 0.580988 0.046433 3
   vertex 0.566627 0.047566 3
  endloop
 endfacet
 facet normal -0.0786499 -0.996902 0
  outer loop
   vertex 0.566627 0.047566 -1
   vertex 0.580988 0.046433 -1
   vertex 0.580988 0.046433 3
  endloop
 endfacet
 facet normal -0.0760806 -0.997102 0
  outer loop
   vertex 0.552263 0.048662 -1
   vertex 0.566627 0.047566 3
   vertex 0.552263 0.048662 3
  endloop
 endfacet
 facet normal -0.0760806 -0.997102 0
  outer loop
   vertex 0.552263 0.048662 -1
   vertex 0.566627 0.047566 -1
   vertex 0.566627 0.047566 3
  endloop
 endfacet
 facet normal -0.0725414 -0.997365 0
  outer loop
   vertex 0.529037 0.0503513 -1
   vertex 0.552263 0.048662 -1
   vertex 0.552263 0.048662 3
  endloop
 endfacet
 facet normal -0.0725414 -0.997365 0
  outer loop
   vertex 0.529037 0.0503513 -1
   vertex 0.552263 0.048662 3
   vertex 0.529037 0.0503513 3
  endloop
 endfacet
 facet normal -0.0688083 -0.99763 0
  outer loop
   vertex 0.514518 0.0513527 -1
   vertex 0.529037 0.0503513 3
   vertex 0.514518 0.0513527 3
  endloop
 endfacet
 facet normal -0.0688083 -0.99763 0
  outer loop
   vertex 0.514518 0.0513527 -1
   vertex 0.529037 0.0503513 -1
   vertex 0.529037 0.0503513 3
  endloop
 endfacet
 facet normal -0.065796 -0.997833 0
  outer loop
   vertex 0.499997 0.0523102 -1
   vertex 0.514518 0.0513527 3
   vertex 0.499997 0.0523102 3
  endloop
 endfacet
 facet normal -0.065796 -0.997833 0
  outer loop
   vertex 0.499997 0.0523102 -1
   vertex 0.514518 0.0513527 -1
   vertex 0.514518 0.0513527 3
  endloop
 endfacet
 facet normal -0.0616525 -0.998098 0
  outer loop
   vertex 0.476777 0.0537445 -1
   vertex 0.499997 0.0523102 -1
   vertex 0.499997 0.0523102 3
  endloop
 endfacet
 facet normal -0.0616525 -0.998098 0
  outer loop
   vertex 0.476777 0.0537445 -1
   vertex 0.499997 0.0523102 3
   vertex 0.476777 0.0537445 3
  endloop
 endfacet
 facet normal -0.0572731 -0.998359 0
  outer loop
   vertex 0.46226 0.0545773 -1
   vertex 0.476777 0.0537445 3
   vertex 0.46226 0.0545773 3
  endloop
 endfacet
 facet normal -0.0572731 -0.998359 0
  outer loop
   vertex 0.46226 0.0545773 -1
   vertex 0.476777 0.0537445 -1
   vertex 0.476777 0.0537445 3
  endloop
 endfacet
 facet normal -0.0536999 -0.998557 0
  outer loop
   vertex 0.447739 0.0553582 -1
   vertex 0.46226 0.0545773 3
   vertex 0.447739 0.0553582 3
  endloop
 endfacet
 facet normal -0.0536999 -0.998557 0
  outer loop
   vertex 0.447739 0.0553582 -1
   vertex 0.46226 0.0545773 -1
   vertex 0.46226 0.0545773 3
  endloop
 endfacet
 facet normal -0.0488595 -0.998806 0
  outer loop
   vertex 0.424772 0.0564817 -1
   vertex 0.447739 0.0553582 -1
   vertex 0.447739 0.0553582 3
  endloop
 endfacet
 facet normal -0.0488595 -0.998806 0
  outer loop
   vertex 0.424772 0.0564817 -1
   vertex 0.447739 0.0553582 3
   vertex 0.424772 0.0564817 3
  endloop
 endfacet
 facet normal -0.0436661 -0.999046 0
  outer loop
   vertex 0.410413 0.0571093 -1
   vertex 0.424772 0.0564817 3
   vertex 0.410413 0.0571093 3
  endloop
 endfacet
 facet normal -0.0436661 -0.999046 0
  outer loop
   vertex 0.410413 0.0571093 -1
   vertex 0.424772 0.0564817 -1
   vertex 0.424772 0.0564817 3
  endloop
 endfacet
 facet normal -0.0394512 -0.999221 0
  outer loop
   vertex 0.396052 0.0576763 -1
   vertex 0.410413 0.0571093 3
   vertex 0.396052 0.0576763 3
  endloop
 endfacet
 facet normal -0.0394512 -0.999221 0
  outer loop
   vertex 0.396052 0.0576763 -1
   vertex 0.410413 0.0571093 -1
   vertex 0.410413 0.0571093 3
  endloop
 endfacet
 facet normal -0.0336731 -0.999433 0
  outer loop
   vertex 0.373575 0.0584336 -1
   vertex 0.396052 0.0576763 -1
   vertex 0.396052 0.0576763 3
  endloop
 endfacet
 facet normal -0.0336731 -0.999433 0
  outer loop
   vertex 0.373575 0.0584336 -1
   vertex 0.396052 0.0576763 3
   vertex 0.373575 0.0584336 3
  endloop
 endfacet
 facet normal -0.0276039 -0.999619 0
  outer loop
   vertex 0.359528 0.0588215 -1
   vertex 0.373575 0.0584336 3
   vertex 0.359528 0.0588215 3
  endloop
 endfacet
 facet normal -0.0276039 -0.999619 0
  outer loop
   vertex 0.359528 0.0588215 -1
   vertex 0.373575 0.0584336 -1
   vertex 0.373575 0.0584336 3
  endloop
 endfacet
 facet normal -0.0226326 -0.999744 0
  outer loop
   vertex 0.345481 0.0591395 -1
   vertex 0.359528 0.0588215 3
   vertex 0.345481 0.0591395 3
  endloop
 endfacet
 facet normal -0.0226326 -0.999744 0
  outer loop
   vertex 0.345481 0.0591395 -1
   vertex 0.359528 0.0588215 -1
   vertex 0.359528 0.0588215 3
  endloop
 endfacet
 facet normal -0.0158599 -0.999874 0
  outer loop
   vertex 0.323775 0.0594838 -1
   vertex 0.345481 0.0591395 -1
   vertex 0.345481 0.0591395 3
  endloop
 endfacet
 facet normal -0.0158599 -0.999874 0
  outer loop
   vertex 0.323775 0.0594838 -1
   vertex 0.345481 0.0591395 3
   vertex 0.323775 0.0594838 3
  endloop
 endfacet
 facet normal -0.00871746 -0.999962 0
  outer loop
   vertex 0.310205 0.0596021 -1
   vertex 0.323775 0.0594838 3
   vertex 0.310205 0.0596021 3
  endloop
 endfacet
 facet normal -0.00871746 -0.999962 0
  outer loop
   vertex 0.310205 0.0596021 -1
   vertex 0.323775 0.0594838 -1
   vertex 0.323775 0.0594838 3
  endloop
 endfacet
 facet normal -0.00285132 -0.999996 0
  outer loop
   vertex 0.296633 0.0596408 -1
   vertex 0.310205 0.0596021 3
   vertex 0.296633 0.0596408 3
  endloop
 endfacet
 facet normal -0.00285132 -0.999996 0
  outer loop
   vertex 0.296633 0.0596408 -1
   vertex 0.310205 0.0596021 -1
   vertex 0.310205 0.0596021 3
  endloop
 endfacet
 facet normal 0.00507439 -0.999987 0
  outer loop
   vertex 0.275902 0.0595356 -1
   vertex 0.296633 0.0596408 -1
   vertex 0.296633 0.0596408 3
  endloop
 endfacet
 facet normal 0.00507439 -0.999987 0
  outer loop
   vertex 0.275902 0.0595356 -1
   vertex 0.296633 0.0596408 3
   vertex 0.275902 0.0595356 3
  endloop
 endfacet
 facet normal 0.0134607 -0.999909 0
  outer loop
   vertex 0.262947 0.0593612 -1
   vertex 0.275902 0.0595356 3
   vertex 0.262947 0.0593612 3
  endloop
 endfacet
 facet normal 0.0134607 -0.999909 0
  outer loop
   vertex 0.262947 0.0593612 -1
   vertex 0.275902 0.0595356 -1
   vertex 0.275902 0.0595356 3
  endloop
 endfacet
 facet normal 0.0203849 -0.999792 0
  outer loop
   vertex 0.249994 0.0590971 -1
   vertex 0.262947 0.0593612 3
   vertex 0.249994 0.0590971 3
  endloop
 endfacet
 facet normal 0.0203849 -0.999792 0
  outer loop
   vertex 0.249994 0.0590971 -1
   vertex 0.262947 0.0593612 -1
   vertex 0.262947 0.0593612 3
  endloop
 endfacet
 facet normal 0.0296892 -0.999559 0
  outer loop
   vertex 0.230487 0.0585177 -1
   vertex 0.249994 0.0590971 -1
   vertex 0.249994 0.0590971 3
  endloop
 endfacet
 facet normal 0.0296892 -0.999559 0
  outer loop
   vertex 0.230487 0.0585177 -1
   vertex 0.249994 0.0590971 3
   vertex 0.230487 0.0585177 3
  endloop
 endfacet
 facet normal 0.0395095 -0.999219 0
  outer loop
   vertex 0.218297 0.0580357 -1
   vertex 0.230487 0.0585177 3
   vertex 0.218297 0.0580357 3
  endloop
 endfacet
 facet normal 0.0395095 -0.999219 0
  outer loop
   vertex 0.218297 0.0580357 -1
   vertex 0.230487 0.0585177 -1
   vertex 0.230487 0.0585177 3
  endloop
 endfacet
 facet normal 0.0476647 -0.998863 0
  outer loop
   vertex 0.206111 0.0574542 -1
   vertex 0.218297 0.0580357 3
   vertex 0.206111 0.0574542 3
  endloop
 endfacet
 facet normal 0.0476647 -0.998863 0
  outer loop
   vertex 0.206111 0.0574542 -1
   vertex 0.218297 0.0580357 -1
   vertex 0.218297 0.0580357 3
  endloop
 endfacet
 facet normal 0.0585965 -0.998282 0
  outer loop
   vertex 0.188025 0.0563926 -1
   vertex 0.206111 0.0574542 -1
   vertex 0.206111 0.0574542 3
  endloop
 endfacet
 facet normal 0.0585965 -0.998282 0
  outer loop
   vertex 0.188025 0.0563926 -1
   vertex 0.206111 0.0574542 3
   vertex 0.188025 0.0563926 3
  endloop
 endfacet
 facet normal 0.0701764 -0.997535 0
  outer loop
   vertex 0.17673 0.055598 -1
   vertex 0.188025 0.0563926 3
   vertex 0.17673 0.055598 3
  endloop
 endfacet
 facet normal 0.0701764 -0.997535 0
  outer loop
   vertex 0.17673 0.055598 -1
   vertex 0.188025 0.0563926 -1
   vertex 0.188025 0.0563926 3
  endloop
 endfacet
 facet normal 0.0798521 -0.996807 0
  outer loop
   vertex 0.165444 0.0546939 -1
   vertex 0.17673 0.055598 3
   vertex 0.165444 0.0546939 3
  endloop
 endfacet
 facet normal 0.0798521 -0.996807 0
  outer loop
   vertex 0.165444 0.0546939 -1
   vertex 0.17673 0.055598 -1
   vertex 0.17673 0.055598 3
  endloop
 endfacet
 facet normal 0.0927415 -0.99569 0
  outer loop
   vertex 0.148965 0.053159 -1
   vertex 0.165444 0.0546939 -1
   vertex 0.165444 0.0546939 3
  endloop
 endfacet
 facet normal 0.0927415 -0.99569 0
  outer loop
   vertex 0.148965 0.053159 -1
   vertex 0.165444 0.0546939 3
   vertex 0.148965 0.053159 3
  endloop
 endfacet
 facet normal 0.106607 -0.994301 0
  outer loop
   vertex 0.138685 0.0520568 -1
   vertex 0.148965 0.053159 3
   vertex 0.138685 0.0520568 3
  endloop
 endfacet
 facet normal 0.106607 -0.994301 0
  outer loop
   vertex 0.138685 0.0520568 -1
   vertex 0.148965 0.053159 -1
   vertex 0.148965 0.053159 3
  endloop
 endfacet
 facet normal 0.118308 -0.992977 0
  outer loop
   vertex 0.128421 0.0508339 -1
   vertex 0.138685 0.0520568 3
   vertex 0.128421 0.0508339 3
  endloop
 endfacet
 facet normal 0.118308 -0.992977 0
  outer loop
   vertex 0.128421 0.0508339 -1
   vertex 0.138685 0.0520568 -1
   vertex 0.138685 0.0520568 3
  endloop
 endfacet
 facet normal 0.133992 -0.990982 0
  outer loop
   vertex 0.113761 0.0488517 -1
   vertex 0.128421 0.0508339 -1
   vertex 0.128421 0.0508339 3
  endloop
 endfacet
 facet normal 0.133992 -0.990982 0
  outer loop
   vertex 0.113761 0.0488517 -1
   vertex 0.128421 0.0508339 3
   vertex 0.113761 0.0488517 3
  endloop
 endfacet
 facet normal 0.150782 -0.988567 0
  outer loop
   vertex 0.104617 0.047457 -1
   vertex 0.113761 0.0488517 3
   vertex 0.104617 0.047457 3
  endloop
 endfacet
 facet normal 0.150782 -0.988567 0
  outer loop
   vertex 0.104617 0.047457 -1
   vertex 0.113761 0.0488517 -1
   vertex 0.113761 0.0488517 3
  endloop
 endfacet
 facet normal 0.165207 -0.986259 0
  outer loop
   vertex 0.0954933 0.0459287 -1
   vertex 0.104617 0.047457 3
   vertex 0.0954933 0.0459287 3
  endloop
 endfacet
 facet normal 0.165207 -0.986259 0
  outer loop
   vertex 0.0954933 0.0459287 -1
   vertex 0.104617 0.047457 -1
   vertex 0.104617 0.047457 3
  endloop
 endfacet
 facet normal 0.184572 -0.982819 0
  outer loop
   vertex 0.0827791 0.043541 -1
   vertex 0.0954933 0.0459287 -1
   vertex 0.0954933 0.0459287 3
  endloop
 endfacet
 facet normal 0.184572 -0.982819 0
  outer loop
   vertex 0.0827791 0.043541 -1
   vertex 0.0954933 0.0459287 3
   vertex 0.0827791 0.043541 3
  endloop
 endfacet
 facet normal 0.205861 -0.978581 0
  outer loop
   vertex 0.0748677 0.0418767 -1
   vertex 0.0827791 0.043541 3
   vertex 0.0748677 0.0418767 3
  endloop
 endfacet
 facet normal 0.205861 -0.978581 0
  outer loop
   vertex 0.0748677 0.0418767 -1
   vertex 0.0827791 0.043541 -1
   vertex 0.0827791 0.043541 3
  endloop
 endfacet
 facet normal 0.224492 -0.974476 0
  outer loop
   vertex 0.0669896 0.0400618 -1
   vertex 0.0748677 0.0418767 3
   vertex 0.0669896 0.0400618 3
  endloop
 endfacet
 facet normal 0.224492 -0.974476 0
  outer loop
   vertex 0.0669896 0.0400618 -1
   vertex 0.0748677 0.0418767 -1
   vertex 0.0748677 0.0418767 3
  endloop
 endfacet
 facet normal 0.249692 -0.968325 0
  outer loop
   vertex 0.0563555 0.0373197 -1
   vertex 0.0669896 0.0400618 -1
   vertex 0.0669896 0.0400618 3
  endloop
 endfacet
 facet normal 0.249692 -0.968325 0
  outer loop
   vertex 0.0563555 0.0373197 -1
   vertex 0.0669896 0.0400618 3
   vertex 0.0563555 0.0373197 3
  endloop
 endfacet
 facet normal 0.277837 -0.960628 0
  outer loop
   vertex 0.0497627 0.0354129 -1
   vertex 0.0563555 0.0373197 3
   vertex 0.0497627 0.0354129 3
  endloop
 endfacet
 facet normal 0.277837 -0.960628 0
  outer loop
   vertex 0.0497627 0.0354129 -1
   vertex 0.0563555 0.0373197 -1
   vertex 0.0563555 0.0373197 3
  endloop
 endfacet
 facet normal 0.303069 -0.952969 0
  outer loop
   vertex 0.0432211 0.0333325 -1
   vertex 0.0497627 0.0354129 3
   vertex 0.0432211 0.0333325 3
  endloop
 endfacet
 facet normal 0.303069 -0.952969 0
  outer loop
   vertex 0.0432211 0.0333325 -1
   vertex 0.0497627 0.0354129 -1
   vertex 0.0497627 0.0354129 3
  endloop
 endfacet
 facet normal 0.337446 -0.941345 0
  outer loop
   vertex 0.0347722 0.0303038 -1
   vertex 0.0432211 0.0333325 -1
   vertex 0.0432211 0.0333325 3
  endloop
 endfacet
 facet normal 0.337446 -0.941345 0
  outer loop
   vertex 0.0347722 0.0303038 -1
   vertex 0.0432211 0.0333325 3
   vertex 0.0347722 0.0303038 3
  endloop
 endfacet
 facet normal 0.377339 -0.926075 0
  outer loop
   vertex 0.0295766 0.0281868 -1
   vertex 0.0347722 0.0303038 3
   vertex 0.0295766 0.0281868 3
  endloop
 endfacet
 facet normal 0.377339 -0.926075 0
  outer loop
   vertex 0.0295766 0.0281868 -1
   vertex 0.0347722 0.0303038 -1
   vertex 0.0347722 0.0303038 3
  endloop
 endfacet
 facet normal 0.414401 -0.910095 0
  outer loop
   vertex 0.0244705 0.0258618 -1
   vertex 0.0295766 0.0281868 3
   vertex 0.0244705 0.0258618 3
  endloop
 endfacet
 facet normal 0.414401 -0.910095 0
  outer loop
   vertex 0.0244705 0.0258618 -1
   vertex 0.0295766 0.0281868 -1
   vertex 0.0295766 0.0281868 3
  endloop
 endfacet
 facet normal 0.464878 -0.885375 0
  outer loop
   vertex 0.0182583 0.0226 -1
   vertex 0.0244705 0.0258618 -1
   vertex 0.0244705 0.0258618 3
  endloop
 endfacet
 facet normal 0.464878 -0.885375 0
  outer loop
   vertex 0.0182583 0.0226 -1
   vertex 0.0244705 0.0258618 3
   vertex 0.0182583 0.0226 3
  endloop
 endfacet
 facet normal 0.523646 -0.851936 0
  outer loop
   vertex 0.0145201 0.0203023 -1
   vertex 0.0182583 0.0226 3
   vertex 0.0145201 0.0203023 3
  endloop
 endfacet
 facet normal 0.523646 -0.851936 0
  outer loop
   vertex 0.0145201 0.0203023 -1
   vertex 0.0182583 0.0226 -1
   vertex 0.0182583 0.0226 3
  endloop
 endfacet
 facet normal 0.578174 -0.815914 0
  outer loop
   vertex 0.0109313 0.0177592 -1
   vertex 0.0145201 0.0203023 3
   vertex 0.0109313 0.0177592 3
  endloop
 endfacet
 facet normal 0.578174 -0.815914 0
  outer loop
   vertex 0.0109313 0.0177592 -1
   vertex 0.0145201 0.0203023 -1
   vertex 0.0145201 0.0203023 3
  endloop
 endfacet
 facet normal 0.651557 -0.758599 0
  outer loop
   vertex 0.00688028 0.0142798 -1
   vertex 0.0109313 0.0177592 -1
   vertex 0.0109313 0.0177592 3
  endloop
 endfacet
 facet normal 0.651557 -0.758599 0
  outer loop
   vertex 0.00688028 0.0142798 -1
   vertex 0.0109313 0.0177592 3
   vertex 0.00688028 0.0142798 3
  endloop
 endfacet
 facet normal 0.739383 -0.673285 0
  outer loop
   vertex 0.00464038 0.01182 -1
   vertex 0.00688028 0.0142798 3
   vertex 0.00464038 0.01182 3
  endloop
 endfacet
 facet normal 0.739383 -0.673285 0
  outer loop
   vertex 0.00464038 0.01182 -1
   vertex 0.00688028 0.0142798 -1
   vertex 0.00688028 0.0142798 3
  endloop
 endfacet
 facet normal 0.818772 -0.574118 0
  outer loop
   vertex 0.00272659 0.00909067 -1
   vertex 0.00464038 0.01182 3
   vertex 0.00272659 0.00909067 3
  endloop
 endfacet
 facet normal 0.818772 -0.574118 0
  outer loop
   vertex 0.00272659 0.00909067 -1
   vertex 0.00464038 0.01182 -1
   vertex 0.00464038 0.01182 3
  endloop
 endfacet
 facet normal 0.905563 -0.424213 0
  outer loop
   vertex 0.000917204 0.00522819 -1
   vertex 0.00272659 0.00909067 -1
   vertex 0.00272659 0.00909067 3
  endloop
 endfacet
 facet normal 0.905563 -0.424213 0
  outer loop
   vertex 0.000917204 0.00522819 -1
   vertex 0.00272659 0.00909067 3
   vertex 0.000917204 0.00522819 3
  endloop
 endfacet
 facet normal 0.967387 -0.253303 0
  outer loop
   vertex 0.000242071 0.0026498 -1
   vertex 0.000917204 0.00522819 3
   vertex 0.000242071 0.0026498 3
  endloop
 endfacet
 facet normal 0.967387 -0.253303 0
  outer loop
   vertex 0.000242071 0.0026498 -1
   vertex 0.000917204 0.00522819 -1
   vertex 0.000917204 0.00522819 3
  endloop
 endfacet
 facet normal 0.99581 -0.0914434 0
  outer loop
   vertex 1.01125e-08 1.37778e-05 -1
   vertex 0.000242071 0.0026498 3
   vertex 1.01125e-08 1.37778e-05 3
  endloop
 endfacet
 facet normal 0.99581 -0.0914434 0
  outer loop
   vertex 1.01125e-08 1.37778e-05 -1
   vertex 0.000242071 0.0026498 -1
   vertex 0.000242071 0.0026498 3
  endloop
 endfacet
 facet normal 0.994219 0.107369 0
  outer loop
   vertex 0.000342223 -0.00315506 -1
   vertex 1.01125e-08 1.37778e-05 -1
   vertex 1.01125e-08 1.37778e-05 3
  endloop
 endfacet
 facet normal 0.994219 0.107369 -0
  outer loop
   vertex 0.000342223 -0.00315506 -1
   vertex 1.01125e-08 1.37778e-05 3
   vertex 0.000342223 -0.00315506 3
  endloop
 endfacet
 facet normal 0.95532 0.295574 -0
  outer loop
   vertex 0.00129151 -0.00622323 -1
   vertex 0.000342223 -0.00315506 3
   vertex 0.00129151 -0.00622323 3
  endloop
 endfacet
 facet normal 0.95532 0.295574 0
  outer loop
   vertex 0.00129151 -0.00622323 -1
   vertex 0.000342223 -0.00315506 -1
   vertex 0.000342223 -0.00315506 3
  endloop
 endfacet
 facet normal 0.894139 0.447789 -0
  outer loop
   vertex 0.00273183 -0.00909924 -1
   vertex 0.00129151 -0.00622323 3
   vertex 0.00273183 -0.00909924 3
  endloop
 endfacet
 facet normal 0.894139 0.447789 0
  outer loop
   vertex 0.00273183 -0.00909924 -1
   vertex 0.00129151 -0.00622323 -1
   vertex 0.00129151 -0.00622323 3
  endloop
 endfacet
 facet normal 0.795408 0.606074 0
  outer loop
   vertex 0.00595606 -0.0133307 -1
   vertex 0.00273183 -0.00909924 -1
   vertex 0.00273183 -0.00909924 3
  endloop
 endfacet
 facet normal 0.795408 0.606074 -0
  outer loop
   vertex 0.00595606 -0.0133307 -1
   vertex 0.00273183 -0.00909924 3
   vertex 0.00595606 -0.0133307 3
  endloop
 endfacet
 facet normal 0.695551 0.718477 -0
  outer loop
   vertex 0.00834499 -0.0156434 -1
   vertex 0.00595606 -0.0133307 3
   vertex 0.00834499 -0.0156434 3
  endloop
 endfacet
 facet normal 0.695551 0.718477 0
  outer loop
   vertex 0.00834499 -0.0156434 -1
   vertex 0.00595606 -0.0133307 -1
   vertex 0.00595606 -0.0133307 3
  endloop
 endfacet
 facet normal 0.63341 0.773817 -0
  outer loop
   vertex 0.010921 -0.017752 -1
   vertex 0.00834499 -0.0156434 3
   vertex 0.010921 -0.017752 3
  endloop
 endfacet
 facet normal 0.63341 0.773817 0
  outer loop
   vertex 0.010921 -0.017752 -1
   vertex 0.00834499 -0.0156434 -1
   vertex 0.00834499 -0.0156434 3
  endloop
 endfacet
 facet normal 0.561783 0.827285 0
  outer loop
   vertex 0.0167484 -0.0217092 -1
   vertex 0.010921 -0.017752 -1
   vertex 0.010921 -0.017752 3
  endloop
 endfacet
 facet normal 0.561783 0.827285 -0
  outer loop
   vertex 0.0167484 -0.0217092 -1
   vertex 0.010921 -0.017752 3
   vertex 0.0167484 -0.0217092 3
  endloop
 endfacet
 facet normal 0.494393 0.869239 -0
  outer loop
   vertex 0.0205672 -0.0238812 -1
   vertex 0.0167484 -0.0217092 3
   vertex 0.0205672 -0.0238812 3
  endloop
 endfacet
 facet normal 0.494393 0.869239 0
  outer loop
   vertex 0.0205672 -0.0238812 -1
   vertex 0.0167484 -0.0217092 -1
   vertex 0.0167484 -0.0217092 3
  endloop
 endfacet
 facet normal 0.452469 0.89178 -0
  outer loop
   vertex 0.0244842 -0.0258686 -1
   vertex 0.0205672 -0.0238812 3
   vertex 0.0244842 -0.0258686 3
  endloop
 endfacet
 facet normal 0.452469 0.89178 0
  outer loop
   vertex 0.0244842 -0.0258686 -1
   vertex 0.0205672 -0.0238812 -1
   vertex 0.0205672 -0.0238812 3
  endloop
 endfacet
 facet normal 0.403001 0.9152 0
  outer loop
   vertex 0.0326926 -0.0294831 -1
   vertex 0.0244842 -0.0258686 -1
   vertex 0.0244842 -0.0258686 3
  endloop
 endfacet
 facet normal 0.403001 0.9152 -0
  outer loop
   vertex 0.0326926 -0.0294831 -1
   vertex 0.0244842 -0.0258686 3
   vertex 0.0326926 -0.0294831 3
  endloop
 endfacet
 facet normal 0.357484 0.933919 -0
  outer loop
   vertex 0.0379348 -0.0314897 -1
   vertex 0.0326926 -0.0294831 3
   vertex 0.0379348 -0.0314897 3
  endloop
 endfacet
 facet normal 0.357484 0.933919 0
  outer loop
   vertex 0.0379348 -0.0314897 -1
   vertex 0.0326926 -0.0294831 -1
   vertex 0.0326926 -0.0294831 3
  endloop
 endfacet
 facet normal 0.328988 0.944334 -0
  outer loop
   vertex 0.0432379 -0.0333372 -1
   vertex 0.0379348 -0.0314897 3
   vertex 0.0432379 -0.0333372 3
  endloop
 endfacet
 facet normal 0.328988 0.944334 0
  outer loop
   vertex 0.0432379 -0.0333372 -1
   vertex 0.0379348 -0.0314897 -1
   vertex 0.0379348 -0.0314897 3
  endloop
 endfacet
 facet normal 0.295377 0.955381 0
  outer loop
   vertex 0.0537204 -0.0365781 -1
   vertex 0.0432379 -0.0333372 -1
   vertex 0.0432379 -0.0333372 3
  endloop
 endfacet
 facet normal 0.295377 0.955381 -0
  outer loop
   vertex 0.0537204 -0.0365781 -1
   vertex 0.0432379 -0.0333372 3
   vertex 0.0537204 -0.0365781 3
  endloop
 endfacet
 facet normal 0.264078 0.964501 -0
  outer loop
   vertex 0.0603377 -0.0383899 -1
   vertex 0.0537204 -0.0365781 3
   vertex 0.0603377 -0.0383899 3
  endloop
 endfacet
 facet normal 0.264078 0.964501 0
  outer loop
   vertex 0.0603377 -0.0383899 -1
   vertex 0.0537204 -0.0365781 -1
   vertex 0.0537204 -0.0365781 3
  endloop
 endfacet
 facet normal 0.24364 0.969866 -0
  outer loop
   vertex 0.0669931 -0.0400618 -1
   vertex 0.0603377 -0.0383899 3
   vertex 0.0669931 -0.0400618 3
  endloop
 endfacet
 facet normal 0.24364 0.969866 0
  outer loop
   vertex 0.0669931 -0.0400618 -1
   vertex 0.0603377 -0.0383899 -1
   vertex 0.0603377 -0.0383899 3
  endloop
 endfacet
 facet normal 0.218885 0.975751 0
  outer loop
   vertex 0.0796092 -0.0428919 -1
   vertex 0.0669931 -0.0400618 -1
   vertex 0.0669931 -0.0400618 3
  endloop
 endfacet
 facet normal 0.218885 0.975751 -0
  outer loop
   vertex 0.0796092 -0.0428919 -1
   vertex 0.0669931 -0.0400618 3
   vertex 0.0796092 -0.0428919 3
  endloop
 endfacet
 facet normal 0.195629 0.980678 -0
  outer loop
   vertex 0.0875367 -0.0444733 -1
   vertex 0.0796092 -0.0428919 3
   vertex 0.0875367 -0.0444733 3
  endloop
 endfacet
 facet normal 0.195629 0.980678 0
  outer loop
   vertex 0.0875367 -0.0444733 -1
   vertex 0.0796092 -0.0428919 -1
   vertex 0.0796092 -0.0428919 3
  endloop
 endfacet
 facet normal 0.180007 0.983665 -0
  outer loop
   vertex 0.0954893 -0.0459286 -1
   vertex 0.0875367 -0.0444733 3
   vertex 0.0954893 -0.0459286 3
  endloop
 endfacet
 facet normal 0.180007 0.983665 0
  outer loop
   vertex 0.0954893 -0.0459286 -1
   vertex 0.0875367 -0.0444733 -1
   vertex 0.0875367 -0.0444733 3
  endloop
 endfacet
 facet normal 0.160828 0.986982 0
  outer loop
   vertex 0.1101 -0.0483094 -1
   vertex 0.0954893 -0.0459286 -1
   vertex 0.0954893 -0.0459286 3
  endloop
 endfacet
 facet normal 0.160828 0.986982 -0
  outer loop
   vertex 0.1101 -0.0483094 -1
   vertex 0.0954893 -0.0459286 3
   vertex 0.1101 -0.0483094 3
  endloop
 endfacet
 facet normal 0.142688 0.989768 -0
  outer loop
   vertex 0.119257 -0.0496295 -1
   vertex 0.1101 -0.0483094 3
   vertex 0.119257 -0.0496295 3
  endloop
 endfacet
 facet normal 0.142688 0.989768 0
  outer loop
   vertex 0.119257 -0.0496295 -1
   vertex 0.1101 -0.0483094 -1
   vertex 0.1101 -0.0483094 3
  endloop
 endfacet
 facet normal 0.130238 0.991483 -0
  outer loop
   vertex 0.128429 -0.0508343 -1
   vertex 0.119257 -0.0496295 3
   vertex 0.128429 -0.0508343 3
  endloop
 endfacet
 facet normal 0.130238 0.991483 0
  outer loop
   vertex 0.128429 -0.0508343 -1
   vertex 0.119257 -0.0496295 -1
   vertex 0.119257 -0.0496295 3
  endloop
 endfacet
 facet normal 0.114743 0.993395 0
  outer loop
   vertex 0.144855 -0.0527316 -1
   vertex 0.128429 -0.0508343 -1
   vertex 0.128429 -0.0508343 3
  endloop
 endfacet
 facet normal 0.114743 0.993395 -0
  outer loop
   vertex 0.144855 -0.0527316 -1
   vertex 0.128429 -0.0508343 3
   vertex 0.144855 -0.0527316 3
  endloop
 endfacet
 facet normal 0.10004 0.994983 -0
  outer loop
   vertex 0.155137 -0.0537654 -1
   vertex 0.144855 -0.0527316 3
   vertex 0.155137 -0.0537654 3
  endloop
 endfacet
 facet normal 0.10004 0.994983 0
  outer loop
   vertex 0.155137 -0.0537654 -1
   vertex 0.144855 -0.0527316 -1
   vertex 0.144855 -0.0527316 3
  endloop
 endfacet
 facet normal 0.0897642 0.995963 -0
  outer loop
   vertex 0.165429 -0.054693 -1
   vertex 0.155137 -0.0537654 3
   vertex 0.165429 -0.054693 3
  endloop
 endfacet
 facet normal 0.0897642 0.995963 0
  outer loop
   vertex 0.165429 -0.054693 -1
   vertex 0.155137 -0.0537654 -1
   vertex 0.155137 -0.0537654 3
  endloop
 endfacet
 facet normal 0.0769627 0.997034 0
  outer loop
   vertex 0.18351 -0.0560887 -1
   vertex 0.165429 -0.054693 -1
   vertex 0.165429 -0.054693 3
  endloop
 endfacet
 facet normal 0.0769627 0.997034 -0
  outer loop
   vertex 0.18351 -0.0560887 -1
   vertex 0.165429 -0.054693 3
   vertex 0.18351 -0.0560887 3
  endloop
 endfacet
 facet normal 0.0646742 0.997906 -0
  outer loop
   vertex 0.19482 -0.0568217 -1
   vertex 0.18351 -0.0560887 3
   vertex 0.19482 -0.0568217 3
  endloop
 endfacet
 facet normal 0.0646742 0.997906 0
  outer loop
   vertex 0.19482 -0.0568217 -1
   vertex 0.18351 -0.0560887 -1
   vertex 0.18351 -0.0560887 3
  endloop
 endfacet
 facet normal 0.0560007 0.998431 -0
  outer loop
   vertex 0.206136 -0.0574564 -1
   vertex 0.19482 -0.0568217 3
   vertex 0.206136 -0.0574564 3
  endloop
 endfacet
 facet normal 0.0560007 0.998431 0
  outer loop
   vertex 0.206136 -0.0574564 -1
   vertex 0.19482 -0.0568217 -1
   vertex 0.19482 -0.0568217 3
  endloop
 endfacet
 facet normal 0.0451465 0.99898 0
  outer loop
   vertex 0.225606 -0.0583363 -1
   vertex 0.206136 -0.0574564 -1
   vertex 0.206136 -0.0574564 3
  endloop
 endfacet
 facet normal 0.0451465 0.99898 -0
  outer loop
   vertex 0.225606 -0.0583363 -1
   vertex 0.206136 -0.0574564 3
   vertex 0.225606 -0.0583363 3
  endloop
 endfacet
 facet normal 0.0348444 0.999393 -0
  outer loop
   vertex 0.23779 -0.0587611 -1
   vertex 0.225606 -0.0583363 3
   vertex 0.23779 -0.0587611 3
  endloop
 endfacet
 facet normal 0.0348444 0.999393 0
  outer loop
   vertex 0.23779 -0.0587611 -1
   vertex 0.225606 -0.0583363 -1
   vertex 0.225606 -0.0583363 3
  endloop
 endfacet
 facet normal 0.0274979 0.999622 -0
  outer loop
   vertex 0.249979 -0.0590964 -1
   vertex 0.23779 -0.0587611 3
   vertex 0.249979 -0.0590964 3
  endloop
 endfacet
 facet normal 0.0274979 0.999622 0
  outer loop
   vertex 0.249979 -0.0590964 -1
   vertex 0.23779 -0.0587611 -1
   vertex 0.23779 -0.0587611 3
  endloop
 endfacet
 facet normal 0.0183033 0.999832 0
  outer loop
   vertex 0.270704 -0.0594758 -1
   vertex 0.249979 -0.0590964 -1
   vertex 0.249979 -0.0590964 3
  endloop
 endfacet
 facet normal 0.0183033 0.999832 -0
  outer loop
   vertex 0.270704 -0.0594758 -1
   vertex 0.249979 -0.0590964 3
   vertex 0.270704 -0.0594758 3
  endloop
 endfacet
 facet normal 0.00951476 0.999955 -0
  outer loop
   vertex 0.283652 -0.059599 -1
   vertex 0.270704 -0.0594758 3
   vertex 0.283652 -0.059599 3
  endloop
 endfacet
 facet normal 0.00951476 0.999955 0
  outer loop
   vertex 0.283652 -0.059599 -1
   vertex 0.270704 -0.0594758 -1
   vertex 0.270704 -0.0594758 3
  endloop
 endfacet
 facet normal 0.00322886 0.999995 -0
  outer loop
   vertex 0.296597 -0.0596408 -1
   vertex 0.283652 -0.059599 3
   vertex 0.296597 -0.0596408 3
  endloop
 endfacet
 facet normal 0.00322886 0.999995 0
  outer loop
   vertex 0.296597 -0.0596408 -1
   vertex 0.283652 -0.059599 -1
   vertex 0.283652 -0.059599 3
  endloop
 endfacet
 facet normal -0.00461394 0.999989 0
  outer loop
   vertex 0.318357 -0.0595404 -1
   vertex 0.296597 -0.0596408 -1
   vertex 0.296597 -0.0596408 3
  endloop
 endfacet
 facet normal -0.00461394 0.999989 0
  outer loop
   vertex 0.318357 -0.0595404 -1
   vertex 0.296597 -0.0596408 3
   vertex 0.318357 -0.0595404 3
  endloop
 endfacet
 facet normal -0.0121061 0.999927 0
  outer loop
   vertex 0.331944 -0.0593759 -1
   vertex 0.318357 -0.0595404 3
   vertex 0.331944 -0.0593759 3
  endloop
 endfacet
 facet normal -0.0121061 0.999927 0
  outer loop
   vertex 0.331944 -0.0593759 -1
   vertex 0.318357 -0.0595404 -1
   vertex 0.318357 -0.0595404 3
  endloop
 endfacet
 facet normal -0.0174764 0.999847 0
  outer loop
   vertex 0.345526 -0.0591385 -1
   vertex 0.331944 -0.0593759 3
   vertex 0.345526 -0.0591385 3
  endloop
 endfacet
 facet normal -0.0174764 0.999847 0
  outer loop
   vertex 0.345526 -0.0591385 -1
   vertex 0.331944 -0.0593759 -1
   vertex 0.331944 -0.0593759 3
  endloop
 endfacet
 facet normal -0.0241545 0.999708 0
  outer loop
   vertex 0.367979 -0.058596 -1
   vertex 0.345526 -0.0591385 -1
   vertex 0.345526 -0.0591385 3
  endloop
 endfacet
 facet normal -0.0241545 0.999708 0
  outer loop
   vertex 0.367979 -0.058596 -1
   vertex 0.345526 -0.0591385 3
   vertex 0.367979 -0.058596 3
  endloop
 endfacet
 facet normal -0.0304922 0.999535 0
  outer loop
   vertex 0.382022 -0.0581676 -1
   vertex 0.367979 -0.058596 3
   vertex 0.382022 -0.0581676 3
  endloop
 endfacet
 facet normal -0.0304922 0.999535 0
  outer loop
   vertex 0.382022 -0.0581676 -1
   vertex 0.367979 -0.058596 -1
   vertex 0.367979 -0.058596 3
  endloop
 endfacet
 facet normal -0.0350678 0.999385 0
  outer loop
   vertex 0.396069 -0.0576747 -1
   vertex 0.382022 -0.0581676 3
   vertex 0.396069 -0.0576747 3
  endloop
 endfacet
 facet normal -0.0350678 0.999385 0
  outer loop
   vertex 0.396069 -0.0576747 -1
   vertex 0.382022 -0.0581676 -1
   vertex 0.382022 -0.0581676 3
  endloop
 endfacet
 facet normal -0.0407118 0.999171 0
  outer loop
   vertex 0.419004 -0.0567402 -1
   vertex 0.396069 -0.0576747 -1
   vertex 0.396069 -0.0576747 3
  endloop
 endfacet
 facet normal -0.0407118 0.999171 0
  outer loop
   vertex 0.419004 -0.0567402 -1
   vertex 0.396069 -0.0576747 3
   vertex 0.419004 -0.0567402 3
  endloop
 endfacet
 facet normal -0.046088 0.998937 0
  outer loop
   vertex 0.433346 -0.0560785 -1
   vertex 0.419004 -0.0567402 3
   vertex 0.433346 -0.0560785 3
  endloop
 endfacet
 facet normal -0.046088 0.998937 0
  outer loop
   vertex 0.433346 -0.0560785 -1
   vertex 0.419004 -0.0567402 -1
   vertex 0.419004 -0.0567402 3
  endloop
 endfacet
 facet normal -0.0499725 0.998751 0
  outer loop
   vertex 0.447688 -0.0553609 -1
   vertex 0.433346 -0.0560785 3
   vertex 0.447688 -0.0553609 3
  endloop
 endfacet
 facet normal -0.0499725 0.998751 0
  outer loop
   vertex 0.447688 -0.0553609 -1
   vertex 0.433346 -0.0560785 -1
   vertex 0.433346 -0.0560785 3
  endloop
 endfacet
 facet normal -0.0547408 0.998501 0
  outer loop
   vertex 0.470941 -0.0540861 -1
   vertex 0.447688 -0.0553609 -1
   vertex 0.447688 -0.0553609 3
  endloop
 endfacet
 facet normal -0.0547408 0.998501 0
  outer loop
   vertex 0.470941 -0.0540861 -1
   vertex 0.447688 -0.0553609 3
   vertex 0.470941 -0.0540861 3
  endloop
 endfacet
 facet normal -0.0593095 0.99824 0
  outer loop
   vertex 0.485451 -0.053224 -1
   vertex 0.470941 -0.0540861 3
   vertex 0.485451 -0.053224 3
  endloop
 endfacet
 facet normal -0.0593095 0.99824 0
  outer loop
   vertex 0.485451 -0.053224 -1
   vertex 0.470941 -0.0540861 -1
   vertex 0.470941 -0.0540861 3
  endloop
 endfacet
 facet normal -0.0626287 0.998037 0
  outer loop
   vertex 0.499951 -0.0523141 -1
   vertex 0.485451 -0.053224 3
   vertex 0.499951 -0.0523141 3
  endloop
 endfacet
 facet normal -0.0626287 0.998037 0
  outer loop
   vertex 0.499951 -0.0523141 -1
   vertex 0.485451 -0.053224 -1
   vertex 0.485451 -0.053224 3
  endloop
 endfacet
 facet normal -0.0667338 0.997771 0
  outer loop
   vertex 0.523229 -0.0507572 -1
   vertex 0.499951 -0.0523141 -1
   vertex 0.499951 -0.0523141 3
  endloop
 endfacet
 facet normal -0.0667338 0.997771 0
  outer loop
   vertex 0.523229 -0.0507572 -1
   vertex 0.499951 -0.0523141 3
   vertex 0.523229 -0.0507572 3
  endloop
 endfacet
 facet normal -0.0705725 0.997507 0
  outer loop
   vertex 0.537755 -0.0497295 -1
   vertex 0.523229 -0.0507572 3
   vertex 0.537755 -0.0497295 3
  endloop
 endfacet
 facet normal -0.0705725 0.997507 0
  outer loop
   vertex 0.537755 -0.0497295 -1
   vertex 0.523229 -0.0507572 -1
   vertex 0.523229 -0.0507572 3
  endloop
 endfacet
 facet normal -0.073393 0.997303 0
  outer loop
   vertex 0.552273 -0.0486611 -1
   vertex 0.537755 -0.0497295 3
   vertex 0.552273 -0.0486611 3
  endloop
 endfacet
 facet normal -0.073393 0.997303 0
  outer loop
   vertex 0.552273 -0.0486611 -1
   vertex 0.537755 -0.0497295 -1
   vertex 0.537755 -0.0497295 3
  endloop
 endfacet
 facet normal -0.07686 0.997042 0
  outer loop
   vertex 0.575261 -0.046889 -1
   vertex 0.552273 -0.0486611 -1
   vertex 0.552273 -0.0486611 3
  endloop
 endfacet
 facet normal -0.07686 0.997042 0
  outer loop
   vertex 0.575261 -0.046889 -1
   vertex 0.552273 -0.0486611 3
   vertex 0.575261 -0.046889 3
  endloop
 endfacet
 facet normal -0.0801699 0.996781 0
  outer loop
   vertex 0.589629 -0.0457334 -1
   vertex 0.575261 -0.046889 3
   vertex 0.589629 -0.0457334 3
  endloop
 endfacet
 facet normal -0.0801699 0.996781 0
  outer loop
   vertex 0.589629 -0.0457334 -1
   vertex 0.575261 -0.046889 -1
   vertex 0.575261 -0.046889 3
  endloop
 endfacet
 facet normal -0.0825955 0.996583 0
  outer loop
   vertex 0.603997 -0.0445426 -1
   vertex 0.589629 -0.0457334 3
   vertex 0.603997 -0.0445426 3
  endloop
 endfacet
 facet normal -0.0825955 0.996583 0
  outer loop
   vertex 0.603997 -0.0445426 -1
   vertex 0.589629 -0.0457334 -1
   vertex 0.589629 -0.0457334 3
  endloop
 endfacet
 facet normal -0.0855725 0.996332 0
  outer loop
   vertex 0.626417 -0.042617 -1
   vertex 0.603997 -0.0445426 -1
   vertex 0.603997 -0.0445426 3
  endloop
 endfacet
 facet normal -0.0855725 0.996332 0
  outer loop
   vertex 0.626417 -0.042617 -1
   vertex 0.603997 -0.0445426 3
   vertex 0.626417 -0.042617 3
  endloop
 endfacet
 facet normal -0.0884277 0.996083 0
  outer loop
   vertex 0.64044 -0.0413721 -1
   vertex 0.626417 -0.042617 3
   vertex 0.64044 -0.0413721 3
  endloop
 endfacet
 facet normal -0.0884277 0.996083 0
  outer loop
   vertex 0.64044 -0.0413721 -1
   vertex 0.626417 -0.042617 -1
   vertex 0.626417 -0.042617 3
  endloop
 endfacet
 facet normal -0.0905638 0.995891 0
  outer loop
   vertex 0.654465 -0.0400967 -1
   vertex 0.64044 -0.0413721 3
   vertex 0.654465 -0.0400967 3
  endloop
 endfacet
 facet normal -0.0905638 0.995891 0
  outer loop
   vertex 0.654465 -0.0400967 -1
   vertex 0.64044 -0.0413721 -1
   vertex 0.64044 -0.0413721 3
  endloop
 endfacet
 facet normal -0.0931654 0.995651 0
  outer loop
   vertex 0.67623 -0.0380601 -1
   vertex 0.654465 -0.0400967 -1
   vertex 0.654465 -0.0400967 3
  endloop
 endfacet
 facet normal -0.0931654 0.995651 0
  outer loop
   vertex 0.67623 -0.0380601 -1
   vertex 0.654465 -0.0400967 3
   vertex 0.67623 -0.0380601 3
  endloop
 endfacet
 facet normal -0.095708 0.995409 0
  outer loop
   vertex 0.689813 -0.0367541 -1
   vertex 0.67623 -0.0380601 3
   vertex 0.689813 -0.0367541 3
  endloop
 endfacet
 facet normal -0.095708 0.995409 0
  outer loop
   vertex 0.689813 -0.0367541 -1
   vertex 0.67623 -0.0380601 -1
   vertex 0.67623 -0.0380601 3
  endloop
 endfacet
 facet normal -0.0976018 0.995226 0
  outer loop
   vertex 0.703387 -0.0354229 -1
   vertex 0.689813 -0.0367541 3
   vertex 0.703387 -0.0354229 3
  endloop
 endfacet
 facet normal -0.0976018 0.995226 0
  outer loop
   vertex 0.703387 -0.0354229 -1
   vertex 0.689813 -0.0367541 -1
   vertex 0.689813 -0.0367541 3
  endloop
 endfacet
 facet normal -0.0999697 0.99499 0
  outer loop
   vertex 0.724113 -0.0333405 -1
   vertex 0.703387 -0.0354229 -1
   vertex 0.703387 -0.0354229 3
  endloop
 endfacet
 facet normal -0.0999697 0.99499 0
  outer loop
   vertex 0.724113 -0.0333405 -1
   vertex 0.703387 -0.0354229 3
   vertex 0.724113 -0.0333405 3
  endloop
 endfacet
 facet normal -0.102217 0.994762 0
  outer loop
   vertex 0.73707 -0.0320091 -1
   vertex 0.724113 -0.0333405 3
   vertex 0.73707 -0.0320091 3
  endloop
 endfacet
 facet normal -0.102217 0.994762 0
  outer loop
   vertex 0.73707 -0.0320091 -1
   vertex 0.724113 -0.0333405 -1
   vertex 0.724113 -0.0333405 3
  endloop
 endfacet
 facet normal -0.103934 0.994584 0
  outer loop
   vertex 0.750027 -0.0306551 -1
   vertex 0.73707 -0.0320091 3
   vertex 0.750027 -0.0306551 3
  endloop
 endfacet
 facet normal -0.103934 0.994584 0
  outer loop
   vertex 0.750027 -0.0306551 -1
   vertex 0.73707 -0.0320091 -1
   vertex 0.73707 -0.0320091 3
  endloop
 endfacet
 facet normal -0.106071 0.994359 0
  outer loop
   vertex 0.769538 -0.0285738 -1
   vertex 0.750027 -0.0306551 -1
   vertex 0.750027 -0.0306551 3
  endloop
 endfacet
 facet normal -0.106071 0.994359 0
  outer loop
   vertex 0.769538 -0.0285738 -1
   vertex 0.750027 -0.0306551 3
   vertex 0.769538 -0.0285738 3
  endloop
 endfacet
 facet normal -0.108147 0.994135 0
  outer loop
   vertex 0.78174 -0.0272464 -1
   vertex 0.769538 -0.0285738 3
   vertex 0.78174 -0.0272464 3
  endloop
 endfacet
 facet normal -0.108147 0.994135 0
  outer loop
   vertex 0.78174 -0.0272464 -1
   vertex 0.769538 -0.0285738 -1
   vertex 0.769538 -0.0285738 3
  endloop
 endfacet
 facet normal -0.109749 0.993959 0
  outer loop
   vertex 0.793943 -0.025899 -1
   vertex 0.78174 -0.0272464 3
   vertex 0.793943 -0.025899 3
  endloop
 endfacet
 facet normal -0.109749 0.993959 0
  outer loop
   vertex 0.793943 -0.025899 -1
   vertex 0.78174 -0.0272464 -1
   vertex 0.78174 -0.0272464 3
  endloop
 endfacet
 facet normal -0.11171 0.993741 0
  outer loop
   vertex 0.811963 -0.0238733 -1
   vertex 0.793943 -0.025899 -1
   vertex 0.793943 -0.025899 3
  endloop
 endfacet
 facet normal -0.11171 0.993741 0
  outer loop
   vertex 0.811963 -0.0238733 -1
   vertex 0.793943 -0.025899 3
   vertex 0.811963 -0.0238733 3
  endloop
 endfacet
 facet normal -0.113621 0.993524 0
  outer loop
   vertex 0.823243 -0.0225833 -1
   vertex 0.811963 -0.0238733 3
   vertex 0.823243 -0.0225833 3
  endloop
 endfacet
 facet normal -0.113621 0.993524 0
  outer loop
   vertex 0.823243 -0.0225833 -1
   vertex 0.811963 -0.0238733 -1
   vertex 0.811963 -0.0238733 3
  endloop
 endfacet
 facet normal -0.115128 0.993351 0
  outer loop
   vertex 0.834527 -0.0212755 -1
   vertex 0.823243 -0.0225833 3
   vertex 0.834527 -0.0212755 3
  endloop
 endfacet
 facet normal -0.115128 0.993351 0
  outer loop
   vertex 0.834527 -0.0212755 -1
   vertex 0.823243 -0.0225833 -1
   vertex 0.823243 -0.0225833 3
  endloop
 endfacet
 facet normal -0.116932 0.99314 0
  outer loop
   vertex 0.851027 -0.0193328 -1
   vertex 0.834527 -0.0212755 -1
   vertex 0.834527 -0.0212755 3
  endloop
 endfacet
 facet normal -0.116932 0.99314 0
  outer loop
   vertex 0.851027 -0.0193328 -1
   vertex 0.834527 -0.0212755 3
   vertex 0.851027 -0.0193328 3
  endloop
 endfacet
 facet normal -0.118748 0.992924 0
  outer loop
   vertex 0.861321 -0.0181017 -1
   vertex 0.851027 -0.0193328 3
   vertex 0.861321 -0.0181017 3
  endloop
 endfacet
 facet normal -0.118748 0.992924 0
  outer loop
   vertex 0.861321 -0.0181017 -1
   vertex 0.851027 -0.0193328 -1
   vertex 0.851027 -0.0193328 3
  endloop
 endfacet
 facet normal -0.120149 0.992756 0
  outer loop
   vertex 0.871608 -0.0168567 -1
   vertex 0.861321 -0.0181017 3
   vertex 0.871608 -0.0168567 3
  endloop
 endfacet
 facet normal -0.120149 0.992756 0
  outer loop
   vertex 0.871608 -0.0168567 -1
   vertex 0.861321 -0.0181017 -1
   vertex 0.861321 -0.0181017 3
  endloop
 endfacet
 facet normal -0.121865 0.992547 0
  outer loop
   vertex 0.886178 -0.0150678 -1
   vertex 0.871608 -0.0168567 -1
   vertex 0.871608 -0.0168567 3
  endloop
 endfacet
 facet normal -0.121865 0.992547 0
  outer loop
   vertex 0.886178 -0.0150678 -1
   vertex 0.871608 -0.0168567 3
   vertex 0.886178 -0.0150678 3
  endloop
 endfacet
 facet normal -0.123505 0.992344 0
  outer loop
   vertex 0.895296 -0.013933 -1
   vertex 0.886178 -0.0150678 3
   vertex 0.895296 -0.013933 3
  endloop
 endfacet
 facet normal -0.123505 0.992344 0
  outer loop
   vertex 0.895296 -0.013933 -1
   vertex 0.886178 -0.0150678 -1
   vertex 0.886178 -0.0150678 3
  endloop
 endfacet
 facet normal -0.124768 0.992186 0
  outer loop
   vertex 0.904418 -0.0127859 -1
   vertex 0.895296 -0.013933 3
   vertex 0.904418 -0.0127859 3
  endloop
 endfacet
 facet normal -0.124768 0.992186 0
  outer loop
   vertex 0.904418 -0.0127859 -1
   vertex 0.895296 -0.013933 -1
   vertex 0.895296 -0.013933 3
  endloop
 endfacet
 facet normal -0.126286 0.991994 0
  outer loop
   vertex 0.917192 -0.0111597 -1
   vertex 0.904418 -0.0127859 -1
   vertex 0.904418 -0.0127859 3
  endloop
 endfacet
 facet normal -0.126286 0.991994 0
  outer loop
   vertex 0.917192 -0.0111597 -1
   vertex 0.904418 -0.0127859 3
   vertex 0.917192 -0.0111597 3
  endloop
 endfacet
 facet normal -0.127817 0.991798 0
  outer loop
   vertex 0.92514 -0.0101354 -1
   vertex 0.917192 -0.0111597 3
   vertex 0.92514 -0.0101354 3
  endloop
 endfacet
 facet normal -0.127817 0.991798 0
  outer loop
   vertex 0.92514 -0.0101354 -1
   vertex 0.917192 -0.0111597 -1
   vertex 0.917192 -0.0111597 3
  endloop
 endfacet
 facet normal -0.128995 0.991645 0
  outer loop
   vertex 0.933075 -0.0091032 -1
   vertex 0.92514 -0.0101354 3
   vertex 0.933075 -0.0091032 3
  endloop
 endfacet
 facet normal -0.128995 0.991645 0
  outer loop
   vertex 0.933075 -0.0091032 -1
   vertex 0.92514 -0.0101354 -1
   vertex 0.92514 -0.0101354 3
  endloop
 endfacet
 facet normal -0.130445 0.991456 0
  outer loop
   vertex 0.943553 -0.00772462 -1
   vertex 0.933075 -0.0091032 -1
   vertex 0.933075 -0.0091032 3
  endloop
 endfacet
 facet normal -0.130445 0.991456 0
  outer loop
   vertex 0.943553 -0.00772462 -1
   vertex 0.933075 -0.0091032 3
   vertex 0.943553 -0.00772462 3
  endloop
 endfacet
 facet normal -0.131691 0.991291 0
  outer loop
   vertex 0.950124 -0.00685167 -1
   vertex 0.943553 -0.00772462 3
   vertex 0.950124 -0.00685167 3
  endloop
 endfacet
 facet normal -0.131691 0.991291 0
  outer loop
   vertex 0.950124 -0.00685167 -1
   vertex 0.943553 -0.00772462 -1
   vertex 0.943553 -0.00772462 3
  endloop
 endfacet
 facet normal -0.132667 0.991161 0
  outer loop
   vertex 0.956703 -0.00597107 -1
   vertex 0.950124 -0.00685167 3
   vertex 0.956703 -0.00597107 3
  endloop
 endfacet
 facet normal -0.132667 0.991161 0
  outer loop
   vertex 0.956703 -0.00597107 -1
   vertex 0.950124 -0.00685167 -1
   vertex 0.950124 -0.00685167 3
  endloop
 endfacet
 facet normal -0.133825 0.991005 0
  outer loop
   vertex 0.965127 -0.0048335 -1
   vertex 0.956703 -0.00597107 -1
   vertex 0.956703 -0.00597107 3
  endloop
 endfacet
 facet normal -0.133825 0.991005 0
  outer loop
   vertex 0.965127 -0.0048335 -1
   vertex 0.956703 -0.00597107 3
   vertex 0.965127 -0.0048335 3
  endloop
 endfacet
 facet normal -0.134887 0.990861 0
  outer loop
   vertex 0.970367 -0.00412017 -1
   vertex 0.965127 -0.0048335 3
   vertex 0.970367 -0.00412017 3
  endloop
 endfacet
 facet normal -0.134887 0.990861 0
  outer loop
   vertex 0.970367 -0.00412017 -1
   vertex 0.965127 -0.0048335 -1
   vertex 0.965127 -0.0048335 3
  endloop
 endfacet
 facet normal -0.135749 0.990743 0
  outer loop
   vertex 0.975597 -0.00340357 -1
   vertex 0.970367 -0.00412017 3
   vertex 0.975597 -0.00340357 3
  endloop
 endfacet
 facet normal -0.135749 0.990743 0
  outer loop
   vertex 0.975597 -0.00340357 -1
   vertex 0.970367 -0.00412017 -1
   vertex 0.970367 -0.00412017 3
  endloop
 endfacet
 facet normal -0.136579 0.990629 0
  outer loop
   vertex 0.981573 -0.00257966 -1
   vertex 0.975597 -0.00340357 -1
   vertex 0.975597 -0.00340357 3
  endloop
 endfacet
 facet normal -0.136579 0.990629 0
  outer loop
   vertex 0.981573 -0.00257966 -1
   vertex 0.975597 -0.00340357 3
   vertex 0.981573 -0.00257966 3
  endloop
 endfacet
 facet normal -0.137383 0.990518 0
  outer loop
   vertex 0.985333 -0.00205815 -1
   vertex 0.981573 -0.00257966 3
   vertex 0.985333 -0.00205815 3
  endloop
 endfacet
 facet normal -0.137383 0.990518 0
  outer loop
   vertex 0.985333 -0.00205815 -1
   vertex 0.981573 -0.00257966 -1
   vertex 0.981573 -0.00257966 3
  endloop
 endfacet
 facet normal -0.138046 0.990426 0
  outer loop
   vertex 0.9891 -0.00153311 -1
   vertex 0.985333 -0.00205815 3
   vertex 0.9891 -0.00153311 3
  endloop
 endfacet
 facet normal -0.138046 0.990426 0
  outer loop
   vertex 0.9891 -0.00153311 -1
   vertex 0.985333 -0.00205815 -1
   vertex 0.985333 -0.00205815 3
  endloop
 endfacet
 facet normal -0.138812 0.990319 0
  outer loop
   vertex 0.992684 -0.00103074 -1
   vertex 0.9891 -0.00153311 -1
   vertex 0.9891 -0.00153311 3
  endloop
 endfacet
 facet normal -0.138812 0.990319 0
  outer loop
   vertex 0.992684 -0.00103074 -1
   vertex 0.9891 -0.00153311 3
   vertex 0.992684 -0.00103074 3
  endloop
 endfacet
 facet normal -0.139134 0.990274 0
  outer loop
   vertex 0.994936 -0.000714335 -1
   vertex 0.992684 -0.00103074 3
   vertex 0.994936 -0.000714335 3
  endloop
 endfacet
 facet normal -0.139134 0.990274 0
  outer loop
   vertex 0.994936 -0.000714335 -1
   vertex 0.992684 -0.00103074 -1
   vertex 0.992684 -0.00103074 3
  endloop
 endfacet
 facet normal -0.139622 0.990205 0
  outer loop
   vertex 0.99719 -0.000396512 -1
   vertex 0.994936 -0.000714335 3
   vertex 0.99719 -0.000396512 3
  endloop
 endfacet
 facet normal -0.139622 0.990205 0
  outer loop
   vertex 0.99719 -0.000396512 -1
   vertex 0.994936 -0.000714335 -1
   vertex 0.994936 -0.000714335 3
  endloop
 endfacet
 facet normal -0.139607 0.990207 0
  outer loop
   vertex 0.99848 -0.000214635 -1
   vertex 0.99719 -0.000396512 -1
   vertex 0.99719 -0.000396512 3
  endloop
 endfacet
 facet normal -0.139607 0.990207 0
  outer loop
   vertex 0.99848 -0.000214635 -1
   vertex 0.99719 -0.000396512 3
   vertex 0.99848 -0.000214635 3
  endloop
 endfacet
 facet normal -0.139822 0.990177 0
  outer loop
   vertex 0.999261 -0.000104351 -1
   vertex 0.99848 -0.000214635 3
   vertex 0.999261 -0.000104351 3
  endloop
 endfacet
 facet normal -0.139822 0.990177 0
  outer loop
   vertex 0.999261 -0.000104351 -1
   vertex 0.99848 -0.000214635 -1
   vertex 0.99848 -0.000214635 3
  endloop
 endfacet
 facet normal -0.139219 0.990262 0
  outer loop
   vertex 1.00002 2.35645e-06 -1
   vertex 0.999261 -0.000104351 3
   vertex 1.00002 2.35645e-06 3
  endloop
 endfacet
 facet normal -0.139219 0.990262 0
  outer loop
   vertex 1.00002 2.35645e-06 -1
   vertex 0.999261 -0.000104351 -1
   vertex 0.999261 -0.000104351 3
  endloop
 endfacet
endsolid patch0
