solid Onshape
  facet normal 0 0 -1
    outer loop
      vertex 1 0.00126 -1
      vertex 1.00898 3.92048e-16 -1
      vertex 1 -0.00126 -1
    endloop
  endfacet
  facet normal 0 0 -1
    outer loop
      vertex 1 0.00126 -1
      vertex 1 -0.00126 -1
      vertex 0.982255 0.0037228 -1
    endloop
  endfacet
  facet normal 0 0 -1
    outer loop
      vertex 1 -0.00126 -1
      vertex 0.981976 -0.00376104 -1
      vertex 0.982255 0.0037228 -1
    endloop
  endfacet
  facet normal 0 0 -1
    outer loop
      vertex 0.982255 0.0037228 -1
      vertex 0.981976 -0.00376104 -1
      vertex 0.944035 0.00885045 -1
    endloop
  endfacet
  facet normal 0 0 -1
    outer loop
      vertex 0.981976 -0.00376104 -1
      vertex 0.944089 -0.00884335 -1
      vertex 0.944035 0.00885045 -1
    endloop
  endfacet
  facet normal 0 0 -1
    outer loop
      vertex 0.944035 0.00885045 -1
      vertex 0.944089 -0.00884335 -1
      vertex 0.90133 0.0143114 -1
    endloop
  endfacet
  facet normal 0 0 -1
    outer loop
      vertex 0.944089 -0.00884335 -1
      vertex 0.901288 -0.0143167 -1
      vertex 0.90133 0.0143114 -1
    endloop
  endfacet
  facet normal 0 0 -1
    outer loop
      vertex 0.90133 0.0143114 -1
      vertex 0.901288 -0.0143167 -1
      vertex 0.85658 0.0197495 -1
    endloop
  endfacet
  facet normal 0 0 -1
    outer loop
      vertex 0.901288 -0.0143167 -1
      vertex 0.855801 -0.0198417 -1
      vertex 0.85658 0.0197495 -1
    endloop
  endfacet
  facet normal 0 0 -1
    outer loop
      vertex 0.85658 0.0197495 -1
      vertex 0.855801 -0.0198417 -1
      vertex 0.80567 0.0256011 -1
    endloop
  endfacet
  facet normal 0 0 -1
    outer loop
      vertex 0.855801 -0.0198417 -1
      vertex 0.808972 -0.0252321 -1
      vertex 0.80567 0.0256011 -1
    endloop
  endfacet
  facet normal 0 0 -1
    outer loop
      vertex 0.80567 0.0256011 -1
      vertex 0.808972 -0.0252321 -1
      vertex 0.754471 0.0311362 -1
    endloop
  endfacet
  facet normal 0 0 -1
    outer loop
      vertex 0.808972 -0.0252321 -1
      vertex 0.761899 -0.0303549 -1
      vertex 0.754471 0.0311362 -1
    endloop
  endfacet
  facet normal 0 0 -1
    outer loop
      vertex 0.754471 0.0311362 -1
      vertex 0.761899 -0.0303549 -1
      vertex 0.703602 0.0362877 -1
    endloop
  endfacet
  facet normal 0 0 -1
    outer loop
      vertex 0.761899 -0.0303549 -1
      vertex 0.715402 -0.0351242 -1
      vertex 0.703602 0.0362877 -1
    endloop
  endfacet
  facet normal 0 0 -1
    outer loop
      vertex 0.703602 0.0362877 -1
      vertex 0.715402 -0.0351242 -1
      vertex 0.658981 0.0405101 -1
    endloop
  endfacet
  facet normal 0 0 -1
    outer loop
      vertex 0.715402 -0.0351242 -1
      vertex 0.670189 -0.0394765 -1
      vertex 0.658981 0.0405101 -1
    endloop
  endfacet
  facet normal 0 0 -1
    outer loop
      vertex 0.658981 0.0405101 -1
      vertex 0.670189 -0.0394765 -1
      vertex 0.616032 0.0442955 -1
    endloop
  endfacet
  facet normal 0 0 -1
    outer loop
      vertex 0.670189 -0.0394765 -1
      vertex 0.626674 -0.0433842 -1
      vertex 0.616032 0.0442955 -1
    endloop
  endfacet
  facet normal 0 0 -1
    outer loop
      vertex 0.616032 0.0442955 -1
      vertex 0.626674 -0.0433842 -1
      vertex 0.575006 0.047634 -1
    endloop
  endfacet
  facet normal 0 0 -1
    outer loop
      vertex 0.626674 -0.0433842 -1
      vertex 0.585054 -0.0468427 -1
      vertex 0.575006 0.047634 -1
    endloop
  endfacet
  facet normal 0 0 -1
    outer loop
      vertex 0.575006 0.047634 -1
      vertex 0.585054 -0.0468427 -1
      vertex 0.535989 0.0505323 -1
    endloop
  endfacet
  facet normal 0 0 -1
    outer loop
      vertex 0.585054 -0.0468427 -1
      vertex 0.545463 -0.0498548 -1
      vertex 0.535989 0.0505323 -1
    endloop
  endfacet
  facet normal 0 0 -1
    outer loop
      vertex 0.535989 0.0505323 -1
      vertex 0.545463 -0.0498548 -1
      vertex 0.499008 0.0530028 -1
    endloop
  endfacet
  facet normal 0 0 -1
    outer loop
      vertex 0.545463 -0.0498548 -1
      vertex 0.507932 -0.0524328 -1
      vertex 0.499008 0.0530028 -1
    endloop
  endfacet
  facet normal 0 0 -1
    outer loop
      vertex 0.499008 0.0530028 -1
      vertex 0.507932 -0.0524328 -1
      vertex 0.466081 0.0549505 -1
    endloop
  endfacet
  facet normal 0 0 -1
    outer loop
      vertex 0.507932 -0.0524328 -1
      vertex 0.470702 -0.0546924 -1
      vertex 0.466081 0.0549505 -1
    endloop
  endfacet
  facet normal 0 0 -1
    outer loop
      vertex 0.466081 0.0549505 -1
      vertex 0.470702 -0.0546924 -1
      vertex 0.432819 0.0566494 -1
    endloop
  endfacet
  facet normal 0 0 -1
    outer loop
      vertex 0.470702 -0.0546924 -1
      vertex 0.436986 -0.0564524 -1
      vertex 0.432819 0.0566494 -1
    endloop
  endfacet
  facet normal 0 0 -1
    outer loop
      vertex 0.432819 0.0566494 -1
      vertex 0.436986 -0.0564524 -1
      vertex 0.401341 0.0579799 -1
    endloop
  endfacet
  facet normal 0 0 -1
    outer loop
      vertex 0.436986 -0.0564524 -1
      vertex 0.405018 -0.0578394 -1
      vertex 0.401341 0.0579799 -1
    endloop
  endfacet
  facet normal 0 0 -1
    outer loop
      vertex 0.401341 0.0579799 -1
      vertex 0.405018 -0.0578394 -1
      vertex 0.371519 0.0589627 -1
    endloop
  endfacet
  facet normal 0 0 -1
    outer loop
      vertex 0.405018 -0.0578394 -1
      vertex 0.374696 -0.0588718 -1
      vertex 0.371519 0.0589627 -1
    endloop
  endfacet
  facet normal 0 0 -1
    outer loop
      vertex 0.371519 0.0589627 -1
      vertex 0.374696 -0.0588718 -1
      vertex 0.340194 0.059669 -1
    endloop
  endfacet
  facet normal 0 0 -1
    outer loop
      vertex 0.374696 -0.0588718 -1
      vertex 0.345941 -0.0595662 -1
      vertex 0.340194 0.059669 -1
    endloop
  endfacet
  facet normal 0 0 -1
    outer loop
      vertex 0.340194 0.059669 -1
      vertex 0.345941 -0.0595662 -1
      vertex 0.310701 0.059991 -1
    endloop
  endfacet
  facet normal 0 0 -1
    outer loop
      vertex 0.345941 -0.0595662 -1
      vertex 0.318665 -0.0599392 -1
      vertex 0.310701 0.059991 -1
    endloop
  endfacet
  facet normal 0 0 -1
    outer loop
      vertex 0.310701 0.059991 -1
      vertex 0.318665 -0.0599392 -1
      vertex 0.282976 0.0599515 -1
    endloop
  endfacet
  facet normal 0 0 -1
    outer loop
      vertex 0.318665 -0.0599392 -1
      vertex 0.292795 -0.060006 -1
      vertex 0.282976 0.0599515 -1
    endloop
  endfacet
  facet normal 0 0 -1
    outer loop
      vertex 0.292795 -0.060006 -1
      vertex 0.268284 -0.0597817 -1
      vertex 0.282976 0.0599515 -1
    endloop
  endfacet
  facet normal 0 0 -1
    outer loop
      vertex 0.282976 0.0599515 -1
      vertex 0.268284 -0.0597817 -1
      vertex 0.256898 0.0595731 -1
    endloop
  endfacet
  facet normal 0 0 -1
    outer loop
      vertex 0.268284 -0.0597817 -1
      vertex 0.245069 -0.059281 -1
      vertex 0.256898 0.0595731 -1
    endloop
  endfacet
  facet normal 0 0 -1
    outer loop
      vertex 0.256898 0.0595731 -1
      vertex 0.245069 -0.059281 -1
      vertex 0.23238 0.0588769 -1
    endloop
  endfacet
  facet normal 0 0 -1
    outer loop
      vertex 0.245069 -0.059281 -1
      vertex 0.223116 -0.0585191 -1
      vertex 0.23238 0.0588769 -1
    endloop
  endfacet
  facet normal 0 0 -1
    outer loop
      vertex 0.23238 0.0588769 -1
      vertex 0.223116 -0.0585191 -1
      vertex 0.209343 0.0578826 -1
    endloop
  endfacet
  facet normal 0 0 -1
    outer loop
      vertex 0.223116 -0.0585191 -1
      vertex 0.202414 -0.0575126 -1
      vertex 0.209343 0.0578826 -1
    endloop
  endfacet
  facet normal 0 0 -1
    outer loop
      vertex 0.209343 0.0578826 -1
      vertex 0.202414 -0.0575126 -1
      vertex 0.188409 0.0566554 -1
    endloop
  endfacet
  facet normal 0 0 -1
    outer loop
      vertex 0.202414 -0.0575126 -1
      vertex 0.182197 -0.0562258 -1
      vertex 0.188409 0.0566554 -1
    endloop
  endfacet
  facet normal 0 0 -1
    outer loop
      vertex 0.188409 0.0566554 -1
      vertex 0.182197 -0.0562258 -1
      vertex 0.168138 0.0551326 -1
    endloop
  endfacet
  facet normal 0 0 -1
    outer loop
      vertex 0.182197 -0.0562258 -1
      vertex 0.163901 -0.0547684 -1
      vertex 0.168138 0.0551326 -1
    endloop
  endfacet
  facet normal 0 0 -1
    outer loop
      vertex 0.168138 0.0551326 -1
      vertex 0.163901 -0.0547684 -1
      vertex 0.149186 0.0533684 -1
    endloop
  endfacet
  facet normal 0 0 -1
    outer loop
      vertex 0.163901 -0.0547684 -1
      vertex 0.146767 -0.053117 -1
      vertex 0.149186 0.0533684 -1
    endloop
  endfacet
  facet normal 0 0 -1
    outer loop
      vertex 0.146767 -0.053117 -1
      vertex 0.130779 -0.0512902 -1
      vertex 0.149186 0.0533684 -1
    endloop
  endfacet
  facet normal 0 0 -1
    outer loop
      vertex 0.149186 0.0533684 -1
      vertex 0.130779 -0.0512902 -1
      vertex 0.131546 0.0513847 -1
    endloop
  endfacet
  facet normal 0 0 -1
    outer loop
      vertex 0.130779 -0.0512902 -1
      vertex 0.115927 -0.0493088 -1
      vertex 0.131546 0.0513847 -1
    endloop
  endfacet
  facet normal 0 0 -1
    outer loop
      vertex 0.131546 0.0513847 -1
      vertex 0.115927 -0.0493088 -1
      vertex 0.115194 0.0492032 -1
    endloop
  endfacet
  facet normal 0 0 -1
    outer loop
      vertex 0.018031 -0.02249 -1
      vertex 0.0416751 0.0328615 -1
      vertex 0.0208674 -0.0240654 -1
    endloop
  endfacet
  facet normal 0 0 -1
    outer loop
      vertex 0.0416751 0.0328615 -1
      vertex 0.0494157 0.0353692 -1
      vertex 0.0208674 -0.0240654 -1
    endloop
  endfacet
  facet normal 0 0 -1
    outer loop
      vertex 0.0208674 -0.0240654 -1
      vertex 0.0494157 0.0353692 -1
      vertex 0.0242349 -0.0257785 -1
    endloop
  endfacet
  facet normal 0 0 -1
    outer loop
      vertex 0.0494157 0.0353692 -1
      vertex 0.058059 0.037856 -1
      vertex 0.0242349 -0.0257785 -1
    endloop
  endfacet
  facet normal 0 0 -1
    outer loop
      vertex 0.0242349 -0.0257785 -1
      vertex 0.058059 0.037856 -1
      vertex 0.0253775 -0.0263267 -1
    endloop
  endfacet
  facet normal 0 0 -1
    outer loop
      vertex 0.058059 0.037856 -1
      vertex 0.0298262 -0.0283272 -1
      vertex 0.0253775 -0.0263267 -1
    endloop
  endfacet
  facet normal 0 0 -1
    outer loop
      vertex 0.018031 -0.02249 -1
      vertex 0.0156118 -0.0210271 -1
      vertex 0.0416751 0.0328615 -1
    endloop
  endfacet
  facet normal 0 0 -1
    outer loop
      vertex 0.0156118 -0.0210271 -1
      vertex 0.0135517 -0.0196748 -1
      vertex 0.0416751 0.0328615 -1
    endloop
  endfacet
  facet normal 0 0 -1
    outer loop
      vertex 0.0416751 0.0328615 -1
      vertex 0.0135517 -0.0196748 -1
      vertex 0.0117803 -0.0184153 -1
    endloop
  endfacet
  facet normal 0 0 -1
    outer loop
      vertex 0.115194 0.0492032 -1
      vertex 0.115927 -0.0493088 -1
      vertex 0.101611 0.0470973 -1
    endloop
  endfacet
  facet normal 0 0 -1
    outer loop
      vertex 0.115927 -0.0493088 -1
      vertex 0.102181 -0.0471916 -1
      vertex 0.101611 0.0470973 -1
    endloop
  endfacet
  facet normal 0 0 -1
    outer loop
      vertex 0.101611 0.0470973 -1
      vertex 0.102181 -0.0471916 -1
      vertex 0.0890688 0.0448743 -1
    endloop
  endfacet
  facet normal 0 0 -1
    outer loop
      vertex 0.102181 -0.0471916 -1
      vertex 0.0895334 -0.044962 -1
      vertex 0.0890688 0.0448743 -1
    endloop
  endfacet
  facet normal 0 0 -1
    outer loop
      vertex 0.0890688 0.0448743 -1
      vertex 0.0895334 -0.044962 -1
      vertex 0.0775583 0.0425557 -1
    endloop
  endfacet
  facet normal 0 0 -1
    outer loop
      vertex 0.0895334 -0.044962 -1
      vertex 0.0779673 -0.0426433 -1
      vertex 0.0775583 0.0425557 -1
    endloop
  endfacet
  facet normal 0 0 -1
    outer loop
      vertex 0.0775583 0.0425557 -1
      vertex 0.0779673 -0.0426433 -1
      vertex 0.0676497 0.0403052 -1
    endloop
  endfacet
  facet normal 0 0 -1
    outer loop
      vertex 0.0779673 -0.0426433 -1
      vertex 0.0669289 -0.040131 -1
      vertex 0.0676497 0.0403052 -1
    endloop
  endfacet
  facet normal 0 0 -1
    outer loop
      vertex 0.0676497 0.0403052 -1
      vertex 0.0669289 -0.040131 -1
      vertex 0.0574404 -0.0376875 -1
    endloop
  endfacet
  facet normal 0 0 -1
    outer loop
      vertex 0.0117803 -0.0184153 -1
      vertex 0.0102429 -0.0172328 -1
      vertex 0.0416751 0.0328615 -1
    endloop
  endfacet
  facet normal 0 0 -1
    outer loop
      vertex 0.0102429 -0.0172328 -1
      vertex 0.00891038 -0.0161253 -1
      vertex 0.0416751 0.0328615 -1
    endloop
  endfacet
  facet normal 0 0 -1
    outer loop
      vertex 0.0416751 0.0328615 -1
      vertex 0.00891038 -0.0161253 -1
      vertex 0.0347911 0.0303489 -1
    endloop
  endfacet
  facet normal 0 0 -1
    outer loop
      vertex 0.00891038 -0.0161253 -1
      vertex 0.0293166 0.0281079 -1
      vertex 0.0347911 0.0303489 -1
    endloop
  endfacet
  facet normal 0 0 -1
    outer loop
      vertex 0.0574404 -0.0376875 -1
      vertex 0.0489077 -0.0352134 -1
      vertex 0.0676497 0.0403052 -1
    endloop
  endfacet
  facet normal 0 0 -1
    outer loop
      vertex 0.0489077 -0.0352134 -1
      vertex 0.041255 -0.0327165 -1
      vertex 0.0676497 0.0403052 -1
    endloop
  endfacet
  facet normal 0 0 -1
    outer loop
      vertex 0.0676497 0.0403052 -1
      vertex 0.041255 -0.0327165 -1
      vertex 0.058059 0.037856 -1
    endloop
  endfacet
  facet normal 0 0 -1
    outer loop
      vertex 0.041255 -0.0327165 -1
      vertex 0.0349811 -0.0304225 -1
      vertex 0.058059 0.037856 -1
    endloop
  endfacet
  facet normal 0 0 -1
    outer loop
      vertex 0.058059 0.037856 -1
      vertex 0.0349811 -0.0304225 -1
      vertex 0.0298262 -0.0283272 -1
    endloop
  endfacet
  facet normal 0 0 -1
    outer loop
      vertex 0.00775285 -0.0150867 -1
      vertex 0.00667205 -0.0140374 -1
      vertex 0.0209167 0.0240917 -1
    endloop
  endfacet
  facet normal 0 0 -1
    outer loop
      vertex 0.00667205 -0.0140374 -1
      vertex 0.00578352 -0.0131033 -1
      vertex 0.0209167 0.0240917 -1
    endloop
  endfacet
  facet normal 0 0 -1
    outer loop
      vertex 0.0209167 0.0240917 -1
      vertex 0.00578352 -0.0131033 -1
      vertex 0.0179258 0.0224288 -1
    endloop
  endfacet
  facet normal 0 0 -1
    outer loop
      vertex 0.00775285 -0.0150867 -1
      vertex 0.0209167 0.0240917 -1
      vertex 0.00891038 -0.0161253 -1
    endloop
  endfacet
  facet normal 0 0 -1
    outer loop
      vertex 0.0209167 0.0240917 -1
      vertex 0.024519 0.0259163 -1
      vertex 0.00891038 -0.0161253 -1
    endloop
  endfacet
  facet normal 0 0 -1
    outer loop
      vertex 0.00891038 -0.0161253 -1
      vertex 0.024519 0.0259163 -1
      vertex 0.0293166 0.0281079 -1
    endloop
  endfacet
  facet normal 0 0 -1
    outer loop
      vertex 0.0179258 0.0224288 -1
      vertex 0.00578352 -0.0131033 -1
      vertex 0.0154207 0.0209061 -1
    endloop
  endfacet
  facet normal 0 0 -1
    outer loop
      vertex 0.00578352 -0.0131033 -1
      vertex 0.00499946 -0.0122125 -1
      vertex 0.0154207 0.0209061 -1
    endloop
  endfacet
  facet normal 0 0 -1
    outer loop
      vertex 0.0154207 0.0209061 -1
      vertex 0.00499946 -0.0122125 -1
      vertex 0.0132989 0.019501 -1
    endloop
  endfacet
  facet normal 0 0 -1
    outer loop
      vertex 0.0043065 -0.0113607 -1
      vertex 0.00995978 0.0170045 -1
      vertex 0.00499946 -0.0122125 -1
    endloop
  endfacet
  facet normal 0 0 -1
    outer loop
      vertex 0.00995978 0.0170045 -1
      vertex 0.0115017 0.0182078 -1
      vertex 0.00499946 -0.0122125 -1
    endloop
  endfacet
  facet normal 0 0 -1
    outer loop
      vertex 0.00499946 -0.0122125 -1
      vertex 0.0115017 0.0182078 -1
      vertex 0.0132989 0.019501 -1
    endloop
  endfacet
  facet normal 0 0 -1
    outer loop
      vertex 0.00410848 0.011104 -1
      vertex 0.0047787 0.0119483 -1
      vertex 0.0043065 -0.0113607 -1
    endloop
  endfacet
  facet normal 0 0 -1
    outer loop
      vertex 0.0047787 0.0119483 -1
      vertex 0.00554034 0.0128343 -1
      vertex 0.0043065 -0.0113607 -1
    endloop
  endfacet
  facet normal 0 0 -1
    outer loop
      vertex 0.0043065 -0.0113607 -1
      vertex 0.00554034 0.0128343 -1
      vertex 0.00640649 0.0137657 -1
    endloop
  endfacet
  facet normal 0 0 -1
    outer loop
      vertex 0.00640649 0.0137657 -1
      vertex 0.00739551 0.0147492 -1
      vertex 0.0043065 -0.0113607 -1
    endloop
  endfacet
  facet normal 0 0 -1
    outer loop
      vertex 0.00739551 0.0147492 -1
      vertex 0.00862728 0.0158785 -1
      vertex 0.0043065 -0.0113607 -1
    endloop
  endfacet
  facet normal 0 0 -1
    outer loop
      vertex 0.0043065 -0.0113607 -1
      vertex 0.00862728 0.0158785 -1
      vertex 0.00995978 0.0170045 -1
    endloop
  endfacet
  facet normal 0 0 -1
    outer loop
      vertex 0.00410848 0.011104 -1
      vertex 0.0043065 -0.0113607 -1
      vertex 0.0035177 0.0102969 -1
    endloop
  endfacet
  facet normal 0 0 -1
    outer loop
      vertex 0.0043065 -0.0113607 -1
      vertex 0.00369323 -0.0105437 -1
      vertex 0.0035177 0.0102969 -1
    endloop
  endfacet
  facet normal 0 0 -1
    outer loop
      vertex 0.0035177 0.0102969 -1
      vertex 0.00369323 -0.0105437 -1
      vertex 0.00299628 0.00952261 -1
    endloop
  endfacet
  facet normal 0 0 -1
    outer loop
      vertex 0.00369323 -0.0105437 -1
      vertex 0.00315005 -0.00975786 -1
      vertex 0.00299628 0.00952261 -1
    endloop
  endfacet
  facet normal 0 0 -1
    outer loop
      vertex 0.00315005 -0.00975786 -1
      vertex 0.00266882 -0.00899953 -1
      vertex 0.00299628 0.00952261 -1
    endloop
  endfacet
  facet normal 0 0 -1
    outer loop
      vertex 0.00299628 0.00952261 -1
      vertex 0.00266882 -0.00899953 -1
      vertex 0.00224114 -0.00826268 -1
    endloop
  endfacet
  facet normal 0 0 -1
    outer loop
      vertex 0.00224114 -0.00826268 -1
      vertex 0.0018616 -0.00754437 -1
      vertex 0.00299628 0.00952261 -1
    endloop
  endfacet
  facet normal 0 0 -1
    outer loop
      vertex 0.0018616 -0.00754437 -1
      vertex 0.00152631 -0.00684339 -1
      vertex 0.00299628 0.00952261 -1
    endloop
  endfacet
  facet normal 0 0 -1
    outer loop
      vertex 0.00299628 0.00952261 -1
      vertex 0.00152631 -0.00684339 -1
      vertex 0.00123177 -0.00615848 -1
    endloop
  endfacet
  facet normal 0 0 -1
    outer loop
      vertex 0.00123177 -0.00615848 -1
      vertex 0.000974884 -0.00548828 -1
      vertex 0.00299628 0.00952261 -1
    endloop
  endfacet
  facet normal 0 0 -1
    outer loop
      vertex 0.000974884 -0.00548828 -1
      vertex 0.000752964 -0.00483142 -1
      vertex 0.00299628 0.00952261 -1
    endloop
  endfacet
  facet normal 0 0 -1
    outer loop
      vertex 0.00299628 0.00952261 -1
      vertex 0.000752964 -0.00483142 -1
      vertex 0.000561515 -0.00417856 -1
    endloop
  endfacet
  facet normal 0 0 -1
    outer loop
      vertex 0.000561515 -0.00417856 -1
      vertex 0.000398656 -0.00352484 -1
      vertex 0.00299628 0.00952261 -1
    endloop
  endfacet
  facet normal 0 0 -1
    outer loop
      vertex 0.000398656 -0.00352484 -1
      vertex 0.000264136 -0.00287125 -1
      vertex 0.00299628 0.00952261 -1
    endloop
  endfacet
  facet normal 0 0 -1
    outer loop
      vertex 0.00299628 0.00952261 -1
      vertex 0.000264136 -0.00287125 -1
      vertex 0.000157621 -0.00221874 -1
    endloop
  endfacet
  facet normal 0 0 -1
    outer loop
      vertex 0.000157621 -0.00221874 -1
      vertex 7.87515e-5 -0.0015682 -1
      vertex 0.00299628 0.00952261 -1
    endloop
  endfacet
  facet normal 0 0 -1
    outer loop
      vertex 7.87515e-5 -0.0015682 -1
      vertex 2.71529e-5 -0.000920419 -1
      vertex 0.00299628 0.00952261 -1
    endloop
  endfacet
  facet normal 0 0 -1
    outer loop
      vertex 0.00299628 0.00952261 -1
      vertex 2.71529e-5 -0.000920419 -1
      vertex 0.00253583 0.0087775 -1
    endloop
  endfacet
  facet normal 0 0 -1
    outer loop
      vertex 2.71529e-5 -0.000920419 -1
      vertex 2.4215e-6 -0.000274639 -1
      vertex 0.00253583 0.0087775 -1
    endloop
  endfacet
  facet normal 0 0 -1
    outer loop
      vertex 0.00253583 0.0087775 -1
      vertex 2.4215e-6 -0.000274639 -1
      vertex 4.42882e-6 0.000371474 -1
    endloop
  endfacet
  facet normal 0 0 -1
    outer loop
      vertex 0.000175821 0.00234326 -1
      vertex 0.00028939 0.00300503 -1
      vertex 0.00253583 0.0087775 -1
    endloop
  endfacet
  facet normal 0 0 -1
    outer loop
      vertex 0.00028939 0.00300503 -1
      vertex 0.000431771 0.00366754 -1
      vertex 0.00253583 0.0087775 -1
    endloop
  endfacet
  facet normal 0 0 -1
    outer loop
      vertex 4.42882e-6 0.000371474 -1
      vertex 3.37049e-5 0.00102557 -1
      vertex 0.00253583 0.0087775 -1
    endloop
  endfacet
  facet normal 0 0 -1
    outer loop
      vertex 3.37049e-5 0.00102557 -1
      vertex 9.07102e-5 0.00168313 -1
      vertex 0.00253583 0.0087775 -1
    endloop
  endfacet
  facet normal 0 0 -1
    outer loop
      vertex 0.00253583 0.0087775 -1
      vertex 9.07102e-5 0.00168313 -1
      vertex 0.000175821 0.00234326 -1
    endloop
  endfacet
  facet normal 0 0 -1
    outer loop
      vertex 0.000431771 0.00366754 -1
      vertex 0.000605942 0.00433922 -1
      vertex 0.00253583 0.0087775 -1
    endloop
  endfacet
  facet normal 0 0 -1
    outer loop
      vertex 0.000605942 0.00433922 -1
      vertex 0.000815963 0.00502701 -1
      vertex 0.00253583 0.0087775 -1
    endloop
  endfacet
  facet normal 0 0 -1
    outer loop
      vertex 0.00253583 0.0087775 -1
      vertex 0.000815963 0.00502701 -1
      vertex 0.001065 0.00573272 -1
    endloop
  endfacet
  facet normal 0 0 -1
    outer loop
      vertex 0.001065 0.00573272 -1
      vertex 0.0013567 0.00645829 -1
      vertex 0.00253583 0.0087775 -1
    endloop
  endfacet
  facet normal 0 0 -1
    outer loop
      vertex 0.0013567 0.00645829 -1
      vertex 0.00169526 0.00720559 -1
      vertex 0.00253583 0.0087775 -1
    endloop
  endfacet
  facet normal 0 0 -1
    outer loop
      vertex 0.00253583 0.0087775 -1
      vertex 0.00169526 0.00720559 -1
      vertex 0.00208585 0.0079771 -1
    endloop
  endfacet
  facet normal 0 0 1
    outer loop
      vertex 0.282976 0.0599515 1
      vertex 0.292795 -0.060006 1
      vertex 0.310701 0.059991 1
    endloop
  endfacet
  facet normal 0 0 1
    outer loop
      vertex 0.292795 -0.060006 1
      vertex 0.318665 -0.0599392 1
      vertex 0.310701 0.059991 1
    endloop
  endfacet
  facet normal 0 0 1
    outer loop
      vertex 0.310701 0.059991 1
      vertex 0.318665 -0.0599392 1
      vertex 0.340194 0.059669 1
    endloop
  endfacet
  facet normal 0 0 1
    outer loop
      vertex 0.318665 -0.0599392 1
      vertex 0.345941 -0.0595662 1
      vertex 0.340194 0.059669 1
    endloop
  endfacet
  facet normal 0 0 1
    outer loop
      vertex 0.340194 0.059669 1
      vertex 0.345941 -0.0595662 1
      vertex 0.371519 0.0589627 1
    endloop
  endfacet
  facet normal 0 0 1
    outer loop
      vertex 0.345941 -0.0595662 1
      vertex 0.374696 -0.0588718 1
      vertex 0.371519 0.0589627 1
    endloop
  endfacet
  facet normal 0 0 1
    outer loop
      vertex 0.371519 0.0589627 1
      vertex 0.374696 -0.0588718 1
      vertex 0.401341 0.0579799 1
    endloop
  endfacet
  facet normal 0 0 1
    outer loop
      vertex 0.374696 -0.0588718 1
      vertex 0.405018 -0.0578394 1
      vertex 0.401341 0.0579799 1
    endloop
  endfacet
  facet normal 0 0 1
    outer loop
      vertex 0.401341 0.0579799 1
      vertex 0.405018 -0.0578394 1
      vertex 0.432819 0.0566494 1
    endloop
  endfacet
  facet normal 0 0 1
    outer loop
      vertex 0.405018 -0.0578394 1
      vertex 0.436986 -0.0564524 1
      vertex 0.432819 0.0566494 1
    endloop
  endfacet
  facet normal 0 0 1
    outer loop
      vertex 0.432819 0.0566494 1
      vertex 0.436986 -0.0564524 1
      vertex 0.466081 0.0549505 1
    endloop
  endfacet
  facet normal 0 0 1
    outer loop
      vertex 0.436986 -0.0564524 1
      vertex 0.470702 -0.0546924 1
      vertex 0.466081 0.0549505 1
    endloop
  endfacet
  facet normal 0 0 1
    outer loop
      vertex 0.466081 0.0549505 1
      vertex 0.470702 -0.0546924 1
      vertex 0.499008 0.0530028 1
    endloop
  endfacet
  facet normal 0 0 1
    outer loop
      vertex 0.470702 -0.0546924 1
      vertex 0.507932 -0.0524328 1
      vertex 0.499008 0.0530028 1
    endloop
  endfacet
  facet normal 0 0 1
    outer loop
      vertex 0.499008 0.0530028 1
      vertex 0.507932 -0.0524328 1
      vertex 0.535989 0.0505323 1
    endloop
  endfacet
  facet normal 0 0 1
    outer loop
      vertex 0.507932 -0.0524328 1
      vertex 0.545463 -0.0498548 1
      vertex 0.535989 0.0505323 1
    endloop
  endfacet
  facet normal 0 0 1
    outer loop
      vertex 0.535989 0.0505323 1
      vertex 0.545463 -0.0498548 1
      vertex 0.575006 0.047634 1
    endloop
  endfacet
  facet normal 0 0 1
    outer loop
      vertex 0.545463 -0.0498548 1
      vertex 0.585054 -0.0468427 1
      vertex 0.575006 0.047634 1
    endloop
  endfacet
  facet normal 0 0 1
    outer loop
      vertex 0.575006 0.047634 1
      vertex 0.585054 -0.0468427 1
      vertex 0.616032 0.0442955 1
    endloop
  endfacet
  facet normal 0 0 1
    outer loop
      vertex 0.585054 -0.0468427 1
      vertex 0.626674 -0.0433842 1
      vertex 0.616032 0.0442955 1
    endloop
  endfacet
  facet normal 0 0 1
    outer loop
      vertex 0.616032 0.0442955 1
      vertex 0.626674 -0.0433842 1
      vertex 0.658981 0.0405101 1
    endloop
  endfacet
  facet normal 0 0 1
    outer loop
      vertex 0.626674 -0.0433842 1
      vertex 0.670189 -0.0394765 1
      vertex 0.658981 0.0405101 1
    endloop
  endfacet
  facet normal 0 0 1
    outer loop
      vertex 0.658981 0.0405101 1
      vertex 0.670189 -0.0394765 1
      vertex 0.703602 0.0362877 1
    endloop
  endfacet
  facet normal 0 0 1
    outer loop
      vertex 0.670189 -0.0394765 1
      vertex 0.715402 -0.0351242 1
      vertex 0.703602 0.0362877 1
    endloop
  endfacet
  facet normal 0 0 1
    outer loop
      vertex 0.703602 0.0362877 1
      vertex 0.715402 -0.0351242 1
      vertex 0.754471 0.0311362 1
    endloop
  endfacet
  facet normal 0 0 1
    outer loop
      vertex 0.715402 -0.0351242 1
      vertex 0.761899 -0.0303549 1
      vertex 0.754471 0.0311362 1
    endloop
  endfacet
  facet normal 0 0 1
    outer loop
      vertex 0.754471 0.0311362 1
      vertex 0.761899 -0.0303549 1
      vertex 0.80567 0.0256011 1
    endloop
  endfacet
  facet normal 0 0 1
    outer loop
      vertex 0.761899 -0.0303549 1
      vertex 0.808972 -0.0252321 1
      vertex 0.80567 0.0256011 1
    endloop
  endfacet
  facet normal 0 0 1
    outer loop
      vertex 0.80567 0.0256011 1
      vertex 0.808972 -0.0252321 1
      vertex 0.85658 0.0197495 1
    endloop
  endfacet
  facet normal 0 0 1
    outer loop
      vertex 0.808972 -0.0252321 1
      vertex 0.855801 -0.0198417 1
      vertex 0.85658 0.0197495 1
    endloop
  endfacet
  facet normal 0 0 1
    outer loop
      vertex 0.85658 0.0197495 1
      vertex 0.855801 -0.0198417 1
      vertex 0.90133 0.0143114 1
    endloop
  endfacet
  facet normal 0 0 1
    outer loop
      vertex 0.855801 -0.0198417 1
      vertex 0.901288 -0.0143167 1
      vertex 0.90133 0.0143114 1
    endloop
  endfacet
  facet normal 0 0 1
    outer loop
      vertex 0.90133 0.0143114 1
      vertex 0.901288 -0.0143167 1
      vertex 0.944035 0.00885045 1
    endloop
  endfacet
  facet normal 0 0 1
    outer loop
      vertex 0.901288 -0.0143167 1
      vertex 0.944089 -0.00884335 1
      vertex 0.944035 0.00885045 1
    endloop
  endfacet
  facet normal 0 0 1
    outer loop
      vertex 0.944035 0.00885045 1
      vertex 0.944089 -0.00884335 1
      vertex 0.982255 0.0037228 1
    endloop
  endfacet
  facet normal 0 0 1
    outer loop
      vertex 0.944089 -0.00884335 1
      vertex 0.981976 -0.00376104 1
      vertex 0.982255 0.0037228 1
    endloop
  endfacet
  facet normal 0 0 1
    outer loop
      vertex 0.982255 0.0037228 1
      vertex 0.981976 -0.00376104 1
      vertex 1 0.00126 1
    endloop
  endfacet
  facet normal 0 0 1
    outer loop
      vertex 0.981976 -0.00376104 1
      vertex 1 -0.00126 1
      vertex 1 0.00126 1
    endloop
  endfacet
  facet normal 0 0 1
    outer loop
      vertex 1 0.00126 1
      vertex 1 -0.00126 1
      vertex 1.00898 3.92048e-16 1
    endloop
  endfacet
  facet normal 0 0 1
    outer loop
      vertex 0.149186 0.0533684 1
      vertex 0.146767 -0.053117 1
      vertex 0.168138 0.0551326 1
    endloop
  endfacet
  facet normal 0 0 1
    outer loop
      vertex 0.146767 -0.053117 1
      vertex 0.163901 -0.0547684 1
      vertex 0.168138 0.0551326 1
    endloop
  endfacet
  facet normal 0 0 1
    outer loop
      vertex 0.168138 0.0551326 1
      vertex 0.163901 -0.0547684 1
      vertex 0.188409 0.0566554 1
    endloop
  endfacet
  facet normal 0 0 1
    outer loop
      vertex 0.163901 -0.0547684 1
      vertex 0.182197 -0.0562258 1
      vertex 0.188409 0.0566554 1
    endloop
  endfacet
  facet normal 0 0 1
    outer loop
      vertex 0.188409 0.0566554 1
      vertex 0.182197 -0.0562258 1
      vertex 0.209343 0.0578826 1
    endloop
  endfacet
  facet normal 0 0 1
    outer loop
      vertex 0.182197 -0.0562258 1
      vertex 0.202414 -0.0575126 1
      vertex 0.209343 0.0578826 1
    endloop
  endfacet
  facet normal 0 0 1
    outer loop
      vertex 0.209343 0.0578826 1
      vertex 0.202414 -0.0575126 1
      vertex 0.23238 0.0588769 1
    endloop
  endfacet
  facet normal 0 0 1
    outer loop
      vertex 0.202414 -0.0575126 1
      vertex 0.223116 -0.0585191 1
      vertex 0.23238 0.0588769 1
    endloop
  endfacet
  facet normal 0 0 1
    outer loop
      vertex 0.23238 0.0588769 1
      vertex 0.223116 -0.0585191 1
      vertex 0.256898 0.0595731 1
    endloop
  endfacet
  facet normal 0 0 1
    outer loop
      vertex 0.223116 -0.0585191 1
      vertex 0.245069 -0.059281 1
      vertex 0.256898 0.0595731 1
    endloop
  endfacet
  facet normal 0 0 1
    outer loop
      vertex 0.256898 0.0595731 1
      vertex 0.245069 -0.059281 1
      vertex 0.282976 0.0599515 1
    endloop
  endfacet
  facet normal 0 0 1
    outer loop
      vertex 0.245069 -0.059281 1
      vertex 0.268284 -0.0597817 1
      vertex 0.282976 0.0599515 1
    endloop
  endfacet
  facet normal 0 0 1
    outer loop
      vertex 0.282976 0.0599515 1
      vertex 0.268284 -0.0597817 1
      vertex 0.292795 -0.060006 1
    endloop
  endfacet
  facet normal 0 0 1
    outer loop
      vertex 0.131546 0.0513847 1
      vertex 0.115927 -0.0493088 1
      vertex 0.149186 0.0533684 1
    endloop
  endfacet
  facet normal 0 0 1
    outer loop
      vertex 0.115927 -0.0493088 1
      vertex 0.130779 -0.0512902 1
      vertex 0.149186 0.0533684 1
    endloop
  endfacet
  facet normal 0 0 1
    outer loop
      vertex 0.149186 0.0533684 1
      vertex 0.130779 -0.0512902 1
      vertex 0.146767 -0.053117 1
    endloop
  endfacet
  facet normal 0 0 1
    outer loop
      vertex 0.0253775 -0.0263267 1
      vertex 0.058059 0.037856 1
      vertex 0.0242349 -0.0257785 1
    endloop
  endfacet
  facet normal 0 0 1
    outer loop
      vertex 0.058059 0.037856 1
      vertex 0.0494157 0.0353692 1
      vertex 0.0242349 -0.0257785 1
    endloop
  endfacet
  facet normal 0 0 1
    outer loop
      vertex 0.0242349 -0.0257785 1
      vertex 0.0494157 0.0353692 1
      vertex 0.0208674 -0.0240654 1
    endloop
  endfacet
  facet normal 0 0 1
    outer loop
      vertex 0.0494157 0.0353692 1
      vertex 0.0416751 0.0328615 1
      vertex 0.0208674 -0.0240654 1
    endloop
  endfacet
  facet normal 0 0 1
    outer loop
      vertex 0.0208674 -0.0240654 1
      vertex 0.0416751 0.0328615 1
      vertex 0.018031 -0.02249 1
    endloop
  endfacet
  facet normal 0 0 1
    outer loop
      vertex 0.0117803 -0.0184153 1
      vertex 0.0135517 -0.0196748 1
      vertex 0.0416751 0.0328615 1
    endloop
  endfacet
  facet normal 0 0 1
    outer loop
      vertex 0.0135517 -0.0196748 1
      vertex 0.0156118 -0.0210271 1
      vertex 0.0416751 0.0328615 1
    endloop
  endfacet
  facet normal 0 0 1
    outer loop
      vertex 0.0416751 0.0328615 1
      vertex 0.0156118 -0.0210271 1
      vertex 0.018031 -0.02249 1
    endloop
  endfacet
  facet normal 0 0 1
    outer loop
      vertex 0.131546 0.0513847 1
      vertex 0.115194 0.0492032 1
      vertex 0.115927 -0.0493088 1
    endloop
  endfacet
  facet normal 0 0 1
    outer loop
      vertex 0.115194 0.0492032 1
      vertex 0.101611 0.0470973 1
      vertex 0.115927 -0.0493088 1
    endloop
  endfacet
  facet normal 0 0 1
    outer loop
      vertex 0.115927 -0.0493088 1
      vertex 0.101611 0.0470973 1
      vertex 0.102181 -0.0471916 1
    endloop
  endfacet
  facet normal 0 0 1
    outer loop
      vertex 0.101611 0.0470973 1
      vertex 0.0890688 0.0448743 1
      vertex 0.102181 -0.0471916 1
    endloop
  endfacet
  facet normal 0 0 1
    outer loop
      vertex 0.102181 -0.0471916 1
      vertex 0.0890688 0.0448743 1
      vertex 0.0895334 -0.044962 1
    endloop
  endfacet
  facet normal 0 0 1
    outer loop
      vertex 0.0890688 0.0448743 1
      vertex 0.0775583 0.0425557 1
      vertex 0.0895334 -0.044962 1
    endloop
  endfacet
  facet normal 0 0 1
    outer loop
      vertex 0.0895334 -0.044962 1
      vertex 0.0775583 0.0425557 1
      vertex 0.0779673 -0.0426433 1
    endloop
  endfacet
  facet normal 0 0 1
    outer loop
      vertex 0.0775583 0.0425557 1
      vertex 0.0676497 0.0403052 1
      vertex 0.0779673 -0.0426433 1
    endloop
  endfacet
  facet normal 0 0 1
    outer loop
      vertex 0.0489077 -0.0352134 1
      vertex 0.0574404 -0.0376875 1
      vertex 0.0676497 0.0403052 1
    endloop
  endfacet
  facet normal 0 0 1
    outer loop
      vertex 0.0574404 -0.0376875 1
      vertex 0.0669289 -0.040131 1
      vertex 0.0676497 0.0403052 1
    endloop
  endfacet
  facet normal 0 0 1
    outer loop
      vertex 0.0676497 0.0403052 1
      vertex 0.0669289 -0.040131 1
      vertex 0.0779673 -0.0426433 1
    endloop
  endfacet
  facet normal 0 0 1
    outer loop
      vertex 0.0347911 0.0303489 1
      vertex 0.00891038 -0.0161253 1
      vertex 0.0416751 0.0328615 1
    endloop
  endfacet
  facet normal 0 0 1
    outer loop
      vertex 0.00891038 -0.0161253 1
      vertex 0.0102429 -0.0172328 1
      vertex 0.0416751 0.0328615 1
    endloop
  endfacet
  facet normal 0 0 1
    outer loop
      vertex 0.0416751 0.0328615 1
      vertex 0.0102429 -0.0172328 1
      vertex 0.0117803 -0.0184153 1
    endloop
  endfacet
  facet normal 0 0 1
    outer loop
      vertex 0.0253775 -0.0263267 1
      vertex 0.0298262 -0.0283272 1
      vertex 0.058059 0.037856 1
    endloop
  endfacet
  facet normal 0 0 1
    outer loop
      vertex 0.0298262 -0.0283272 1
      vertex 0.0349811 -0.0304225 1
      vertex 0.058059 0.037856 1
    endloop
  endfacet
  facet normal 0 0 1
    outer loop
      vertex 0.058059 0.037856 1
      vertex 0.0349811 -0.0304225 1
      vertex 0.0676497 0.0403052 1
    endloop
  endfacet
  facet normal 0 0 1
    outer loop
      vertex 0.0349811 -0.0304225 1
      vertex 0.041255 -0.0327165 1
      vertex 0.0676497 0.0403052 1
    endloop
  endfacet
  facet normal 0 0 1
    outer loop
      vertex 0.0676497 0.0403052 1
      vertex 0.041255 -0.0327165 1
      vertex 0.0489077 -0.0352134 1
    endloop
  endfacet
  facet normal 0 0 1
    outer loop
      vertex 0.0347911 0.0303489 1
      vertex 0.0293166 0.0281079 1
      vertex 0.00891038 -0.0161253 1
    endloop
  endfacet
  facet normal 0 0 1
    outer loop
      vertex 0.0293166 0.0281079 1
      vertex 0.024519 0.0259163 1
      vertex 0.00891038 -0.0161253 1
    endloop
  endfacet
  facet normal 0 0 1
    outer loop
      vertex 0.00891038 -0.0161253 1
      vertex 0.024519 0.0259163 1
      vertex 0.0209167 0.0240917 1
    endloop
  endfacet
  facet normal 0 0 1
    outer loop
      vertex 0.00578352 -0.0131033 1
      vertex 0.00667205 -0.0140374 1
      vertex 0.0209167 0.0240917 1
    endloop
  endfacet
  facet normal 0 0 1
    outer loop
      vertex 0.00667205 -0.0140374 1
      vertex 0.00775285 -0.0150867 1
      vertex 0.0209167 0.0240917 1
    endloop
  endfacet
  facet normal 0 0 1
    outer loop
      vertex 0.0209167 0.0240917 1
      vertex 0.00775285 -0.0150867 1
      vertex 0.00891038 -0.0161253 1
    endloop
  endfacet
  facet normal 0 0 1
    outer loop
      vertex 0.0209167 0.0240917 1
      vertex 0.0179258 0.0224288 1
      vertex 0.00578352 -0.0131033 1
    endloop
  endfacet
  facet normal 0 0 1
    outer loop
      vertex 0.0179258 0.0224288 1
      vertex 0.0154207 0.0209061 1
      vertex 0.00578352 -0.0131033 1
    endloop
  endfacet
  facet normal 0 0 1
    outer loop
      vertex 0.00578352 -0.0131033 1
      vertex 0.0154207 0.0209061 1
      vertex 0.00499946 -0.0122125 1
    endloop
  endfacet
  facet normal 0 0 1
    outer loop
      vertex 0.0154207 0.0209061 1
      vertex 0.0132989 0.019501 1
      vertex 0.00499946 -0.0122125 1
    endloop
  endfacet
  facet normal 0 0 1
    outer loop
      vertex 0.0132989 0.019501 1
      vertex 0.0115017 0.0182078 1
      vertex 0.00499946 -0.0122125 1
    endloop
  endfacet
  facet normal 0 0 1
    outer loop
      vertex 0.0115017 0.0182078 1
      vertex 0.00995978 0.0170045 1
      vertex 0.00499946 -0.0122125 1
    endloop
  endfacet
  facet normal 0 0 1
    outer loop
      vertex 0.00499946 -0.0122125 1
      vertex 0.00995978 0.0170045 1
      vertex 0.0043065 -0.0113607 1
    endloop
  endfacet
  facet normal 0 0 1
    outer loop
      vertex 0.00995978 0.0170045 1
      vertex 0.00862728 0.0158785 1
      vertex 0.0043065 -0.0113607 1
    endloop
  endfacet
  facet normal 0 0 1
    outer loop
      vertex 0.0043065 -0.0113607 1
      vertex 0.00862728 0.0158785 1
      vertex 0.00739551 0.0147492 1
    endloop
  endfacet
  facet normal 0 0 1
    outer loop
      vertex 0.00739551 0.0147492 1
      vertex 0.00640649 0.0137657 1
      vertex 0.0043065 -0.0113607 1
    endloop
  endfacet
  facet normal 0 0 1
    outer loop
      vertex 0.00640649 0.0137657 1
      vertex 0.00554034 0.0128343 1
      vertex 0.0043065 -0.0113607 1
    endloop
  endfacet
  facet normal 0 0 1
    outer loop
      vertex 0.0043065 -0.0113607 1
      vertex 0.00554034 0.0128343 1
      vertex 0.0047787 0.0119483 1
    endloop
  endfacet
  facet normal 0 0 1
    outer loop
      vertex 0.0047787 0.0119483 1
      vertex 0.00410848 0.011104 1
      vertex 0.0043065 -0.0113607 1
    endloop
  endfacet
  facet normal 0 0 1
    outer loop
      vertex 0.00410848 0.011104 1
      vertex 0.0035177 0.0102969 1
      vertex 0.0043065 -0.0113607 1
    endloop
  endfacet
  facet normal 0 0 1
    outer loop
      vertex 0.0043065 -0.0113607 1
      vertex 0.0035177 0.0102969 1
      vertex 0.00369323 -0.0105437 1
    endloop
  endfacet
  facet normal 0 0 1
    outer loop
      vertex 0.0035177 0.0102969 1
      vertex 0.00299628 0.00952261 1
      vertex 0.00369323 -0.0105437 1
    endloop
  endfacet
  facet normal 0 0 1
    outer loop
      vertex 0.00369323 -0.0105437 1
      vertex 0.00299628 0.00952261 1
      vertex 0.00315005 -0.00975786 1
    endloop
  endfacet
  facet normal 0 0 1
    outer loop
      vertex 0.00299628 0.00952261 1
      vertex 0.00266882 -0.00899953 1
      vertex 0.00315005 -0.00975786 1
    endloop
  endfacet
  facet normal 0 0 1
    outer loop
      vertex 0.00152631 -0.00684339 1
      vertex 0.0018616 -0.00754437 1
      vertex 0.00299628 0.00952261 1
    endloop
  endfacet
  facet normal 0 0 1
    outer loop
      vertex 0.0018616 -0.00754437 1
      vertex 0.00224114 -0.00826268 1
      vertex 0.00299628 0.00952261 1
    endloop
  endfacet
  facet normal 0 0 1
    outer loop
      vertex 0.00299628 0.00952261 1
      vertex 0.00224114 -0.00826268 1
      vertex 0.00266882 -0.00899953 1
    endloop
  endfacet
  facet normal 0 0 1
    outer loop
      vertex 0.000752964 -0.00483142 1
      vertex 0.000974884 -0.00548828 1
      vertex 0.00299628 0.00952261 1
    endloop
  endfacet
  facet normal 0 0 1
    outer loop
      vertex 0.000974884 -0.00548828 1
      vertex 0.00123177 -0.00615848 1
      vertex 0.00299628 0.00952261 1
    endloop
  endfacet
  facet normal 0 0 1
    outer loop
      vertex 0.00299628 0.00952261 1
      vertex 0.00123177 -0.00615848 1
      vertex 0.00152631 -0.00684339 1
    endloop
  endfacet
  facet normal 0 0 1
    outer loop
      vertex 2.4215e-6 -0.000274639 1
      vertex 2.71529e-5 -0.000920419 1
      vertex 0.00253583 0.0087775 1
    endloop
  endfacet
  facet normal 0 0 1
    outer loop
      vertex 2.71529e-5 -0.000920419 1
      vertex 0.00299628 0.00952261 1
      vertex 0.00253583 0.0087775 1
    endloop
  endfacet
  facet normal 0 0 1
    outer loop
      vertex 2.71529e-5 -0.000920419 1
      vertex 7.87515e-5 -0.0015682 1
      vertex 0.00299628 0.00952261 1
    endloop
  endfacet
  facet normal 0 0 1
    outer loop
      vertex 7.87515e-5 -0.0015682 1
      vertex 0.000157621 -0.00221874 1
      vertex 0.00299628 0.00952261 1
    endloop
  endfacet
  facet normal 0 0 1
    outer loop
      vertex 0.00299628 0.00952261 1
      vertex 0.000157621 -0.00221874 1
      vertex 0.000264136 -0.00287125 1
    endloop
  endfacet
  facet normal 0 0 1
    outer loop
      vertex 0.000264136 -0.00287125 1
      vertex 0.000398656 -0.00352484 1
      vertex 0.00299628 0.00952261 1
    endloop
  endfacet
  facet normal 0 0 1
    outer loop
      vertex 0.000398656 -0.00352484 1
      vertex 0.000561515 -0.00417856 1
      vertex 0.00299628 0.00952261 1
    endloop
  endfacet
  facet normal 0 0 1
    outer loop
      vertex 0.00299628 0.00952261 1
      vertex 0.000561515 -0.00417856 1
      vertex 0.000752964 -0.00483142 1
    endloop
  endfacet
  facet normal 0 0 1
    outer loop
      vertex 0.000431771 0.00366754 1
      vertex 0.00028939 0.00300503 1
      vertex 0.00253583 0.0087775 1
    endloop
  endfacet
  facet normal 0 0 1
    outer loop
      vertex 0.00028939 0.00300503 1
      vertex 0.000175821 0.00234326 1
      vertex 0.00253583 0.0087775 1
    endloop
  endfacet
  facet normal 0 0 1
    outer loop
      vertex 0.00253583 0.0087775 1
      vertex 0.000175821 0.00234326 1
      vertex 9.07102e-5 0.00168313 1
    endloop
  endfacet
  facet normal 0 0 1
    outer loop
      vertex 0.001065 0.00573272 1
      vertex 0.000815963 0.00502701 1
      vertex 0.00253583 0.0087775 1
    endloop
  endfacet
  facet normal 0 0 1
    outer loop
      vertex 0.000815963 0.00502701 1
      vertex 0.000605942 0.00433922 1
      vertex 0.00253583 0.0087775 1
    endloop
  endfacet
  facet normal 0 0 1
    outer loop
      vertex 0.00253583 0.0087775 1
      vertex 0.000605942 0.00433922 1
      vertex 0.000431771 0.00366754 1
    endloop
  endfacet
  facet normal 0 0 1
    outer loop
      vertex 9.07102e-5 0.00168313 1
      vertex 3.37049e-5 0.00102557 1
      vertex 0.00253583 0.0087775 1
    endloop
  endfacet
  facet normal 0 0 1
    outer loop
      vertex 3.37049e-5 0.00102557 1
      vertex 4.42882e-6 0.000371474 1
      vertex 0.00253583 0.0087775 1
    endloop
  endfacet
  facet normal 0 0 1
    outer loop
      vertex 0.00253583 0.0087775 1
      vertex 4.42882e-6 0.000371474 1
      vertex 2.4215e-6 -0.000274639 1
    endloop
  endfacet
  facet normal 0 0 1
    outer loop
      vertex 0.00208585 0.0079771 1
      vertex 0.00169526 0.00720559 1
      vertex 0.00253583 0.0087775 1
    endloop
  endfacet
  facet normal 0 0 1
    outer loop
      vertex 0.00169526 0.00720559 1
      vertex 0.0013567 0.00645829 1
      vertex 0.00253583 0.0087775 1
    endloop
  endfacet
  facet normal 0 0 1
    outer loop
      vertex 0.00253583 0.0087775 1
      vertex 0.0013567 0.00645829 1
      vertex 0.001065 0.00573272 1
    endloop
  endfacet
  facet normal 0.138961 0.990298 0
    outer loop
      vertex 1 0.00126 1
      vertex 1.00898 3.92048e-16 1
      vertex 1 0.00126 -1
    endloop
  endfacet
  facet normal 0.138961 0.990298 0
    outer loop
      vertex 1.00898 3.92048e-16 1
      vertex 1.00898 3.92048e-16 -1
      vertex 1 0.00126 -1
    endloop
  endfacet
  facet normal 0.137467 0.990506 0
    outer loop
      vertex 1 0.00126 1
      vertex 1 0.00126 -1
      vertex 0.982255 0.0037228 -1
    endloop
  endfacet
  facet normal 0.137467 0.990506 0
    outer loop
      vertex 1 0.00126 1
      vertex 0.982255 0.0037228 -1
      vertex 0.982255 0.0037228 1
    endloop
  endfacet
  facet normal 0.132972 0.99112 0
    outer loop
      vertex 0.982255 0.0037228 -1
      vertex 0.944035 0.00885045 -1
      vertex 0.982255 0.0037228 1
    endloop
  endfacet
  facet normal 0.132972 0.99112 0
    outer loop
      vertex 0.982255 0.0037228 1
      vertex 0.944035 0.00885045 -1
      vertex 0.944035 0.00885045 1
    endloop
  endfacet
  facet normal 0.126843 0.991923 0
    outer loop
      vertex 0.944035 0.00885045 -1
      vertex 0.90133 0.0143114 -1
      vertex 0.944035 0.00885045 1
    endloop
  endfacet
  facet normal 0.126843 0.991923 0
    outer loop
      vertex 0.944035 0.00885045 1
      vertex 0.90133 0.0143114 -1
      vertex 0.90133 0.0143114 1
    endloop
  endfacet
  facet normal 0.120636 0.992697 0
    outer loop
      vertex 0.90133 0.0143114 -1
      vertex 0.85658 0.0197495 -1
      vertex 0.90133 0.0143114 1
    endloop
  endfacet
  facet normal 0.120636 0.992697 0
    outer loop
      vertex 0.90133 0.0143114 1
      vertex 0.85658 0.0197495 -1
      vertex 0.85658 0.0197495 1
    endloop
  endfacet
  facet normal 0.114186 0.993459 0
    outer loop
      vertex 0.85658 0.0197495 -1
      vertex 0.80567 0.0256011 -1
      vertex 0.85658 0.0197495 1
    endloop
  endfacet
  facet normal 0.114186 0.993459 0
    outer loop
      vertex 0.85658 0.0197495 1
      vertex 0.80567 0.0256011 -1
      vertex 0.80567 0.0256011 1
    endloop
  endfacet
  facet normal 0.107485 0.994207 0
    outer loop
      vertex 0.80567 0.0256011 -1
      vertex 0.754471 0.0311362 -1
      vertex 0.80567 0.0256011 1
    endloop
  endfacet
  facet normal 0.107485 0.994207 0
    outer loop
      vertex 0.80567 0.0256011 1
      vertex 0.754471 0.0311362 -1
      vertex 0.754471 0.0311362 1
    endloop
  endfacet
  facet normal 0.100755 0.994911 0
    outer loop
      vertex 0.754471 0.0311362 -1
      vertex 0.703602 0.0362877 -1
      vertex 0.754471 0.0311362 1
    endloop
  endfacet
  facet normal 0.100755 0.994911 0
    outer loop
      vertex 0.754471 0.0311362 1
      vertex 0.703602 0.0362877 -1
      vertex 0.703602 0.0362877 1
    endloop
  endfacet
  facet normal 0.0942055 0.995553 0
    outer loop
      vertex 0.703602 0.0362877 -1
      vertex 0.658981 0.0405101 -1
      vertex 0.703602 0.0362877 1
    endloop
  endfacet
  facet normal 0.0942055 0.995553 0
    outer loop
      vertex 0.703602 0.0362877 1
      vertex 0.658981 0.0405101 -1
      vertex 0.658981 0.0405101 1
    endloop
  endfacet
  facet normal 0.087796 0.996138 0
    outer loop
      vertex 0.658981 0.0405101 -1
      vertex 0.616032 0.0442955 -1
      vertex 0.658981 0.0405101 1
    endloop
  endfacet
  facet normal 0.087796 0.996138 0
    outer loop
      vertex 0.658981 0.0405101 1
      vertex 0.616032 0.0442955 -1
      vertex 0.616032 0.0442955 1
    endloop
  endfacet
  facet normal 0.0811068 0.996705 0
    outer loop
      vertex 0.616032 0.0442955 -1
      vertex 0.575006 0.047634 -1
      vertex 0.616032 0.0442955 1
    endloop
  endfacet
  facet normal 0.0811068 0.996705 0
    outer loop
      vertex 0.616032 0.0442955 1
      vertex 0.575006 0.047634 -1
      vertex 0.575006 0.047634 1
    endloop
  endfacet
  facet normal 0.0740782 0.997252 0
    outer loop
      vertex 0.575006 0.047634 -1
      vertex 0.535989 0.0505323 -1
      vertex 0.575006 0.047634 1
    endloop
  endfacet
  facet normal 0.0740782 0.997252 0
    outer loop
      vertex 0.575006 0.047634 1
      vertex 0.535989 0.0505323 -1
      vertex 0.535989 0.0505323 1
    endloop
  endfacet
  facet normal 0.0666574 0.997776 0
    outer loop
      vertex 0.535989 0.0505323 -1
      vertex 0.499008 0.0530028 -1
      vertex 0.535989 0.0505323 1
    endloop
  endfacet
  facet normal 0.0666574 0.997776 0
    outer loop
      vertex 0.535989 0.0505323 1
      vertex 0.499008 0.0530028 -1
      vertex 0.499008 0.0530028 1
    endloop
  endfacet
  facet normal 0.0590493 0.998255 0
    outer loop
      vertex 0.499008 0.0530028 -1
      vertex 0.466081 0.0549505 -1
      vertex 0.499008 0.0530028 1
    endloop
  endfacet
  facet normal 0.0590493 0.998255 0
    outer loop
      vertex 0.499008 0.0530028 1
      vertex 0.466081 0.0549505 -1
      vertex 0.466081 0.0549505 1
    endloop
  endfacet
  facet normal 0.0510094 0.998698 0
    outer loop
      vertex 0.466081 0.0549505 -1
      vertex 0.432819 0.0566494 -1
      vertex 0.466081 0.0549505 1
    endloop
  endfacet
  facet normal 0.0510094 0.998698 0
    outer loop
      vertex 0.466081 0.0549505 1
      vertex 0.432819 0.0566494 -1
      vertex 0.432819 0.0566494 1
    endloop
  endfacet
  facet normal 0.0422314 0.999108 0
    outer loop
      vertex 0.432819 0.0566494 -1
      vertex 0.401341 0.0579799 -1
      vertex 0.432819 0.0566494 1
    endloop
  endfacet
  facet normal 0.0422314 0.999108 0
    outer loop
      vertex 0.432819 0.0566494 1
      vertex 0.401341 0.0579799 -1
      vertex 0.401341 0.0579799 1
    endloop
  endfacet
  facet normal 0.0329349 0.999457 0
    outer loop
      vertex 0.401341 0.0579799 -1
      vertex 0.371519 0.0589627 -1
      vertex 0.401341 0.0579799 1
    endloop
  endfacet
  facet normal 0.0329349 0.999457 0
    outer loop
      vertex 0.401341 0.0579799 1
      vertex 0.371519 0.0589627 -1
      vertex 0.371519 0.0589627 1
    endloop
  endfacet
  facet normal 0.0225431 0.999746 0
    outer loop
      vertex 0.371519 0.0589627 -1
      vertex 0.340194 0.059669 -1
      vertex 0.371519 0.0589627 1
    endloop
  endfacet
  facet normal 0.0225431 0.999746 0
    outer loop
      vertex 0.371519 0.0589627 1
      vertex 0.340194 0.059669 -1
      vertex 0.340194 0.059669 1
    endloop
  endfacet
  facet normal 0.0109161 0.99994 0
    outer loop
      vertex 0.340194 0.059669 -1
      vertex 0.310701 0.059991 -1
      vertex 0.340194 0.059669 1
    endloop
  endfacet
  facet normal 0.0109161 0.99994 0
    outer loop
      vertex 0.340194 0.059669 1
      vertex 0.310701 0.059991 -1
      vertex 0.310701 0.059991 1
    endloop
  endfacet
  facet normal -0.00142481 0.999999 0
    outer loop
      vertex 0.310701 0.059991 -1
      vertex 0.282976 0.0599515 -1
      vertex 0.310701 0.059991 1
    endloop
  endfacet
  facet normal -0.00142481 0.999999 0
    outer loop
      vertex 0.310701 0.059991 1
      vertex 0.282976 0.0599515 -1
      vertex 0.282976 0.0599515 1
    endloop
  endfacet
  facet normal -0.0145054 0.999895 0
    outer loop
      vertex 0.282976 0.0599515 -1
      vertex 0.256898 0.0595731 -1
      vertex 0.282976 0.0599515 1
    endloop
  endfacet
  facet normal -0.0145054 0.999895 0
    outer loop
      vertex 0.282976 0.0599515 1
      vertex 0.256898 0.0595731 -1
      vertex 0.256898 0.0595731 1
    endloop
  endfacet
  facet normal -0.0283863 0.999597 0
    outer loop
      vertex 0.256898 0.0595731 -1
      vertex 0.23238 0.0588769 -1
      vertex 0.256898 0.0595731 1
    endloop
  endfacet
  facet normal -0.0283863 0.999597 0
    outer loop
      vertex 0.256898 0.0595731 1
      vertex 0.23238 0.0588769 -1
      vertex 0.23238 0.0588769 1
    endloop
  endfacet
  facet normal -0.043118 0.99907 0
    outer loop
      vertex 0.23238 0.0588769 -1
      vertex 0.209343 0.0578826 -1
      vertex 0.23238 0.0588769 1
    endloop
  endfacet
  facet normal -0.043118 0.99907 0
    outer loop
      vertex 0.23238 0.0588769 1
      vertex 0.209343 0.0578826 -1
      vertex 0.209343 0.0578826 1
    endloop
  endfacet
  facet normal -0.0585241 0.998286 0
    outer loop
      vertex 0.209343 0.0578826 -1
      vertex 0.188409 0.0566554 -1
      vertex 0.209343 0.0578826 1
    endloop
  endfacet
  facet normal -0.0585241 0.998286 0
    outer loop
      vertex 0.209343 0.0578826 1
      vertex 0.188409 0.0566554 -1
      vertex 0.188409 0.0566554 1
    endloop
  endfacet
  facet normal -0.0749103 0.99719 0
    outer loop
      vertex 0.188409 0.0566554 -1
      vertex 0.168138 0.0551326 -1
      vertex 0.188409 0.0566554 1
    endloop
  endfacet
  facet normal -0.0749103 0.99719 0
    outer loop
      vertex 0.188409 0.0566554 1
      vertex 0.168138 0.0551326 -1
      vertex 0.168138 0.0551326 1
    endloop
  endfacet
  facet normal -0.0926875 0.995695 0
    outer loop
      vertex 0.168138 0.0551326 -1
      vertex 0.149186 0.0533684 -1
      vertex 0.168138 0.0551326 1
    endloop
  endfacet
  facet normal -0.0926875 0.995695 0
    outer loop
      vertex 0.168138 0.0551326 1
      vertex 0.149186 0.0533684 -1
      vertex 0.149186 0.0533684 1
    endloop
  endfacet
  facet normal -0.111749 0.993736 0
    outer loop
      vertex 0.149186 0.0533684 -1
      vertex 0.131546 0.0513847 -1
      vertex 0.149186 0.0533684 1
    endloop
  endfacet
  facet normal -0.111749 0.993736 0
    outer loop
      vertex 0.149186 0.0533684 1
      vertex 0.131546 0.0513847 -1
      vertex 0.131546 0.0513847 1
    endloop
  endfacet
  facet normal -0.132241 0.991218 0
    outer loop
      vertex 0.131546 0.0513847 -1
      vertex 0.115194 0.0492032 -1
      vertex 0.131546 0.0513847 1
    endloop
  endfacet
  facet normal -0.132241 0.991218 0
    outer loop
      vertex 0.131546 0.0513847 1
      vertex 0.115194 0.0492032 -1
      vertex 0.115194 0.0492032 1
    endloop
  endfacet
  facet normal -0.153206 0.988194 0
    outer loop
      vertex 0.115194 0.0492032 -1
      vertex 0.101611 0.0470973 -1
      vertex 0.115194 0.0492032 1
    endloop
  endfacet
  facet normal -0.153206 0.988194 0
    outer loop
      vertex 0.115194 0.0492032 1
      vertex 0.101611 0.0470973 -1
      vertex 0.101611 0.0470973 1
    endloop
  endfacet
  facet normal -0.174523 0.984653 0
    outer loop
      vertex 0.101611 0.0470973 -1
      vertex 0.0890688 0.0448743 -1
      vertex 0.101611 0.0470973 1
    endloop
  endfacet
  facet normal -0.174523 0.984653 0
    outer loop
      vertex 0.101611 0.0470973 1
      vertex 0.0890688 0.0448743 -1
      vertex 0.0890688 0.0448743 1
    endloop
  endfacet
  facet normal -0.197465 0.98031 0
    outer loop
      vertex 0.0890688 0.0448743 -1
      vertex 0.0775583 0.0425557 -1
      vertex 0.0890688 0.0448743 1
    endloop
  endfacet
  facet normal -0.197465 0.98031 0
    outer loop
      vertex 0.0890688 0.0448743 1
      vertex 0.0775583 0.0425557 -1
      vertex 0.0775583 0.0425557 1
    endloop
  endfacet
  facet normal -0.221491 0.975162 0
    outer loop
      vertex 0.0775583 0.0425557 -1
      vertex 0.0676497 0.0403052 -1
      vertex 0.0775583 0.0425557 1
    endloop
  endfacet
  facet normal -0.221491 0.975162 0
    outer loop
      vertex 0.0775583 0.0425557 1
      vertex 0.0676497 0.0403052 -1
      vertex 0.0676497 0.0403052 1
    endloop
  endfacet
  facet normal -0.247432 0.968905 0
    outer loop
      vertex 0.0676497 0.0403052 -1
      vertex 0.058059 0.037856 -1
      vertex 0.0676497 0.0403052 1
    endloop
  endfacet
  facet normal -0.247432 0.968905 0
    outer loop
      vertex 0.0676497 0.0403052 1
      vertex 0.058059 0.037856 -1
      vertex 0.058059 0.037856 1
    endloop
  endfacet
  facet normal -0.276497 0.961015 0
    outer loop
      vertex 0.058059 0.037856 -1
      vertex 0.0494157 0.0353692 -1
      vertex 0.058059 0.037856 1
    endloop
  endfacet
  facet normal -0.276497 0.961015 0
    outer loop
      vertex 0.058059 0.037856 1
      vertex 0.0494157 0.0353692 -1
      vertex 0.0494157 0.0353692 1
    endloop
  endfacet
  facet normal -0.30819 0.951325 0
    outer loop
      vertex 0.0494157 0.0353692 -1
      vertex 0.0416751 0.0328615 -1
      vertex 0.0494157 0.0353692 1
    endloop
  endfacet
  facet normal -0.30819 0.951325 0
    outer loop
      vertex 0.0494157 0.0353692 1
      vertex 0.0416751 0.0328615 -1
      vertex 0.0416751 0.0328615 1
    endloop
  endfacet
  facet normal -0.342868 0.939384 0
    outer loop
      vertex 0.0416751 0.0328615 -1
      vertex 0.0347911 0.0303489 -1
      vertex 0.0416751 0.0328615 1
    endloop
  endfacet
  facet normal -0.342868 0.939384 0
    outer loop
      vertex 0.0416751 0.0328615 1
      vertex 0.0347911 0.0303489 -1
      vertex 0.0347911 0.0303489 1
    endloop
  endfacet
  facet normal -0.37884 0.925462 0
    outer loop
      vertex 0.0347911 0.0303489 -1
      vertex 0.0293166 0.0281079 -1
      vertex 0.0347911 0.0303489 1
    endloop
  endfacet
  facet normal -0.37884 0.925462 0
    outer loop
      vertex 0.0347911 0.0303489 1
      vertex 0.0293166 0.0281079 -1
      vertex 0.0293166 0.0281079 1
    endloop
  endfacet
  facet normal -0.415518 0.909585 0
    outer loop
      vertex 0.0293166 0.0281079 -1
      vertex 0.024519 0.0259163 -1
      vertex 0.0293166 0.0281079 1
    endloop
  endfacet
  facet normal -0.415518 0.909585 0
    outer loop
      vertex 0.0293166 0.0281079 1
      vertex 0.024519 0.0259163 -1
      vertex 0.024519 0.0259163 1
    endloop
  endfacet
  facet normal -0.451857 0.89209 0
    outer loop
      vertex 0.024519 0.0259163 -1
      vertex 0.0209167 0.0240917 -1
      vertex 0.024519 0.0259163 1
    endloop
  endfacet
  facet normal -0.451857 0.89209 0
    outer loop
      vertex 0.024519 0.0259163 1
      vertex 0.0209167 0.0240917 -1
      vertex 0.0209167 0.0240917 1
    endloop
  endfacet
  facet normal -0.48592 0.874003 0
    outer loop
      vertex 0.0209167 0.0240917 -1
      vertex 0.0179258 0.0224288 -1
      vertex 0.0209167 0.0240917 1
    endloop
  endfacet
  facet normal -0.48592 0.874003 0
    outer loop
      vertex 0.0209167 0.0240917 1
      vertex 0.0179258 0.0224288 -1
      vertex 0.0179258 0.0224288 1
    endloop
  endfacet
  facet normal -0.519409 0.854526 0
    outer loop
      vertex 0.0179258 0.0224288 -1
      vertex 0.0154207 0.0209061 -1
      vertex 0.0179258 0.0224288 1
    endloop
  endfacet
  facet normal -0.519409 0.854526 0
    outer loop
      vertex 0.0179258 0.0224288 1
      vertex 0.0154207 0.0209061 -1
      vertex 0.0154207 0.0209061 1
    endloop
  endfacet
  facet normal -0.552135 0.833754 0
    outer loop
      vertex 0.0154207 0.0209061 -1
      vertex 0.0132989 0.019501 -1
      vertex 0.0154207 0.0209061 1
    endloop
  endfacet
  facet normal -0.552135 0.833754 0
    outer loop
      vertex 0.0154207 0.0209061 1
      vertex 0.0132989 0.019501 -1
      vertex 0.0132989 0.019501 1
    endloop
  endfacet
  facet normal -0.584085 0.811692 0
    outer loop
      vertex 0.0132989 0.019501 -1
      vertex 0.0115017 0.0182078 -1
      vertex 0.0132989 0.019501 1
    endloop
  endfacet
  facet normal -0.584085 0.811692 0
    outer loop
      vertex 0.0132989 0.019501 1
      vertex 0.0115017 0.0182078 -1
      vertex 0.0115017 0.0182078 1
    endloop
  endfacet
  facet normal -0.615223 0.788353 0
    outer loop
      vertex 0.0115017 0.0182078 -1
      vertex 0.00995978 0.0170045 -1
      vertex 0.0115017 0.0182078 1
    endloop
  endfacet
  facet normal -0.615223 0.788353 0
    outer loop
      vertex 0.0115017 0.0182078 1
      vertex 0.00995978 0.0170045 -1
      vertex 0.00995978 0.0170045 1
    endloop
  endfacet
  facet normal -0.645445 0.763807 0
    outer loop
      vertex 0.00995978 0.0170045 -1
      vertex 0.00862728 0.0158785 -1
      vertex 0.00995978 0.0170045 1
    endloop
  endfacet
  facet normal -0.645445 0.763807 0
    outer loop
      vertex 0.00995978 0.0170045 1
      vertex 0.00862728 0.0158785 -1
      vertex 0.00862728 0.0158785 1
    endloop
  endfacet
  facet normal -0.675774 0.737109 0
    outer loop
      vertex 0.00862728 0.0158785 -1
      vertex 0.00739551 0.0147492 -1
      vertex 0.00862728 0.0158785 1
    endloop
  endfacet
  facet normal -0.675774 0.737109 0
    outer loop
      vertex 0.00862728 0.0158785 1
      vertex 0.00739551 0.0147492 -1
      vertex 0.00739551 0.0147492 1
    endloop
  endfacet
  facet normal -0.705119 0.709089 0
    outer loop
      vertex 0.00739551 0.0147492 -1
      vertex 0.00640649 0.0137657 -1
      vertex 0.00739551 0.0147492 1
    endloop
  endfacet
  facet normal -0.705119 0.709089 0
    outer loop
      vertex 0.00739551 0.0147492 1
      vertex 0.00640649 0.0137657 -1
      vertex 0.00640649 0.0137657 1
    endloop
  endfacet
  facet normal -0.732273 0.681011 0
    outer loop
      vertex 0.00640649 0.0137657 -1
      vertex 0.00554034 0.0128343 -1
      vertex 0.00640649 0.0137657 1
    endloop
  endfacet
  facet normal -0.732273 0.681011 0
    outer loop
      vertex 0.00640649 0.0137657 1
      vertex 0.00554034 0.0128343 -1
      vertex 0.00554034 0.0128343 1
    endloop
  endfacet
  facet normal -0.758324 0.651878 0
    outer loop
      vertex 0.00554034 0.0128343 -1
      vertex 0.0047787 0.0119483 -1
      vertex 0.00554034 0.0128343 1
    endloop
  endfacet
  facet normal -0.758324 0.651878 0
    outer loop
      vertex 0.00554034 0.0128343 1
      vertex 0.0047787 0.0119483 -1
      vertex 0.0047787 0.0119483 1
    endloop
  endfacet
  facet normal -0.783229 0.621734 0
    outer loop
      vertex 0.0047787 0.0119483 -1
      vertex 0.00410848 0.011104 -1
      vertex 0.0047787 0.0119483 1
    endloop
  endfacet
  facet normal -0.783229 0.621734 0
    outer loop
      vertex 0.0047787 0.0119483 1
      vertex 0.00410848 0.011104 -1
      vertex 0.00410848 0.011104 1
    endloop
  endfacet
  facet normal -0.806949 0.590621 0
    outer loop
      vertex 0.00410848 0.011104 -1
      vertex 0.0035177 0.0102969 -1
      vertex 0.00410848 0.011104 1
    endloop
  endfacet
  facet normal -0.806949 0.590621 0
    outer loop
      vertex 0.00410848 0.011104 1
      vertex 0.0035177 0.0102969 -1
      vertex 0.0035177 0.0102969 1
    endloop
  endfacet
  facet normal -0.829445 0.558589 0
    outer loop
      vertex 0.0035177 0.0102969 -1
      vertex 0.00299628 0.00952261 -1
      vertex 0.0035177 0.0102969 1
    endloop
  endfacet
  facet normal -0.829445 0.558589 0
    outer loop
      vertex 0.0035177 0.0102969 1
      vertex 0.00299628 0.00952261 -1
      vertex 0.00299628 0.00952261 1
    endloop
  endfacet
  facet normal -0.850678 0.525687 0
    outer loop
      vertex 0.00299628 0.00952261 -1
      vertex 0.00253583 0.0087775 -1
      vertex 0.00299628 0.00952261 1
    endloop
  endfacet
  facet normal -0.850678 0.525687 0
    outer loop
      vertex 0.00299628 0.00952261 1
      vertex 0.00253583 0.0087775 -1
      vertex 0.00253583 0.0087775 1
    endloop
  endfacet
  facet normal -0.871692 0.490054 0
    outer loop
      vertex 0.00253583 0.0087775 -1
      vertex 0.00208585 0.0079771 -1
      vertex 0.00253583 0.0087775 1
    endloop
  endfacet
  facet normal -0.871692 0.490054 0
    outer loop
      vertex 0.00253583 0.0087775 1
      vertex 0.00208585 0.0079771 -1
      vertex 0.00208585 0.0079771 1
    endloop
  endfacet
  facet normal -0.892177 0.451685 0
    outer loop
      vertex 0.00208585 0.0079771 -1
      vertex 0.00169526 0.00720559 -1
      vertex 0.00208585 0.0079771 1
    endloop
  endfacet
  facet normal -0.892177 0.451685 0
    outer loop
      vertex 0.00208585 0.0079771 1
      vertex 0.00169526 0.00720559 -1
      vertex 0.00169526 0.00720559 1
    endloop
  endfacet
  facet normal -0.910881 0.41267 0
    outer loop
      vertex 0.00169526 0.00720559 -1
      vertex 0.0013567 0.00645829 -1
      vertex 0.00169526 0.00720559 1
    endloop
  endfacet
  facet normal -0.910881 0.41267 0
    outer loop
      vertex 0.00169526 0.00720559 1
      vertex 0.0013567 0.00645829 -1
      vertex 0.0013567 0.00645829 1
    endloop
  endfacet
  facet normal -0.927827 0.373011 0
    outer loop
      vertex 0.0013567 0.00645829 -1
      vertex 0.001065 0.00573272 -1
      vertex 0.0013567 0.00645829 1
    endloop
  endfacet
  facet normal -0.927827 0.373011 0
    outer loop
      vertex 0.0013567 0.00645829 1
      vertex 0.001065 0.00573272 -1
      vertex 0.001065 0.00573272 1
    endloop
  endfacet
  facet normal -0.943006 0.332775 0
    outer loop
      vertex 0.001065 0.00573272 -1
      vertex 0.000815963 0.00502701 -1
      vertex 0.001065 0.00573272 1
    endloop
  endfacet
  facet normal -0.943006 0.332775 0
    outer loop
      vertex 0.001065 0.00573272 1
      vertex 0.000815963 0.00502701 -1
      vertex 0.000815963 0.00502701 1
    endloop
  endfacet
  facet normal -0.956404 0.292046 0
    outer loop
      vertex 0.000815963 0.00502701 -1
      vertex 0.000605942 0.00433922 -1
      vertex 0.000815963 0.00502701 1
    endloop
  endfacet
  facet normal -0.956404 0.292046 0
    outer loop
      vertex 0.000815963 0.00502701 1
      vertex 0.000605942 0.00433922 -1
      vertex 0.000605942 0.00433922 1
    endloop
  endfacet
  facet normal -0.967986 0.251006 0
    outer loop
      vertex 0.000605942 0.00433922 -1
      vertex 0.000431771 0.00366754 -1
      vertex 0.000605942 0.00433922 1
    endloop
  endfacet
  facet normal -0.967986 0.251006 0
    outer loop
      vertex 0.000605942 0.00433922 1
      vertex 0.000431771 0.00366754 -1
      vertex 0.000431771 0.00366754 1
    endloop
  endfacet
  facet normal -0.977677 0.210113 0
    outer loop
      vertex 0.000431771 0.00366754 -1
      vertex 0.00028939 0.00300503 -1
      vertex 0.000431771 0.00366754 1
    endloop
  endfacet
  facet normal -0.977677 0.210113 0
    outer loop
      vertex 0.000431771 0.00366754 1
      vertex 0.00028939 0.00300503 -1
      vertex 0.00028939 0.00300503 1
    endloop
  endfacet
  facet normal -0.985592 0.169142 0
    outer loop
      vertex 0.00028939 0.00300503 -1
      vertex 0.000175821 0.00234326 -1
      vertex 0.00028939 0.00300503 1
    endloop
  endfacet
  facet normal -0.985592 0.169142 0
    outer loop
      vertex 0.00028939 0.00300503 1
      vertex 0.000175821 0.00234326 -1
      vertex 0.000175821 0.00234326 1
    endloop
  endfacet
  facet normal -0.991791 0.127871 0
    outer loop
      vertex 0.000175821 0.00234326 -1
      vertex 9.07102e-5 0.00168313 -1
      vertex 0.000175821 0.00234326 1
    endloop
  endfacet
  facet normal -0.991791 0.127871 0
    outer loop
      vertex 0.000175821 0.00234326 1
      vertex 9.07102e-5 0.00168313 -1
      vertex 9.07102e-5 0.00168313 1
    endloop
  endfacet
  facet normal -0.996263 0.0863692 0
    outer loop
      vertex 9.07102e-5 0.00168313 -1
      vertex 3.37049e-5 0.00102557 -1
      vertex 9.07102e-5 0.00168313 1
    endloop
  endfacet
  facet normal -0.996263 0.0863692 0
    outer loop
      vertex 9.07102e-5 0.00168313 1
      vertex 3.37049e-5 0.00102557 -1
      vertex 3.37049e-5 0.00102557 1
    endloop
  endfacet
  facet normal -0.999 0.0447131 0
    outer loop
      vertex 3.37049e-5 0.00102557 -1
      vertex 4.42882e-6 0.000371474 -1
      vertex 3.37049e-5 0.00102557 1
    endloop
  endfacet
  facet normal -0.999 0.0447131 0
    outer loop
      vertex 3.37049e-5 0.00102557 1
      vertex 4.42882e-6 0.000371474 -1
      vertex 4.42882e-6 0.000371474 1
    endloop
  endfacet
  facet normal -0.999995 0.00310675 0
    outer loop
      vertex 4.42882e-6 0.000371474 -1
      vertex 2.4215e-6 -0.000274639 -1
      vertex 4.42882e-6 0.000371474 1
    endloop
  endfacet
  facet normal -0.999995 0.00310675 0
    outer loop
      vertex 4.42882e-6 0.000371474 1
      vertex 2.4215e-6 -0.000274639 -1
      vertex 2.4215e-6 -0.000274639 1
    endloop
  endfacet
  facet normal -0.999267 -0.0382689 0
    outer loop
      vertex 2.4215e-6 -0.000274639 -1
      vertex 2.71529e-5 -0.000920419 -1
      vertex 2.4215e-6 -0.000274639 1
    endloop
  endfacet
  facet normal -0.999267 -0.0382689 0
    outer loop
      vertex 2.4215e-6 -0.000274639 1
      vertex 2.71529e-5 -0.000920419 -1
      vertex 2.71529e-5 -0.000920419 1
    endloop
  endfacet
  facet normal -0.996843 -0.0794032 0
    outer loop
      vertex 2.71529e-5 -0.000920419 -1
      vertex 7.87515e-5 -0.0015682 -1
      vertex 2.71529e-5 -0.000920419 1
    endloop
  endfacet
  facet normal -0.996843 -0.0794032 0
    outer loop
      vertex 2.71529e-5 -0.000920419 1
      vertex 7.87515e-5 -0.0015682 -1
      vertex 7.87515e-5 -0.0015682 1
    endloop
  endfacet
  facet normal -0.992731 -0.120355 0
    outer loop
      vertex 7.87515e-5 -0.0015682 -1
      vertex 0.000157621 -0.00221874 -1
      vertex 7.87515e-5 -0.0015682 1
    endloop
  endfacet
  facet normal -0.992731 -0.120355 0
    outer loop
      vertex 7.87515e-5 -0.0015682 1
      vertex 0.000157621 -0.00221874 -1
      vertex 0.000157621 -0.00221874 1
    endloop
  endfacet
  facet normal -0.986937 -0.161106 0
    outer loop
      vertex 0.000157621 -0.00221874 -1
      vertex 0.000264136 -0.00287125 -1
      vertex 0.000157621 -0.00221874 1
    endloop
  endfacet
  facet normal -0.986937 -0.161106 0
    outer loop
      vertex 0.000157621 -0.00221874 1
      vertex 0.000264136 -0.00287125 -1
      vertex 0.000264136 -0.00287125 1
    endloop
  endfacet
  facet normal -0.97947 -0.20159 0
    outer loop
      vertex 0.000264136 -0.00287125 -1
      vertex 0.000398656 -0.00352484 -1
      vertex 0.000264136 -0.00287125 1
    endloop
  endfacet
  facet normal -0.97947 -0.20159 0
    outer loop
      vertex 0.000264136 -0.00287125 1
      vertex 0.000398656 -0.00352484 -1
      vertex 0.000398656 -0.00352484 1
    endloop
  endfacet
  facet normal -0.970341 -0.24174 0
    outer loop
      vertex 0.000398656 -0.00352484 -1
      vertex 0.000561515 -0.00417856 -1
      vertex 0.000398656 -0.00352484 1
    endloop
  endfacet
  facet normal -0.970341 -0.24174 0
    outer loop
      vertex 0.000398656 -0.00352484 1
      vertex 0.000561515 -0.00417856 -1
      vertex 0.000561515 -0.00417856 1
    endloop
  endfacet
  facet normal -0.959592 -0.281396 0
    outer loop
      vertex 0.000561515 -0.00417856 -1
      vertex 0.000752964 -0.00483142 -1
      vertex 0.000561515 -0.00417856 1
    endloop
  endfacet
  facet normal -0.959592 -0.281396 0
    outer loop
      vertex 0.000561515 -0.00417856 1
      vertex 0.000752964 -0.00483142 -1
      vertex 0.000752964 -0.00483142 1
    endloop
  endfacet
  facet normal -0.947392 -0.320076 0
    outer loop
      vertex 0.000752964 -0.00483142 -1
      vertex 0.000974884 -0.00548828 -1
      vertex 0.000752964 -0.00483142 1
    endloop
  endfacet
  facet normal -0.947392 -0.320076 0
    outer loop
      vertex 0.000752964 -0.00483142 1
      vertex 0.000974884 -0.00548828 -1
      vertex 0.000974884 -0.00548828 1
    endloop
  endfacet
  facet normal -0.933758 -0.357904 0
    outer loop
      vertex 0.000974884 -0.00548828 -1
      vertex 0.00123177 -0.00615848 -1
      vertex 0.000974884 -0.00548828 1
    endloop
  endfacet
  facet normal -0.933758 -0.357904 0
    outer loop
      vertex 0.000974884 -0.00548828 1
      vertex 0.00123177 -0.00615848 -1
      vertex 0.00123177 -0.00615848 1
    endloop
  endfacet
  facet normal -0.918654 -0.395063 0
    outer loop
      vertex 0.00123177 -0.00615848 -1
      vertex 0.00152631 -0.00684339 -1
      vertex 0.00123177 -0.00615848 1
    endloop
  endfacet
  facet normal -0.918654 -0.395063 0
    outer loop
      vertex 0.00123177 -0.00615848 1
      vertex 0.00152631 -0.00684339 -1
      vertex 0.00152631 -0.00684339 1
    endloop
  endfacet
  facet normal -0.902113 -0.4315 0
    outer loop
      vertex 0.00152631 -0.00684339 -1
      vertex 0.0018616 -0.00754437 -1
      vertex 0.00152631 -0.00684339 1
    endloop
  endfacet
  facet normal -0.902113 -0.4315 0
    outer loop
      vertex 0.00152631 -0.00684339 1
      vertex 0.0018616 -0.00754437 -1
      vertex 0.0018616 -0.00754437 1
    endloop
  endfacet
  facet normal -0.88417 -0.467166 0
    outer loop
      vertex 0.0018616 -0.00754437 -1
      vertex 0.00224114 -0.00826268 -1
      vertex 0.0018616 -0.00754437 1
    endloop
  endfacet
  facet normal -0.88417 -0.467166 0
    outer loop
      vertex 0.0018616 -0.00754437 1
      vertex 0.00224114 -0.00826268 -1
      vertex 0.00224114 -0.00826268 1
    endloop
  endfacet
  facet normal -0.864871 -0.501994 0
    outer loop
      vertex 0.00224114 -0.00826268 -1
      vertex 0.00266882 -0.00899953 -1
      vertex 0.00224114 -0.00826268 1
    endloop
  endfacet
  facet normal -0.864871 -0.501994 0
    outer loop
      vertex 0.00224114 -0.00826268 1
      vertex 0.00266882 -0.00899953 -1
      vertex 0.00266882 -0.00899953 1
    endloop
  endfacet
  facet normal -0.844338 -0.535811 0
    outer loop
      vertex 0.00266882 -0.00899953 -1
      vertex 0.00315005 -0.00975786 -1
      vertex 0.00266882 -0.00899953 1
    endloop
  endfacet
  facet normal -0.844338 -0.535811 0
    outer loop
      vertex 0.00266882 -0.00899953 1
      vertex 0.00315005 -0.00975786 -1
      vertex 0.00315005 -0.00975786 1
    endloop
  endfacet
  facet normal -0.82262 -0.568591 0
    outer loop
      vertex 0.00315005 -0.00975786 -1
      vertex 0.00369323 -0.0105437 -1
      vertex 0.00315005 -0.00975786 1
    endloop
  endfacet
  facet normal -0.82262 -0.568591 0
    outer loop
      vertex 0.00315005 -0.00975786 1
      vertex 0.00369323 -0.0105437 -1
      vertex 0.00369323 -0.0105437 1
    endloop
  endfacet
  facet normal -0.799734 -0.600355 0
    outer loop
      vertex 0.00369323 -0.0105437 -1
      vertex 0.0043065 -0.0113607 -1
      vertex 0.00369323 -0.0105437 1
    endloop
  endfacet
  facet normal -0.799734 -0.600355 0
    outer loop
      vertex 0.00369323 -0.0105437 1
      vertex 0.0043065 -0.0113607 -1
      vertex 0.0043065 -0.0113607 1
    endloop
  endfacet
  facet normal -0.775731 -0.631064 0
    outer loop
      vertex 0.0043065 -0.0113607 -1
      vertex 0.00499946 -0.0122125 -1
      vertex 0.0043065 -0.0113607 1
    endloop
  endfacet
  facet normal -0.775731 -0.631064 0
    outer loop
      vertex 0.0043065 -0.0113607 1
      vertex 0.00499946 -0.0122125 -1
      vertex 0.00499946 -0.0122125 1
    endloop
  endfacet
  facet normal -0.750666 -0.660682 0
    outer loop
      vertex 0.00499946 -0.0122125 -1
      vertex 0.00578352 -0.0131033 -1
      vertex 0.00499946 -0.0122125 1
    endloop
  endfacet
  facet normal -0.750666 -0.660682 0
    outer loop
      vertex 0.00499946 -0.0122125 1
      vertex 0.00578352 -0.0131033 -1
      vertex 0.00578352 -0.0131033 1
    endloop
  endfacet
  facet normal -0.724565 -0.689206 0
    outer loop
      vertex 0.00578352 -0.0131033 -1
      vertex 0.00667205 -0.0140374 -1
      vertex 0.00578352 -0.0131033 1
    endloop
  endfacet
  facet normal -0.724565 -0.689206 0
    outer loop
      vertex 0.00578352 -0.0131033 1
      vertex 0.00667205 -0.0140374 -1
      vertex 0.00667205 -0.0140374 1
    endloop
  endfacet
  facet normal -0.696577 -0.717482 0
    outer loop
      vertex 0.00667205 -0.0140374 -1
      vertex 0.00775285 -0.0150867 -1
      vertex 0.00667205 -0.0140374 1
    endloop
  endfacet
  facet normal -0.696577 -0.717482 0
    outer loop
      vertex 0.00667205 -0.0140374 1
      vertex 0.00775285 -0.0150867 -1
      vertex 0.00775285 -0.0150867 1
    endloop
  endfacet
  facet normal -0.667812 -0.74433 0
    outer loop
      vertex 0.00775285 -0.0150867 -1
      vertex 0.00891038 -0.0161253 -1
      vertex 0.00775285 -0.0150867 1
    endloop
  endfacet
  facet normal -0.667812 -0.74433 0
    outer loop
      vertex 0.00775285 -0.0150867 1
      vertex 0.00891038 -0.0161253 -1
      vertex 0.00891038 -0.0161253 1
    endloop
  endfacet
  facet normal -0.639196 -0.769044 0
    outer loop
      vertex 0.00891038 -0.0161253 -1
      vertex 0.0102429 -0.0172328 -1
      vertex 0.00891038 -0.0161253 1
    endloop
  endfacet
  facet normal -0.639196 -0.769044 0
    outer loop
      vertex 0.00891038 -0.0161253 1
      vertex 0.0102429 -0.0172328 -1
      vertex 0.0102429 -0.0172328 1
    endloop
  endfacet
  facet normal -0.609689 -0.792641 0
    outer loop
      vertex 0.0102429 -0.0172328 -1
      vertex 0.0117803 -0.0184153 -1
      vertex 0.0102429 -0.0172328 1
    endloop
  endfacet
  facet normal -0.609689 -0.792641 0
    outer loop
      vertex 0.0102429 -0.0172328 1
      vertex 0.0117803 -0.0184153 -1
      vertex 0.0117803 -0.0184153 1
    endloop
  endfacet
  facet normal -0.57946 -0.815001 0
    outer loop
      vertex 0.0117803 -0.0184153 -1
      vertex 0.0135517 -0.0196748 -1
      vertex 0.0117803 -0.0184153 1
    endloop
  endfacet
  facet normal -0.57946 -0.815001 0
    outer loop
      vertex 0.0117803 -0.0184153 1
      vertex 0.0135517 -0.0196748 -1
      vertex 0.0135517 -0.0196748 1
    endloop
  endfacet
  facet normal -0.548761 -0.835979 0
    outer loop
      vertex 0.0135517 -0.0196748 -1
      vertex 0.0156118 -0.0210271 -1
      vertex 0.0135517 -0.0196748 1
    endloop
  endfacet
  facet normal -0.548761 -0.835979 0
    outer loop
      vertex 0.0135517 -0.0196748 1
      vertex 0.0156118 -0.0210271 -1
      vertex 0.0156118 -0.0210271 1
    endloop
  endfacet
  facet normal -0.517438 -0.855721 0
    outer loop
      vertex 0.0156118 -0.0210271 -1
      vertex 0.018031 -0.02249 -1
      vertex 0.0156118 -0.0210271 1
    endloop
  endfacet
  facet normal -0.517438 -0.855721 0
    outer loop
      vertex 0.0156118 -0.0210271 1
      vertex 0.018031 -0.02249 -1
      vertex 0.018031 -0.02249 1
    endloop
  endfacet
  facet normal -0.485571 -0.874197 0
    outer loop
      vertex 0.018031 -0.02249 -1
      vertex 0.0208674 -0.0240654 -1
      vertex 0.018031 -0.02249 1
    endloop
  endfacet
  facet normal -0.485571 -0.874197 0
    outer loop
      vertex 0.018031 -0.02249 1
      vertex 0.0208674 -0.0240654 -1
      vertex 0.0208674 -0.0240654 1
    endloop
  endfacet
  facet normal -0.453415 -0.8913 0
    outer loop
      vertex 0.0208674 -0.0240654 -1
      vertex 0.0242349 -0.0257785 -1
      vertex 0.0208674 -0.0240654 1
    endloop
  endfacet
  facet normal -0.453415 -0.8913 0
    outer loop
      vertex 0.0208674 -0.0240654 1
      vertex 0.0242349 -0.0257785 -1
      vertex 0.0242349 -0.0257785 1
    endloop
  endfacet
  facet normal -0.432585 -0.901593 0
    outer loop
      vertex 0.0242349 -0.0257785 -1
      vertex 0.0253775 -0.0263267 -1
      vertex 0.0242349 -0.0257785 1
    endloop
  endfacet
  facet normal -0.432585 -0.901593 0
    outer loop
      vertex 0.0242349 -0.0257785 1
      vertex 0.0253775 -0.0263267 -1
      vertex 0.0253775 -0.0263267 1
    endloop
  endfacet
  facet normal -0.410123 -0.91203 0
    outer loop
      vertex 0.0253775 -0.0263267 -1
      vertex 0.0298262 -0.0283272 -1
      vertex 0.0253775 -0.0263267 1
    endloop
  endfacet
  facet normal -0.410123 -0.91203 0
    outer loop
      vertex 0.0253775 -0.0263267 1
      vertex 0.0298262 -0.0283272 -1
      vertex 0.0298262 -0.0283272 1
    endloop
  endfacet
  facet normal -0.376542 -0.9264 0
    outer loop
      vertex 0.0298262 -0.0283272 -1
      vertex 0.0349811 -0.0304225 -1
      vertex 0.0298262 -0.0283272 1
    endloop
  endfacet
  facet normal -0.376542 -0.9264 0
    outer loop
      vertex 0.0298262 -0.0283272 1
      vertex 0.0349811 -0.0304225 -1
      vertex 0.0349811 -0.0304225 1
    endloop
  endfacet
  facet normal -0.343411 -0.939185 0
    outer loop
      vertex 0.0349811 -0.0304225 -1
      vertex 0.041255 -0.0327165 -1
      vertex 0.0349811 -0.0304225 1
    endloop
  endfacet
  facet normal -0.343411 -0.939185 0
    outer loop
      vertex 0.0349811 -0.0304225 1
      vertex 0.041255 -0.0327165 -1
      vertex 0.041255 -0.0327165 1
    endloop
  endfacet
  facet normal -0.310184 -0.950677 0
    outer loop
      vertex 0.041255 -0.0327165 -1
      vertex 0.0489077 -0.0352134 -1
      vertex 0.041255 -0.0327165 1
    endloop
  endfacet
  facet normal -0.310184 -0.950677 0
    outer loop
      vertex 0.041255 -0.0327165 1
      vertex 0.0489077 -0.0352134 -1
      vertex 0.0489077 -0.0352134 1
    endloop
  endfacet
  facet normal -0.278482 -0.960441 0
    outer loop
      vertex 0.0489077 -0.0352134 -1
      vertex 0.0574404 -0.0376875 -1
      vertex 0.0489077 -0.0352134 1
    endloop
  endfacet
  facet normal -0.278482 -0.960441 0
    outer loop
      vertex 0.0489077 -0.0352134 1
      vertex 0.0574404 -0.0376875 -1
      vertex 0.0574404 -0.0376875 1
    endloop
  endfacet
  facet normal -0.249388 -0.968404 0
    outer loop
      vertex 0.0574404 -0.0376875 -1
      vertex 0.0669289 -0.040131 -1
      vertex 0.0574404 -0.0376875 1
    endloop
  endfacet
  facet normal -0.249388 -0.968404 0
    outer loop
      vertex 0.0574404 -0.0376875 1
      vertex 0.0669289 -0.040131 -1
      vertex 0.0669289 -0.040131 1
    endloop
  endfacet
  facet normal -0.221916 -0.975066 0
    outer loop
      vertex 0.0669289 -0.040131 -1
      vertex 0.0779673 -0.0426433 -1
      vertex 0.0669289 -0.040131 1
    endloop
  endfacet
  facet normal -0.221916 -0.975066 0
    outer loop
      vertex 0.0669289 -0.040131 1
      vertex 0.0779673 -0.0426433 -1
      vertex 0.0779673 -0.0426433 1
    endloop
  endfacet
  facet normal -0.196564 -0.980491 0
    outer loop
      vertex 0.0779673 -0.0426433 -1
      vertex 0.0895334 -0.044962 -1
      vertex 0.0779673 -0.0426433 1
    endloop
  endfacet
  facet normal -0.196564 -0.980491 0
    outer loop
      vertex 0.0779673 -0.0426433 1
      vertex 0.0895334 -0.044962 -1
      vertex 0.0895334 -0.044962 1
    endloop
  endfacet
  facet normal -0.173616 -0.984813 0
    outer loop
      vertex 0.0895334 -0.044962 -1
      vertex 0.102181 -0.0471916 -1
      vertex 0.0895334 -0.044962 1
    endloop
  endfacet
  facet normal -0.173616 -0.984813 0
    outer loop
      vertex 0.0895334 -0.044962 1
      vertex 0.102181 -0.0471916 -1
      vertex 0.102181 -0.0471916 1
    endloop
  endfacet
  facet normal -0.152225 -0.988346 0
    outer loop
      vertex 0.102181 -0.0471916 -1
      vertex 0.115927 -0.0493088 -1
      vertex 0.102181 -0.0471916 1
    endloop
  endfacet
  facet normal -0.152225 -0.988346 0
    outer loop
      vertex 0.102181 -0.0471916 1
      vertex 0.115927 -0.0493088 -1
      vertex 0.115927 -0.0493088 1
    endloop
  endfacet
  facet normal -0.132237 -0.991218 0
    outer loop
      vertex 0.115927 -0.0493088 -1
      vertex 0.130779 -0.0512902 -1
      vertex 0.115927 -0.0493088 1
    endloop
  endfacet
  facet normal -0.132237 -0.991218 0
    outer loop
      vertex 0.115927 -0.0493088 1
      vertex 0.130779 -0.0512902 -1
      vertex 0.130779 -0.0512902 1
    endloop
  endfacet
  facet normal -0.113523 -0.993535 0
    outer loop
      vertex 0.130779 -0.0512902 -1
      vertex 0.146767 -0.053117 -1
      vertex 0.130779 -0.0512902 1
    endloop
  endfacet
  facet normal -0.113523 -0.993535 0
    outer loop
      vertex 0.130779 -0.0512902 1
      vertex 0.146767 -0.053117 -1
      vertex 0.146767 -0.053117 1
    endloop
  endfacet
  facet normal -0.0959396 -0.995387 0
    outer loop
      vertex 0.146767 -0.053117 -1
      vertex 0.163901 -0.0547684 -1
      vertex 0.146767 -0.053117 1
    endloop
  endfacet
  facet normal -0.0959396 -0.995387 0
    outer loop
      vertex 0.146767 -0.053117 1
      vertex 0.163901 -0.0547684 -1
      vertex 0.163901 -0.0547684 1
    endloop
  endfacet
  facet normal -0.0793998 -0.996843 0
    outer loop
      vertex 0.163901 -0.0547684 -1
      vertex 0.182197 -0.0562258 -1
      vertex 0.163901 -0.0547684 1
    endloop
  endfacet
  facet normal -0.0793998 -0.996843 0
    outer loop
      vertex 0.163901 -0.0547684 1
      vertex 0.182197 -0.0562258 -1
      vertex 0.182197 -0.0562258 1
    endloop
  endfacet
  facet normal -0.0635224 -0.99798 0
    outer loop
      vertex 0.182197 -0.0562258 -1
      vertex 0.202414 -0.0575126 -1
      vertex 0.182197 -0.0562258 1
    endloop
  endfacet
  facet normal -0.0635224 -0.99798 0
    outer loop
      vertex 0.182197 -0.0562258 1
      vertex 0.202414 -0.0575126 -1
      vertex 0.202414 -0.0575126 1
    endloop
  endfacet
  facet normal -0.0485591 -0.99882 0
    outer loop
      vertex 0.202414 -0.0575126 -1
      vertex 0.223116 -0.0585191 -1
      vertex 0.202414 -0.0575126 1
    endloop
  endfacet
  facet normal -0.0485591 -0.99882 0
    outer loop
      vertex 0.202414 -0.0575126 1
      vertex 0.223116 -0.0585191 -1
      vertex 0.223116 -0.0585191 1
    endloop
  endfacet
  facet normal -0.0346877 -0.999398 0
    outer loop
      vertex 0.223116 -0.0585191 -1
      vertex 0.245069 -0.059281 -1
      vertex 0.223116 -0.0585191 1
    endloop
  endfacet
  facet normal -0.0346877 -0.999398 0
    outer loop
      vertex 0.223116 -0.0585191 1
      vertex 0.245069 -0.059281 -1
      vertex 0.245069 -0.059281 1
    endloop
  endfacet
  facet normal -0.0215604 -0.999768 0
    outer loop
      vertex 0.245069 -0.059281 -1
      vertex 0.268284 -0.0597817 -1
      vertex 0.245069 -0.059281 1
    endloop
  endfacet
  facet normal -0.0215604 -0.999768 0
    outer loop
      vertex 0.245069 -0.059281 1
      vertex 0.268284 -0.0597817 -1
      vertex 0.268284 -0.0597817 1
    endloop
  endfacet
  facet normal -0.00915078 -0.999958 0
    outer loop
      vertex 0.268284 -0.0597817 -1
      vertex 0.292795 -0.060006 -1
      vertex 0.268284 -0.0597817 1
    endloop
  endfacet
  facet normal -0.00915078 -0.999958 0
    outer loop
      vertex 0.268284 -0.0597817 1
      vertex 0.292795 -0.060006 -1
      vertex 0.292795 -0.060006 1
    endloop
  endfacet
  facet normal 0.00258119 -0.999997 0
    outer loop
      vertex 0.292795 -0.060006 -1
      vertex 0.318665 -0.0599392 -1
      vertex 0.292795 -0.060006 1
    endloop
  endfacet
  facet normal 0.00258119 -0.999997 0
    outer loop
      vertex 0.292795 -0.060006 1
      vertex 0.318665 -0.0599392 -1
      vertex 0.318665 -0.0599392 1
    endloop
  endfacet
  facet normal 0.0136723 -0.999907 0
    outer loop
      vertex 0.318665 -0.0599392 -1
      vertex 0.345941 -0.0595662 -1
      vertex 0.318665 -0.0599392 1
    endloop
  endfacet
  facet normal 0.0136723 -0.999907 0
    outer loop
      vertex 0.318665 -0.0599392 1
      vertex 0.345941 -0.0595662 -1
      vertex 0.345941 -0.0595662 1
    endloop
  endfacet
  facet normal 0.0241441 -0.999708 0
    outer loop
      vertex 0.345941 -0.0595662 -1
      vertex 0.374696 -0.0588718 -1
      vertex 0.345941 -0.0595662 1
    endloop
  endfacet
  facet normal 0.0241441 -0.999708 0
    outer loop
      vertex 0.345941 -0.0595662 1
      vertex 0.374696 -0.0588718 -1
      vertex 0.374696 -0.0588718 1
    endloop
  endfacet
  facet normal 0.0340258 -0.999421 0
    outer loop
      vertex 0.374696 -0.0588718 -1
      vertex 0.405018 -0.0578394 -1
      vertex 0.374696 -0.0588718 1
    endloop
  endfacet
  facet normal 0.0340258 -0.999421 0
    outer loop
      vertex 0.374696 -0.0588718 1
      vertex 0.405018 -0.0578394 -1
      vertex 0.405018 -0.0578394 1
    endloop
  endfacet
  facet normal 0.0433481 -0.99906 0
    outer loop
      vertex 0.405018 -0.0578394 -1
      vertex 0.436986 -0.0564524 -1
      vertex 0.405018 -0.0578394 1
    endloop
  endfacet
  facet normal 0.0433481 -0.99906 0
    outer loop
      vertex 0.405018 -0.0578394 1
      vertex 0.436986 -0.0564524 -1
      vertex 0.436986 -0.0564524 1
    endloop
  endfacet
  facet normal 0.052127 -0.99864 0
    outer loop
      vertex 0.436986 -0.0564524 -1
      vertex 0.470702 -0.0546924 -1
      vertex 0.436986 -0.0564524 1
    endloop
  endfacet
  facet normal 0.052127 -0.99864 0
    outer loop
      vertex 0.436986 -0.0564524 1
      vertex 0.470702 -0.0546924 -1
      vertex 0.470702 -0.0546924 1
    endloop
  endfacet
  facet normal 0.0605818 -0.998163 0
    outer loop
      vertex 0.470702 -0.0546924 -1
      vertex 0.507932 -0.0524328 -1
      vertex 0.470702 -0.0546924 1
    endloop
  endfacet
  facet normal 0.0605818 -0.998163 0
    outer loop
      vertex 0.470702 -0.0546924 1
      vertex 0.507932 -0.0524328 -1
      vertex 0.507932 -0.0524328 1
    endloop
  endfacet
  facet normal 0.0685298 -0.997649 0
    outer loop
      vertex 0.507932 -0.0524328 -1
      vertex 0.545463 -0.0498548 -1
      vertex 0.507932 -0.0524328 1
    endloop
  endfacet
  facet normal 0.0685298 -0.997649 0
    outer loop
      vertex 0.507932 -0.0524328 1
      vertex 0.545463 -0.0498548 -1
      vertex 0.545463 -0.0498548 1
    endloop
  endfacet
  facet normal 0.0758595 -0.997119 0
    outer loop
      vertex 0.545463 -0.0498548 -1
      vertex 0.585054 -0.0468427 -1
      vertex 0.545463 -0.0498548 1
    endloop
  endfacet
  facet normal 0.0758595 -0.997119 0
    outer loop
      vertex 0.545463 -0.0498548 1
      vertex 0.585054 -0.0468427 -1
      vertex 0.585054 -0.0468427 1
    endloop
  endfacet
  facet normal 0.0828137 -0.996565 0
    outer loop
      vertex 0.585054 -0.0468427 -1
      vertex 0.626674 -0.0433842 -1
      vertex 0.585054 -0.0468427 1
    endloop
  endfacet
  facet normal 0.0828137 -0.996565 0
    outer loop
      vertex 0.585054 -0.0468427 1
      vertex 0.626674 -0.0433842 -1
      vertex 0.626674 -0.0433842 1
    endloop
  endfacet
  facet normal 0.0894426 -0.995992 0
    outer loop
      vertex 0.626674 -0.0433842 -1
      vertex 0.670189 -0.0394765 -1
      vertex 0.626674 -0.0433842 1
    endloop
  endfacet
  facet normal 0.0894426 -0.995992 0
    outer loop
      vertex 0.626674 -0.0433842 1
      vertex 0.670189 -0.0394765 -1
      vertex 0.670189 -0.0394765 1
    endloop
  endfacet
  facet normal 0.0958173 -0.995399 0
    outer loop
      vertex 0.670189 -0.0394765 -1
      vertex 0.715402 -0.0351242 -1
      vertex 0.670189 -0.0394765 1
    endloop
  endfacet
  facet normal 0.0958173 -0.995399 0
    outer loop
      vertex 0.670189 -0.0394765 1
      vertex 0.715402 -0.0351242 -1
      vertex 0.715402 -0.0351242 1
    endloop
  endfacet
  facet normal 0.102039 -0.99478 0
    outer loop
      vertex 0.715402 -0.0351242 -1
      vertex 0.761899 -0.0303549 -1
      vertex 0.715402 -0.0351242 1
    endloop
  endfacet
  facet normal 0.102039 -0.99478 0
    outer loop
      vertex 0.715402 -0.0351242 1
      vertex 0.761899 -0.0303549 -1
      vertex 0.761899 -0.0303549 1
    endloop
  endfacet
  facet normal 0.108186 -0.994131 0
    outer loop
      vertex 0.761899 -0.0303549 -1
      vertex 0.808972 -0.0252321 -1
      vertex 0.761899 -0.0303549 1
    endloop
  endfacet
  facet normal 0.108186 -0.994131 0
    outer loop
      vertex 0.761899 -0.0303549 1
      vertex 0.808972 -0.0252321 -1
      vertex 0.808972 -0.0252321 1
    endloop
  endfacet
  facet normal 0.114351 -0.99344 0
    outer loop
      vertex 0.808972 -0.0252321 -1
      vertex 0.855801 -0.0198417 -1
      vertex 0.808972 -0.0252321 1
    endloop
  endfacet
  facet normal 0.114351 -0.99344 0
    outer loop
      vertex 0.808972 -0.0252321 1
      vertex 0.855801 -0.0198417 -1
      vertex 0.855801 -0.0198417 1
    endloop
  endfacet
  facet normal 0.12058 -0.992704 0
    outer loop
      vertex 0.855801 -0.0198417 -1
      vertex 0.901288 -0.0143167 -1
      vertex 0.855801 -0.0198417 1
    endloop
  endfacet
  facet normal 0.12058 -0.992704 0
    outer loop
      vertex 0.855801 -0.0198417 1
      vertex 0.901288 -0.0143167 -1
      vertex 0.901288 -0.0143167 1
    endloop
  endfacet
  facet normal 0.126844 -0.991923 0
    outer loop
      vertex 0.901288 -0.0143167 -1
      vertex 0.944089 -0.00884335 -1
      vertex 0.901288 -0.0143167 1
    endloop
  endfacet
  facet normal 0.126844 -0.991923 0
    outer loop
      vertex 0.901288 -0.0143167 1
      vertex 0.944089 -0.00884335 -1
      vertex 0.944089 -0.00884335 1
    endloop
  endfacet
  facet normal 0.132954 -0.991122 0
    outer loop
      vertex 0.944089 -0.00884335 -1
      vertex 0.981976 -0.00376104 -1
      vertex 0.944089 -0.00884335 1
    endloop
  endfacet
  facet normal 0.132954 -0.991122 0
    outer loop
      vertex 0.944089 -0.00884335 1
      vertex 0.981976 -0.00376104 -1
      vertex 0.981976 -0.00376104 1
    endloop
  endfacet
  facet normal 0.137444 -0.99051 0
    outer loop
      vertex 0.981976 -0.00376104 -1
      vertex 1 -0.00126 -1
      vertex 0.981976 -0.00376104 1
    endloop
  endfacet
  facet normal 0.137444 -0.99051 0
    outer loop
      vertex 0.981976 -0.00376104 1
      vertex 1 -0.00126 -1
      vertex 1 -0.00126 1
    endloop
  endfacet
  facet normal 0.138961 -0.990298 0
    outer loop
      vertex 1.00898 3.92048e-16 1
      vertex 1 -0.00126 1
      vertex 1.00898 3.92048e-16 -1
    endloop
  endfacet
  facet normal 0.138961 -0.990298 0
    outer loop
      vertex 1 -0.00126 1
      vertex 1 -0.00126 -1
      vertex 1.00898 3.92048e-16 -1
    endloop
  endfacet
endsolid Onshape
